<svg width="50" height="38" viewBox="0 0 50 38" fill="none" xmlns="http://www.w3.org/2000/svg">
<path d="M29.6273 0.473365C29.7463 0.473243 29.8653 0.473007 29.9843 0.472767C31.8736 0.469734 33.7548 0.528861 35.6389 0.666961C35.7758 0.676995 35.9128 0.686904 36.0497 0.696806C37.1194 0.774593 38.1883 0.856634 39.2524 0.993437C39.2963 0.998833 39.3402 1.00423 39.3855 1.00979C40.3724 1.1338 41.3441 1.42317 41.9834 2.23904C42.176 2.53091 42.3019 2.77663 42.2906 3.13077C42.2379 3.31548 42.2379 3.31548 42.1172 3.4361C41.9517 3.44485 41.7925 3.44735 41.6272 3.44364C41.5817 3.4431 41.5362 3.44255 41.4894 3.44199C41.377 3.44057 41.2646 3.4384 41.1522 3.4361C41.2074 3.5844 41.2627 3.73266 41.3181 3.88091C41.341 3.94237 41.341 3.94237 41.3643 4.00507C41.4137 4.13728 41.4638 4.26922 41.5141 4.4011C41.5382 4.46499 41.5382 4.46499 41.5627 4.53017C41.7476 5.00779 41.9664 5.47 42.1823 5.93417C42.3043 6.19661 42.4259 6.45931 42.5474 6.72196C42.5722 6.77539 42.5969 6.82881 42.6224 6.88386C42.8603 7.39748 43.096 7.91206 43.331 8.42698C43.3507 8.47001 43.3703 8.51304 43.3906 8.55738C43.4699 8.73112 43.5492 8.90486 43.6284 9.0786C43.7668 9.38183 43.9057 9.68486 44.0447 9.9878C46.8071 16.0101 46.8071 16.0101 46.701 17.1874C46.6811 17.2073 46.6612 17.2272 46.6407 17.2477C46.6208 17.606 46.6009 17.9642 46.5804 18.3333C45.8042 18.3731 45.0279 18.4129 44.2282 18.454C44.3756 18.7171 44.3756 18.7171 44.526 18.9855C44.7585 19.4175 44.914 19.7648 44.8916 20.2633C44.895 20.3198 44.8983 20.3762 44.9018 20.4344C44.9397 21.2161 44.693 21.9774 44.1728 22.5654C43.9819 22.7504 43.8388 22.8815 43.5648 22.8832C43.505 22.8745 43.4453 22.8658 43.3838 22.8568C43.3925 22.9003 43.4012 22.9439 43.4102 22.9887C43.4416 23.1458 43.473 23.3028 43.5044 23.4599C43.4583 23.462 43.4121 23.4641 43.3645 23.4662C43.1522 23.4765 42.9401 23.4889 42.7279 23.5014C42.6553 23.5046 42.5827 23.5078 42.5079 23.5112C42.031 23.541 41.6793 23.6298 41.2729 23.8821C41.225 23.9117 41.1771 23.9414 41.1278 23.9719C41.0468 24.0231 40.9663 24.0752 40.8865 24.1283C40.7904 24.1837 40.7904 24.1837 40.6697 24.1837C40.6889 24.2265 40.708 24.2693 40.7278 24.3135C40.8155 24.5101 40.9028 24.7069 40.9902 24.9036C41.0203 24.971 41.0504 25.0384 41.0815 25.1078C41.2458 25.4789 41.3937 25.8466 41.5141 26.2343C41.5745 26.2147 41.6348 26.1951 41.6969 26.1749C42.1014 26.075 42.5177 26.0958 42.9315 26.0986C42.9772 26.0987 43.0229 26.0988 43.07 26.099C43.9531 26.1018 44.835 26.1334 45.7172 26.1702C45.7803 26.1728 45.8434 26.1754 45.9084 26.1781C46.0899 26.1858 46.2714 26.1938 46.4529 26.202C46.5066 26.2043 46.5602 26.2067 46.6155 26.2091C46.9477 26.2248 47.2755 26.2548 47.6057 26.2946C47.6057 26.3344 47.6057 26.3742 47.6057 26.4152C47.6409 26.4309 47.6761 26.4466 47.7124 26.4628C48.8032 27.055 49.4231 28.6132 49.777 29.7324C50.2461 31.3795 49.9469 33.1914 49.144 34.6782C48.946 35.0311 48.7247 35.3449 48.4501 35.6431C48.4013 35.6974 48.3524 35.7518 48.3021 35.8078C47.2935 36.8768 45.8843 37.4463 44.423 37.525C42.85 37.5559 41.4757 37.0909 40.3079 36.005C39.4583 35.1063 38.9659 34.1078 38.7171 32.9102C38.707 32.8619 38.6969 32.8137 38.6864 32.7641C38.6163 32.3951 38.6087 32.0374 38.6191 31.6624C37.4804 31.6993 37.4804 31.6993 36.3817 31.9638C35.7133 32.1949 35.0006 32.1661 34.303 32.1638C34.2122 32.1638 34.2122 32.1638 34.1196 32.1638C32.2826 32.1618 30.4458 32.0897 28.61 32.0284C28.3585 32.0201 28.107 32.0118 27.8554 32.0036C27.795 32.0016 27.7345 31.9996 27.6722 31.9976C26.7371 31.9675 25.8035 31.951 24.8678 31.964C24.8441 32.0129 24.8203 32.0618 24.7958 32.1122C24.7641 32.1768 24.7323 32.2414 24.6996 32.308C24.6528 32.4037 24.6528 32.4037 24.605 32.5015C24.461 32.7724 24.2854 33.0005 24.0838 33.2306C24.0479 33.2728 24.0121 33.315 23.9751 33.3585C23.4801 33.9006 22.84 34.1474 22.119 34.2088C21.0473 34.2574 20.3003 34.0919 19.4889 33.3517C18.9173 32.7611 18.4664 31.8898 18.4747 31.0593C18.4255 31.0625 18.3764 31.0656 18.3258 31.0689C16.9188 31.1583 15.5117 31.2191 14.1028 31.2686C13.6777 31.2835 13.2526 31.2988 12.8275 31.3142C12.6822 31.3194 12.5368 31.3245 12.3914 31.3295C11.8735 31.3479 11.3567 31.3738 10.8396 31.4089C10.5697 31.425 10.3012 31.4281 10.0309 31.425C9.98347 31.4247 9.93605 31.4244 9.88719 31.4241C9.77425 31.4234 9.66133 31.4224 9.5484 31.4212C9.54467 31.4921 9.54093 31.563 9.53709 31.636C9.41663 32.6855 8.8425 33.7301 8.04011 34.4095C7.22509 35.0297 6.2113 35.2028 5.20588 35.1003C4.22005 34.9119 3.39462 34.3291 2.81222 33.5246C2.3496 32.8382 2.06267 32.1086 1.88869 31.3006C1.87251 31.2296 1.87251 31.2296 1.85601 31.1572C1.75723 30.6837 1.7521 30.2223 1.75675 29.74C1.75679 29.6621 1.75683 29.5842 1.75687 29.5039C1.75978 28.8804 1.75978 28.8804 1.82837 28.5865C1.7668 28.5875 1.7668 28.5875 1.70398 28.5886C1.33007 28.5921 0.957742 28.5838 0.584424 28.5639C0.542286 28.562 0.500147 28.5602 0.456731 28.5582C0.153744 28.5403 0.153744 28.5403 0.0189931 28.4056C0.00489629 28.2432 -0.00103033 28.0893 0.000145366 27.9268C0.000441776 27.8786 0.000738186 27.8303 0.00104358 27.7806C0.00768707 27.4309 0.0381771 27.0889 0.0906144 26.7432C0.0966932 26.7014 0.102772 26.6596 0.109035 26.6166C0.146702 26.3927 0.195608 26.186 0.272465 25.9718C0.559157 25.1679 0.546642 24.3699 0.546536 23.5249C0.546871 23.3023 0.549023 23.0797 0.550985 22.8571C0.554301 22.4572 0.556641 22.0572 0.558421 21.6573C0.563894 20.4588 0.575352 19.2603 0.586333 18.0618C0.587574 17.9261 0.588806 17.7904 0.590025 17.6546C0.605645 15.9176 0.624773 14.1808 0.671444 12.4442C0.674796 12.3171 0.677925 12.19 0.680988 12.0629C0.70994 10.8822 0.794299 9.71202 0.903882 8.5366C0.924895 8.30828 0.944182 8.07986 0.962323 7.85129C1.04675 6.89085 1.31121 5.91383 1.76806 5.06454C1.79722 5.0067 1.82637 4.94886 1.85641 4.88926C2.54975 3.5504 3.75187 2.45554 5.18477 1.97237C5.47187 1.88307 5.76222 1.8082 6.05403 1.73604C6.13989 1.71451 6.13989 1.71451 6.22749 1.69254C7.23511 1.45628 8.27741 1.36212 9.30715 1.27615C9.36264 1.27144 9.41812 1.26672 9.47529 1.26186C10.8709 1.14441 12.2688 1.05722 13.6663 0.967713C13.85 0.955948 14.0336 0.944135 14.2173 0.93232C15.4781 0.851417 16.739 0.775414 18.0009 0.713313C18.0501 0.710863 18.0993 0.708413 18.1499 0.705889C19.0246 0.662675 19.8995 0.637264 20.775 0.618878C21.1227 0.611427 21.4695 0.600105 21.8166 0.579766C22.8013 0.522949 23.7878 0.519881 24.7738 0.508967C24.9372 0.507149 25.1006 0.505259 25.2641 0.503356C26.7184 0.486557 28.1728 0.474511 29.6273 0.473365Z" fill="#FEC70D"/>
<path d="M29.6274 0.473365C29.7464 0.473243 29.8654 0.473007 29.9844 0.472767C31.8737 0.469734 33.7549 0.528861 35.639 0.666961C35.7759 0.676995 35.9128 0.686904 36.0498 0.696806C37.1195 0.774593 38.1884 0.856634 39.2525 0.993437C39.2964 0.998833 39.3403 1.00423 39.3856 1.00979C40.3724 1.1338 41.3442 1.42317 41.9835 2.23904C42.176 2.53091 42.302 2.77663 42.2907 3.13077C42.2379 3.31548 42.2379 3.31548 42.1173 3.4361C41.9556 3.44763 41.8002 3.45154 41.6384 3.4502C41.5884 3.45026 41.5383 3.45032 41.4867 3.45038C41.3179 3.45044 41.1491 3.44964 40.9803 3.44884C40.8597 3.44871 40.739 3.44863 40.6183 3.4486C40.3578 3.44842 40.0973 3.44786 39.8368 3.44701C39.424 3.44567 39.0113 3.44518 38.5985 3.44481C37.9445 3.44412 37.2904 3.44287 36.6364 3.44138C35.4685 3.43871 34.3006 3.4367 33.1327 3.43533C32.7234 3.43483 32.314 3.43399 31.9046 3.43286C31.6482 3.43221 31.3919 3.43182 31.1355 3.43149C31.0177 3.43128 30.8998 3.43097 30.782 3.43053C30.1306 3.4282 29.4837 3.4406 28.8335 3.48272C28.5509 3.49982 28.2697 3.50423 27.9867 3.5023C27.936 3.50222 27.8854 3.50213 27.8332 3.50204C27.6765 3.50172 27.5199 3.50096 27.3633 3.50018C27.2549 3.49988 27.1466 3.4996 27.0382 3.49936C26.7772 3.49876 26.5161 3.49758 26.2551 3.49641C26.3347 3.87457 26.4143 4.25274 26.4963 4.64235C26.2973 4.64235 26.0983 4.64235 25.8932 4.64235C25.8733 7.20987 25.8534 9.77738 25.8329 12.4227C26.1314 12.4227 26.43 12.4227 26.7376 12.4227C27.182 12.6893 27.3348 12.9539 27.4748 13.441C27.5761 13.904 27.5524 14.3871 27.5465 14.8583C27.5443 15.038 27.544 15.2176 27.544 15.3973C27.5358 17.6454 27.5358 17.6454 26.9185 18.3936C26.5149 18.7493 26.4663 18.6952 25.8329 18.6952C25.8329 19.1729 25.8329 19.6506 25.8329 20.1427C26.0481 20.1415 26.2633 20.1402 26.485 20.1389C27.1341 20.1371 27.7788 20.1603 28.4263 20.203C28.4676 22.3431 28.3327 24.4692 28.0984 26.5962C28.0896 26.6783 28.0896 26.6783 28.0806 26.7622C27.8614 28.7821 27.8614 28.7821 27.1673 29.4233C26.9516 29.57 26.7449 29.658 26.4963 29.7324C26.4622 29.7429 26.4282 29.7534 26.393 29.7641C26.2139 29.8013 26.0444 29.8017 25.8614 29.8029C25.8028 29.8033 25.8028 29.8033 25.743 29.8037C25.6134 29.8043 25.4838 29.8043 25.3542 29.8041C25.309 29.804 25.2638 29.8039 25.2173 29.8039C23.6872 29.7998 22.1721 29.7112 20.6535 29.5213C20.6014 29.5149 20.5493 29.5084 20.4956 29.5017C20.3473 29.483 20.1991 29.4637 20.0509 29.4441C20.0074 29.4385 19.9639 29.4329 19.9191 29.4271C19.6487 29.3901 19.3981 29.3302 19.1382 29.2499C19.1613 29.0036 19.2367 28.776 19.3669 28.5667C19.6757 28.3328 20.1542 28.399 20.5254 28.4056C20.8723 26.8927 20.9059 25.3789 20.9095 23.834C20.9099 23.7093 20.9105 23.5846 20.9113 23.46C20.9126 23.2226 20.9121 22.9853 20.9113 22.7479C20.9118 22.6411 20.9118 22.6411 20.9124 22.5321C20.9072 21.9178 20.802 21.3539 20.4047 20.8665C20.1118 20.645 19.8399 20.618 19.4802 20.6018C19.4029 20.5981 19.3257 20.5945 19.2461 20.5908C19.1621 20.5871 19.078 20.5834 18.994 20.5797C18.9078 20.5758 18.8216 20.5718 18.7354 20.5678C18.5089 20.5574 18.2825 20.5473 18.056 20.5372C17.8248 20.5269 17.5935 20.5162 17.3623 20.5057C16.9088 20.4849 16.4554 20.4645 16.0019 20.4443C16.0059 20.4912 16.0099 20.5381 16.014 20.5865C16.054 21.078 16.0786 21.5686 16.0945 22.0614C16.0971 22.1392 16.0997 22.2169 16.1024 22.297C16.1078 22.461 16.1131 22.625 16.1183 22.7891C16.1235 22.9531 16.129 23.1172 16.1346 23.2812C16.154 23.8433 16.1698 24.4054 16.1829 24.9677C16.1849 25.0492 16.187 25.1307 16.1891 25.2122C16.195 25.4486 16.1984 25.685 16.2015 25.9214C16.2033 25.9918 16.2051 26.0622 16.2069 26.1348C16.2112 26.7296 16.0816 27.2712 15.7004 27.7421C15.3792 28.0531 15.1314 28.1143 14.6939 28.1115C14.647 28.1113 14.6001 28.1111 14.5518 28.1109C14.1404 28.1075 13.7292 28.0961 13.318 28.0814C13.2285 28.0786 13.2285 28.0786 13.1371 28.0758C12.4556 28.0482 11.8694 27.9775 11.3805 27.4707C10.6013 26.5221 10.6271 25.0419 10.5097 23.8821C10.4941 23.7323 10.4786 23.5826 10.4629 23.4328C10.3857 22.687 10.3116 21.9412 10.2554 21.1935C10.1964 20.459 9.98191 19.7835 9.66909 19.1174C9.6313 19.0348 9.6313 19.0348 9.59275 18.9506C9.2396 18.2402 8.67616 17.6087 7.91925 17.3339C7.58645 17.226 7.26229 17.2114 6.9146 17.1995C6.84628 17.1965 6.77796 17.1935 6.70757 17.1905C6.48341 17.1809 6.25922 17.1725 6.03501 17.1641C5.87893 17.1576 5.72284 17.1511 5.56677 17.1446C5.19898 17.1292 4.83117 17.1146 4.46335 17.1004C4.04426 17.0841 3.62522 17.0669 3.20617 17.0496C2.34488 17.0141 1.48355 16.9798 0.622183 16.9461C0.615935 15.5743 0.624799 14.204 0.663781 12.8326C0.668819 12.6546 0.673422 12.4766 0.677622 12.2986C0.70746 11.0379 0.784941 9.78791 0.904006 8.53254C0.925213 8.30576 0.944407 8.07889 0.962379 7.85184C1.04649 6.89128 1.31124 5.9139 1.76812 5.06454C1.79728 5.0067 1.82643 4.94886 1.85647 4.88926C2.54981 3.5504 3.75193 2.45554 5.18483 1.97237C5.47193 1.88307 5.76228 1.8082 6.05409 1.73604C6.13996 1.71451 6.13996 1.71451 6.22755 1.69254C7.23517 1.45628 8.27747 1.36212 9.30721 1.27615C9.3627 1.27144 9.41819 1.26672 9.47536 1.26186C10.8709 1.14441 12.2688 1.05722 13.6664 0.967713C13.85 0.955949 14.0337 0.944135 14.2173 0.93232C15.4781 0.851417 16.7391 0.775414 18.001 0.713313C18.0501 0.710863 18.0993 0.708413 18.15 0.705889C19.0247 0.662675 19.8996 0.637264 20.7751 0.618878C21.1228 0.611427 21.4695 0.600105 21.8167 0.579766C22.8013 0.522949 23.7879 0.519881 24.7739 0.508967C24.9373 0.507149 25.1007 0.505259 25.2641 0.503356C26.7185 0.486557 28.1729 0.474511 29.6274 0.473365Z" fill="#262F32"/>
<path d="M28.4867 17.1256C28.5976 17.1299 28.7086 17.1341 28.8229 17.1385C30.2495 17.1895 31.6749 17.1949 33.1023 17.194C33.437 17.1939 33.7718 17.194 34.1065 17.1941C34.6687 17.1942 35.2308 17.1941 35.793 17.1938C36.4352 17.1935 37.0774 17.1936 37.7196 17.1939C38.2783 17.1942 38.837 17.1942 39.3958 17.194C39.7262 17.194 40.0567 17.1939 40.3871 17.1941C41.7986 17.1949 43.2088 17.186 44.6198 17.1466C45.2938 17.1281 45.9665 17.1231 46.6408 17.1256C46.6209 17.5237 46.601 17.9217 46.5805 18.3319C45.8043 18.3717 45.0281 18.4115 44.2283 18.4525C44.3757 18.7156 44.3757 18.7156 44.5261 18.984C44.7586 19.416 44.9141 19.7633 44.8918 20.2619C44.8951 20.3183 44.8984 20.3748 44.9019 20.4329C44.9398 21.2146 44.6931 21.9759 44.1729 22.5639C43.982 22.7489 43.8389 22.88 43.5649 22.8817C43.5052 22.873 43.4455 22.8643 43.3839 22.8553C43.3926 22.8988 43.4013 22.9424 43.4103 22.9872C43.4417 23.1443 43.4731 23.3014 43.5046 23.4584C43.4584 23.4605 43.4122 23.4626 43.3646 23.4647C43.1523 23.4751 42.9402 23.4875 42.728 23.4999C42.6191 23.5047 42.6191 23.5047 42.508 23.5097C42.0311 23.5395 41.6794 23.6283 41.273 23.8806C41.2251 23.9103 41.1772 23.9399 41.1279 23.9704C41.0469 24.0216 40.9664 24.0737 40.8866 24.1268C40.7905 24.1822 40.7905 24.1822 40.6699 24.1822C40.689 24.225 40.7082 24.2679 40.7279 24.312C40.8156 24.5086 40.9029 24.7054 40.9903 24.9022C41.0204 24.9695 41.0505 25.0369 41.0816 25.1063C41.2459 25.4775 41.3938 25.8451 41.5142 26.2328C41.5746 26.2132 41.6349 26.1936 41.6971 26.1734C42.1015 26.0736 42.5178 26.0943 42.9316 26.0971C42.9773 26.0972 43.023 26.0974 43.0701 26.0975C43.9532 26.1003 44.8351 26.1319 45.7173 26.1687C45.7804 26.1714 45.8435 26.174 45.9086 26.1767C46.0901 26.1843 46.2716 26.1923 46.453 26.2005C46.5067 26.2029 46.5603 26.2052 46.6156 26.2076C46.9478 26.2233 47.2756 26.2533 47.6058 26.2931C47.6058 26.3329 47.6058 26.3727 47.6058 26.4138C47.641 26.4295 47.6763 26.4452 47.7125 26.4613C48.8033 27.0535 49.4232 28.6117 49.7771 29.731C50.2462 31.378 49.947 33.1899 49.1441 34.6767C48.9461 35.0296 48.7248 35.3434 48.4502 35.6416C48.4014 35.6959 48.3526 35.7503 48.3022 35.8063C47.2937 36.8753 45.8845 37.4448 44.4231 37.5235C42.8502 37.5545 41.4758 37.0895 40.308 36.0035C39.4585 35.1049 38.966 34.1063 38.7172 32.9087C38.7071 32.8605 38.697 32.8123 38.6866 32.7626C38.6164 32.3936 38.6089 32.0359 38.6192 31.661C37.4805 31.6978 37.4805 31.6978 36.3818 31.9623C35.7134 32.1934 35.0007 32.1646 34.3031 32.1623C34.2123 32.1623 34.2123 32.1623 34.1197 32.1623C32.2827 32.1603 30.4459 32.0882 28.6101 32.0269C28.3586 32.0186 28.1071 32.0103 27.8555 32.0021C27.7951 32.0001 27.7346 31.9982 27.6723 31.9961C26.7372 31.966 25.8036 31.9495 24.8679 31.9625C24.8323 32.0359 24.8323 32.0359 24.7959 32.1108C24.7642 32.1754 24.7324 32.2399 24.6997 32.3065C24.6685 32.3703 24.6373 32.4342 24.6051 32.5C24.4611 32.7709 24.2855 32.9991 24.0839 33.2291C24.048 33.2713 24.0122 33.3135 23.9753 33.357C23.4803 33.8992 22.8401 34.146 22.1191 34.2073C21.0474 34.2559 20.3004 34.0905 19.489 33.3502C18.9174 32.7596 18.4665 31.8883 18.4748 31.0578C18.4257 31.061 18.3765 31.0642 18.3259 31.0674C16.9189 31.1568 15.5119 31.2176 14.1029 31.2671C13.6778 31.2821 13.2527 31.2973 12.8276 31.3127C12.6823 31.318 12.5369 31.323 12.3915 31.3281C11.8736 31.3465 11.3569 31.3723 10.8397 31.4074C10.5698 31.4236 10.3013 31.4266 10.031 31.4235C9.98359 31.4232 9.93616 31.4229 9.8873 31.4227C9.77437 31.422 9.66144 31.4209 9.54851 31.4197C9.54478 31.4906 9.54105 31.5615 9.5372 31.6346C9.41674 32.6841 8.84261 33.7286 8.04022 34.408C7.22521 35.0282 6.21141 35.2013 5.206 35.0988C4.22016 34.9104 3.39474 34.3276 2.81234 33.5231C2.34971 32.8367 2.06278 32.1072 1.8888 31.2991C1.87802 31.2518 1.86724 31.2044 1.85613 31.1557C1.75735 30.6822 1.75221 30.2208 1.75687 29.7385C1.75691 29.6606 1.75695 29.5827 1.75699 29.5024C1.75848 29.1832 1.7656 28.8995 1.82849 28.585C1.58965 28.585 1.35081 28.585 1.10474 28.585C1.20293 26.9943 1.6483 25.3371 2.86912 24.2411C3.5138 23.7096 4.14126 23.5907 4.96475 23.6394C5.74039 23.7677 6.33411 24.246 6.79298 24.8607C7.33982 25.6779 7.71483 26.5586 8.04488 27.4804C8.30855 28.2091 8.57456 28.9151 9.2764 29.3019C9.63884 29.4626 9.99298 29.5144 10.3841 29.5475C10.4622 29.5546 10.4622 29.5546 10.5419 29.5618C10.7143 29.5774 10.8867 29.5925 11.0592 29.6075C11.1813 29.6185 11.3035 29.6295 11.4256 29.6405C11.6852 29.6639 11.9448 29.6871 12.2043 29.7101C12.8156 29.7642 13.4267 29.8198 14.0378 29.8753C14.1731 29.8876 14.3083 29.8999 14.4435 29.9122C15.5076 30.0086 16.5713 30.1082 17.6342 30.2172C17.735 30.2276 17.735 30.2276 17.8379 30.2381C18.7002 30.3268 19.562 30.4206 20.4236 30.5153C20.4717 30.5205 20.5197 30.5258 20.5691 30.5312C21.0411 30.5831 21.5131 30.6351 21.985 30.688C22.4252 30.7373 22.8656 30.7854 23.3062 30.8321C23.5405 30.857 23.7748 30.8828 24.0089 30.9101C25.7856 31.117 27.5452 31.1539 29.3329 31.1453C29.6202 31.1443 29.9074 31.1449 30.1946 31.1455C30.4755 31.1459 30.7565 31.1455 31.0374 31.1447C31.1694 31.1444 31.3013 31.1444 31.4333 31.1447C32.7927 31.146 34.1835 31.0613 35.2266 30.074C35.9349 29.31 36.237 28.3605 36.5384 27.3863C36.5536 27.3378 36.5687 27.2893 36.5844 27.2394C37.1847 25.3181 37.7311 23.3809 38.2693 21.4415C38.9848 18.8673 38.9848 18.8673 39.2224 18.3922C39.178 18.3924 39.1337 18.3927 39.0881 18.393C36.7885 18.4062 34.4911 18.395 32.1922 18.3356C32.1405 18.3343 32.0888 18.333 32.0355 18.3316C30.8521 18.3014 29.6692 18.2658 28.4867 18.2112C28.4867 17.853 28.4867 17.4947 28.4867 17.1256Z" fill="#21292E"/>
<path d="M31.2601 3.36782C31.3867 3.36804 31.5133 3.36813 31.64 3.3682C34.8107 3.37014 37.9816 3.40671 41.1521 3.43589C41.1769 3.50213 41.2018 3.56838 41.2273 3.63664C41.2602 3.72442 41.2931 3.81221 41.3261 3.9C41.3424 3.94356 41.3587 3.98712 41.3755 4.032C41.6183 4.67968 41.8906 5.30688 42.1822 5.93395C42.3042 6.1964 42.4257 6.45909 42.5473 6.72175C42.5844 6.80189 42.5844 6.80189 42.6223 6.88364C42.8602 7.39726 43.0959 7.91184 43.3309 8.42676C43.3506 8.4698 43.3702 8.51283 43.3904 8.55717C43.4697 8.7309 43.549 8.90464 43.6283 9.07839C43.7667 9.38161 43.9055 9.68464 44.0445 9.98759C46.5009 15.3426 46.5009 15.3426 46.6481 16.2071C46.6582 16.264 46.6683 16.3209 46.6787 16.3796C46.6978 16.5557 46.7031 16.7216 46.7023 16.8984C46.702 16.9796 46.702 16.9796 46.7017 17.0624C46.7014 17.1036 46.7012 17.1448 46.7009 17.1872C46.6276 17.1868 46.5544 17.1865 46.4789 17.1861C45.8059 17.184 45.1342 17.1936 44.4615 17.2124C43.0393 17.2513 41.6176 17.2574 40.1949 17.2576C39.9964 17.2576 39.7979 17.2578 39.5994 17.2579C38.9018 17.2585 38.2042 17.2587 37.5066 17.2587C36.864 17.2586 36.2215 17.2593 35.5789 17.2602C35.0197 17.261 34.4604 17.2613 33.9011 17.2613C33.5704 17.2613 33.2396 17.2614 32.9089 17.2621C31.43 17.2648 29.9613 17.2429 28.4865 17.1269C28.4866 17.1656 28.4867 17.2043 28.4869 17.2441C28.4882 17.5946 28.4891 17.9451 28.4898 18.2956C28.4901 18.4282 28.4905 18.5607 28.491 18.6932C28.4917 18.8837 28.4921 19.0743 28.4923 19.2649C28.4927 19.324 28.493 19.3832 28.4933 19.4441C28.4933 19.4996 28.4933 19.5551 28.4933 19.6123C28.4934 19.661 28.4936 19.7096 28.4937 19.7597C28.4859 19.9122 28.4595 20.054 28.4261 20.2028C27.5596 20.212 26.6985 20.1825 25.8327 20.1425C25.8327 19.6648 25.8327 19.1871 25.8327 18.695C26.0516 18.6751 26.2706 18.6552 26.4961 18.6347C26.8328 18.4788 27.014 18.2445 27.1596 17.9109C27.3778 17.2058 27.4694 16.5215 27.4755 15.784C27.476 15.7264 27.4765 15.6687 27.477 15.6094C27.4778 15.4881 27.4785 15.3669 27.4789 15.2457C27.4796 15.1231 27.4809 15.0005 27.4827 14.878C27.5219 13.718 27.5219 13.718 27.0653 12.6788C26.8266 12.4584 26.5835 12.4665 26.2737 12.4489C26.2314 12.4463 26.1891 12.4437 26.1455 12.441C26.0412 12.4346 25.937 12.4285 25.8327 12.4225C25.8313 11.4259 25.8302 10.4292 25.8296 9.43262C25.8293 8.96989 25.8288 8.50717 25.8281 8.04445C25.8275 7.64124 25.8272 7.23804 25.827 6.83483C25.8269 6.62124 25.8268 6.40765 25.8263 6.19407C25.8258 5.95591 25.8258 5.71775 25.8259 5.4796C25.8256 5.40841 25.8254 5.33722 25.8252 5.26387C25.8253 5.19925 25.8254 5.13464 25.8254 5.06806C25.8254 5.01169 25.8253 4.95531 25.8253 4.89723C25.8327 4.76277 25.8327 4.76277 25.893 4.64214C26.0176 4.61717 26.0176 4.61717 26.1682 4.60444C26.218 4.59993 26.2679 4.59543 26.3192 4.59078C26.3769 4.58635 26.3769 4.58635 26.4358 4.58183C26.4162 4.50218 26.4162 4.50218 26.3962 4.42091C26.3795 4.35086 26.3627 4.28081 26.3454 4.20864C26.3286 4.13937 26.3118 4.0701 26.2945 3.99873C26.2598 3.82274 26.2517 3.67417 26.2549 3.4962C26.3532 3.49393 26.3532 3.49393 26.4536 3.49162C26.7025 3.48584 26.9513 3.47982 27.2002 3.47374C27.3069 3.47117 27.4136 3.46865 27.5202 3.4662C28.2576 3.44956 28.2576 3.44956 28.9941 3.41235C29.7491 3.36346 30.5037 3.36634 31.2601 3.36782Z" fill="#FCC70C"/>
<path d="M31.502 5.17455C31.5435 5.17435 31.5851 5.17415 31.6279 5.17394C31.7658 5.17338 31.9037 5.17326 32.0416 5.17318C32.1395 5.17294 32.2374 5.17269 32.3354 5.17243C32.5977 5.17187 32.8601 5.1718 33.1225 5.17193C33.2851 5.172 33.4478 5.17197 33.6104 5.17193C34.9618 5.172 36.3113 5.18382 37.6618 5.23985C37.725 5.24247 37.7883 5.2451 37.8534 5.2478C38.2295 5.26387 38.6053 5.28265 38.9811 5.30394C39.0438 5.30728 39.0438 5.30728 39.1077 5.3107C39.2174 5.31671 39.3271 5.3236 39.4368 5.33056C39.4941 5.33418 39.5515 5.3378 39.6106 5.34153C39.8664 5.37912 40.0176 5.43237 40.1965 5.6237C40.3029 5.77901 40.385 5.92721 40.4628 6.09837C40.4914 6.16079 40.5201 6.22321 40.5496 6.28752C40.5806 6.35603 40.6116 6.42453 40.6435 6.49511C40.6773 6.56912 40.7113 6.64311 40.7452 6.71707C40.8201 6.88039 40.8949 7.0438 40.9695 7.20726C41.1693 7.64458 41.3715 8.08082 41.5735 8.51709C41.6221 8.62194 41.6707 8.72681 41.7192 8.83168C42.0585 9.56498 42.4018 10.2963 42.7486 11.0261C42.9222 11.3913 43.0952 11.7568 43.268 12.1224C43.32 12.2323 43.3721 12.3422 43.4242 12.4521C43.5058 12.6248 43.5865 12.7978 43.6666 12.9712C43.6889 13.0179 43.7111 13.0647 43.7341 13.1129C43.8349 13.3338 43.881 13.4558 43.8061 13.6874C42.3764 13.6916 40.9467 13.6948 39.517 13.6968C38.8532 13.6977 38.1893 13.699 37.5255 13.701C36.9468 13.7029 36.3681 13.704 35.7893 13.7044C35.483 13.7047 35.1767 13.7052 34.8703 13.7065C34.5818 13.7078 34.2932 13.7081 34.0047 13.7079C33.899 13.7079 33.7933 13.7083 33.6876 13.709C32.9932 13.7133 32.3859 13.717 31.8545 13.2077C31.5353 12.8525 31.3624 12.4576 31.213 12.0074C31.1975 11.9606 31.182 11.9138 31.166 11.8657C30.9819 11.2966 30.8388 10.7171 30.6966 10.1364C30.6504 9.94814 30.6037 9.76006 30.5569 9.572C30.4187 9.01495 30.2835 8.45724 30.1571 7.89738C30.1474 7.85521 30.1378 7.81304 30.1279 7.7696C29.9949 7.16994 29.798 6.247 30.1151 5.68089C30.4573 5.2405 30.9783 5.17616 31.502 5.17455Z" fill="#FEFAF1"/>
<path d="M31.2516 4.09035C31.2964 4.09025 31.3412 4.09014 31.3873 4.09004C31.5347 4.08978 31.6821 4.08995 31.8295 4.09014C31.934 4.09008 32.0386 4.09 32.1431 4.0899C32.4213 4.08973 32.6994 4.08999 32.9775 4.09039C33.1496 4.09062 33.3217 4.09074 33.4938 4.09084C35.0429 4.09188 36.5914 4.09661 38.1397 4.15022C38.3661 4.15806 38.5925 4.16492 38.8189 4.17166C41.0756 4.24488 41.0756 4.24488 41.5099 4.62116C41.6546 4.78396 41.7331 4.93957 41.8244 5.13737C41.8417 5.17441 41.8589 5.21145 41.8767 5.24962C41.9335 5.37194 41.9896 5.4946 42.0456 5.61728C42.0858 5.70422 42.126 5.79114 42.1663 5.87804C42.2915 6.14886 42.4156 6.42017 42.5395 6.6916C42.5585 6.73338 42.5776 6.77516 42.5973 6.8182C42.7643 7.18398 42.9309 7.54998 43.0968 7.91629C43.3552 8.48691 43.6159 9.05642 43.878 9.62535C44.2549 10.4438 44.6298 11.2631 45.0019 12.0837C45.0505 12.1909 45.0992 12.2981 45.1479 12.4052C45.4016 12.9632 45.6509 13.5228 45.8903 14.087C45.9113 14.136 45.9322 14.185 45.9538 14.2355C46.0979 14.5781 46.0979 14.5781 46.0979 14.7132C44.6876 14.7807 43.2781 14.7843 41.8665 14.7856C41.6728 14.7858 41.4791 14.786 41.2855 14.7863C40.6768 14.7871 40.0682 14.7877 39.4596 14.7879C38.7615 14.7882 38.0635 14.7892 37.3655 14.791C36.8219 14.7923 36.2784 14.7929 35.7349 14.793C35.4118 14.793 35.0887 14.7934 34.7656 14.7945C34.4625 14.7955 34.1595 14.7956 33.8564 14.7951C33.7459 14.795 33.6353 14.7953 33.5248 14.7959C32.5917 14.8006 31.7111 14.7677 30.9662 14.1339C29.49 12.6311 29.2095 9.34439 28.8485 7.35504C28.8338 7.27877 28.8191 7.2025 28.8039 7.12392C28.6771 6.41037 28.6034 5.65455 28.9691 5.00285C28.9998 4.9436 28.9998 4.9436 29.0311 4.88316C29.2681 4.48833 29.6737 4.34809 30.0924 4.2037C30.4789 4.11782 30.8566 4.08917 31.2516 4.09035ZM30.1754 5.60597C29.8527 6.14524 29.9643 6.82828 30.0667 7.42572C30.0746 7.47192 30.0824 7.51811 30.0905 7.56571C30.1963 8.16498 30.3419 8.75495 30.4882 9.34536C30.5028 9.40458 30.5174 9.4638 30.5324 9.52482C30.7081 10.237 30.8888 10.9468 31.1027 11.6486C31.1206 11.7078 31.1385 11.767 31.1569 11.828C31.366 12.4872 31.6521 13.1985 32.2976 13.5333C32.6047 13.6728 32.8815 13.6965 33.2168 13.6951C33.2621 13.6952 33.3074 13.6952 33.354 13.6953C33.5058 13.6954 33.6576 13.695 33.8094 13.6947C33.9181 13.6947 34.0269 13.6947 34.1357 13.6947C34.4311 13.6948 34.7266 13.6944 35.022 13.694C35.3307 13.6936 35.6394 13.6936 35.9481 13.6935C36.5327 13.6933 37.1173 13.6928 37.702 13.6922C38.3675 13.6915 39.0331 13.6912 39.6986 13.6909C41.0677 13.6903 42.4369 13.6892 43.806 13.6879C43.8758 13.4533 43.8454 13.357 43.7389 13.1342C43.7089 13.0706 43.679 13.0071 43.6481 12.9416C43.6144 12.8719 43.5807 12.8022 43.5459 12.7304C43.5105 12.6559 43.4752 12.5814 43.44 12.5069C43.3629 12.3442 43.2855 12.1818 43.2076 12.0195C43.0092 11.6057 42.8127 11.191 42.6161 10.7764C42.5698 10.6789 42.5235 10.5814 42.4772 10.4839C42.155 9.80556 41.8387 9.1249 41.5292 8.44067C41.4926 8.35975 41.4559 8.27883 41.4193 8.19792C41.3923 8.13828 41.3923 8.13828 41.3647 8.07744C41.0259 7.32908 41.0259 7.32908 40.6837 6.58224C40.6472 6.50282 40.6109 6.4233 40.5748 6.3437C40.525 6.23413 40.4745 6.12489 40.424 6.01567C40.3957 5.9538 40.3673 5.89193 40.3381 5.82818C40.2245 5.62507 40.1142 5.46555 39.8909 5.38167C37.7822 5.09767 35.5895 5.17021 33.4652 5.16541C33.3045 5.16494 33.1439 5.16413 32.9832 5.16323C32.7272 5.16186 32.4713 5.16149 32.2154 5.16186C32.1205 5.16187 32.0256 5.16159 31.9307 5.16098C30.9736 5.14244 30.9736 5.14244 30.1754 5.60597Z" fill="#212B31"/>
<path d="M11.3515 5.76781C11.4506 5.76799 11.5496 5.7681 11.6487 5.76815C11.8556 5.76843 12.0625 5.76929 12.2695 5.77063C12.533 5.77234 12.7965 5.773 13.0601 5.77327C13.3136 5.77358 13.5671 5.77446 13.8206 5.77535C13.8681 5.77546 13.9156 5.77557 13.9645 5.77569C15.5468 5.78057 15.5468 5.78057 15.8208 6.02885C16.0406 6.36162 16.0263 6.66742 16.0223 7.0519C16.0223 7.1508 16.0223 7.1508 16.0224 7.25171C16.0222 7.46906 16.0208 7.68638 16.0194 7.90372C16.0191 8.05466 16.0188 8.20559 16.0186 8.35652C16.018 8.7128 16.0166 9.06908 16.0148 9.42535C16.0125 9.87097 16.0116 10.3166 16.0106 10.7622C16.0086 11.5567 16.0056 12.3512 16.0017 13.1457C15.0927 13.1514 14.1836 13.1556 13.2745 13.1582C12.8524 13.1595 12.4303 13.1612 12.0082 13.1639C11.6011 13.1666 11.1941 13.168 10.787 13.1686C10.6314 13.1691 10.4758 13.17 10.3203 13.1713C10.1029 13.173 9.88561 13.1732 9.66824 13.1731C9.60347 13.174 9.5387 13.1749 9.47197 13.1758C9.38329 13.1753 9.38329 13.1753 9.29283 13.1748C9.2414 13.175 9.18998 13.1752 9.13699 13.1754C9.00546 13.1457 9.00546 13.1457 8.89847 13.0366C8.78919 12.8414 8.79932 12.6508 8.80111 12.4329C8.8008 12.3856 8.80048 12.3383 8.80015 12.2895C8.79936 12.1329 8.79988 11.9764 8.8005 11.8198C8.80037 11.7102 8.8002 11.6007 8.79997 11.4911C8.7997 11.2609 8.80009 11.0307 8.80094 10.8005C8.80196 10.5081 8.80138 10.2158 8.80029 9.92338C8.79963 9.69663 8.79985 9.46987 8.80031 9.24311C8.80043 9.1355 8.80029 9.02789 8.79987 8.92028C8.79382 6.96233 8.79382 6.96233 9.4147 6.27081C9.9737 5.73403 10.6256 5.76185 11.3515 5.76781Z" fill="#222A2C"/>
<path d="M20.9476 22.375C20.9675 22.375 20.9874 22.375 21.0079 22.375C21.0278 22.8527 21.0477 23.3304 21.0682 23.8225C21.308 23.822 21.308 23.822 21.5527 23.8215C22.0876 23.8205 22.6225 23.8199 23.1574 23.8194C23.4809 23.8191 23.8044 23.8186 24.128 23.818C26.9156 23.8121 26.9156 23.8121 28.1851 23.8828C28.2495 24.7129 28.2365 25.5028 28.1344 26.329C28.1133 26.5 28.0942 26.671 28.0752 26.8421C27.8504 28.7929 27.8504 28.7929 27.1673 29.424C26.9516 29.5707 26.7449 29.6587 26.4963 29.7331C26.4452 29.7488 26.4452 29.7488 26.393 29.7649C26.2139 29.802 26.0444 29.8024 25.8614 29.8036C25.8028 29.804 25.8028 29.804 25.743 29.8044C25.6134 29.805 25.4838 29.805 25.3542 29.8048C25.309 29.8047 25.2639 29.8047 25.2173 29.8046C23.6872 29.8005 22.1721 29.7119 20.6535 29.5221C20.6014 29.5156 20.5493 29.5091 20.4956 29.5024C20.3473 29.4837 20.1991 29.4644 20.0509 29.4448C19.9856 29.4364 19.9856 29.4364 19.9191 29.4278C19.6487 29.3908 19.3981 29.3309 19.1382 29.2506C19.1613 29.0044 19.2367 28.7767 19.3669 28.5674C19.6757 28.3335 20.1542 28.3997 20.5254 28.4063C20.6532 27.8542 20.7507 27.3121 20.8043 26.7477C20.8118 26.6692 20.8194 26.5908 20.8271 26.51C20.948 25.1373 20.9342 23.7519 20.9476 22.375Z" fill="#232C32"/>
<path d="M20.6084 4.63674C20.6484 4.63673 20.6885 4.63673 20.7298 4.63672C20.8597 4.63676 20.9896 4.63722 21.1195 4.6377C21.2384 4.63779 21.2384 4.63779 21.3598 4.63788C21.6571 4.6382 21.9544 4.63904 22.2517 4.63982C22.916 4.64106 23.5803 4.64231 24.2647 4.64359C24.2647 7.1912 24.2647 9.7388 24.2647 12.3636C22.7122 12.3636 21.1598 12.3636 19.5603 12.3636C19.5506 10.6147 19.5506 10.6147 19.5482 9.75083C19.5468 9.28362 19.5451 8.81642 19.5421 8.34923C19.5394 7.93978 19.538 7.53035 19.5374 7.1209C19.537 6.96465 19.5361 6.80839 19.5348 6.65214C19.533 6.43337 19.5328 6.21465 19.5329 5.99588C19.532 5.9312 19.5312 5.86652 19.5303 5.79987C19.5323 5.43432 19.5573 5.22317 19.8015 4.94515C20.0876 4.69311 20.2294 4.63603 20.6084 4.63674Z" fill="#FDFAF0"/>
<path d="M46.5803 18.3338C46.4601 20.0889 45.9918 21.7221 45.3138 23.3397C45.3503 23.3435 45.3868 23.3474 45.4244 23.3513C45.4727 23.3565 45.521 23.3617 45.5708 23.367C45.6185 23.3721 45.6662 23.3772 45.7154 23.3824C46.7209 23.5078 47.698 24.0727 48.45 24.7269C48.5009 24.7691 48.5519 24.8113 48.6043 24.8548C49.0685 25.2512 49.5068 25.6735 49.596 26.295C48.2595 26.3087 46.9279 26.2975 45.5927 26.2347C44.7053 26.1933 43.8199 26.1623 42.9314 26.1631C42.8639 26.163 42.8639 26.163 42.7951 26.163C42.3645 26.163 41.9402 26.1661 41.5141 26.2347C40.6697 24.3743 40.6697 24.3743 40.6697 24.1841C40.8028 24.1073 40.936 24.0307 41.0692 23.9542C41.1065 23.9327 41.1437 23.9112 41.1821 23.889C41.8585 23.501 41.8585 23.501 42.2378 23.4792C42.3052 23.4753 42.3726 23.4714 42.4421 23.4674C42.7963 23.4559 43.1501 23.4556 43.5044 23.4603C43.4733 23.4056 43.4422 23.3509 43.4101 23.2945C43.3234 23.0985 43.3234 23.0985 43.3423 22.9552C43.356 22.9229 43.3697 22.8905 43.3837 22.8572C43.4341 22.8536 43.4341 22.8536 43.4855 22.8499C43.8686 22.7975 44.0601 22.6547 44.3012 22.3566C44.4856 22.0783 44.6036 21.785 44.7106 21.47C44.7255 21.4278 44.7403 21.3856 44.7556 21.3421C44.8624 20.9879 44.843 20.6299 44.8313 20.2638C44.8337 20.2131 44.8361 20.1624 44.8386 20.1102C44.8395 19.5314 44.5015 19.0439 44.2222 18.5559C44.1678 18.4544 44.1678 18.4544 44.1678 18.3941C44.9727 18.3515 45.7743 18.3248 46.5803 18.3338Z" fill="#FDC70D"/>
<path d="M45.5042 28.5172C46.2986 29.0541 46.7935 29.8918 47.0026 30.8195C47.0274 31.0351 47.0314 31.2472 47.029 31.4641C47.0285 31.5218 47.0281 31.5796 47.0276 31.6391C47.005 32.6228 46.6838 33.4626 46.0018 34.1798C45.3029 34.8435 44.4589 35.1376 43.5038 35.1182C42.8669 35.0745 42.3616 34.8442 41.876 34.4382C41.8295 34.4006 41.783 34.363 41.7351 34.3242C41.1209 33.775 40.7138 32.8816 40.6604 32.063C40.622 31.2041 40.7136 30.5117 41.092 29.7339C41.3408 29.958 41.4605 30.2565 41.6084 30.5518C41.6382 30.6093 41.668 30.6667 41.6987 30.7258C41.8628 31.0519 41.9683 31.344 42.0281 31.7035C42.0751 31.9336 42.1695 32.1341 42.2756 32.3424C42.2968 32.3842 42.318 32.426 42.3398 32.4691C42.512 32.7914 42.692 33.0033 43.022 33.1717C43.0829 33.209 43.1439 33.2463 43.2067 33.2848C43.6187 33.4403 44.1271 33.4247 44.5402 33.2904C45.0208 33.0514 45.2786 32.7044 45.5513 32.2557C45.6644 31.8501 45.7029 31.3489 45.5476 30.9476C45.2986 30.5328 45.0944 30.2453 44.6504 30.0354C44.5849 30.0028 44.5849 30.0028 44.518 29.9694C44.2937 29.897 44.0803 29.9018 43.8475 29.9073C43.8028 29.9078 43.7582 29.9083 43.7121 29.9089C43.6027 29.9103 43.4933 29.9125 43.3838 29.9148C43.3368 29.8197 43.3368 29.8197 43.2889 29.7228C43.2464 29.6372 43.204 29.5517 43.1614 29.4662C43.1396 29.4222 43.1177 29.3781 43.0951 29.3327C42.9552 29.0527 42.8093 28.7783 42.6488 28.5095C42.5998 28.407 42.5998 28.407 42.5998 28.226C43.5669 27.8084 44.6228 28.0067 45.5042 28.5172Z" fill="#45545B"/>
<path d="M25.8933 4.64062C26.0923 4.64062 26.2913 4.64062 26.4964 4.64062C26.5149 4.73385 26.5334 4.82707 26.5525 4.92312C26.6226 5.276 26.6929 5.62885 26.7633 5.98168C26.7934 6.13309 26.8235 6.2845 26.8536 6.43591C27.0138 7.24214 27.1769 8.04734 27.3534 8.85016C27.4834 9.44236 27.6047 10.0362 27.7253 10.6304C27.7722 10.8616 27.8191 11.0927 27.8661 11.3238C27.8777 11.3808 27.8893 11.4378 27.9013 11.4966C27.9761 11.8636 28.0529 12.2302 28.131 12.5965C28.16 12.7336 28.189 12.8708 28.218 13.008C28.2359 13.0924 28.2541 13.1767 28.2724 13.261C28.2979 13.3778 28.3226 13.4947 28.3472 13.6117C28.3681 13.7086 28.3681 13.7086 28.3894 13.8074C28.5175 14.5485 28.4957 15.3115 28.4947 16.0607C28.4948 16.171 28.4948 16.2813 28.4949 16.3916C28.495 16.621 28.4948 16.8503 28.4946 17.0797C28.4942 17.3733 28.4944 17.667 28.4948 17.9606C28.495 18.1876 28.4949 18.4146 28.4948 18.6416C28.4947 18.7499 28.4948 18.8582 28.4949 18.9666C28.4951 19.1175 28.4948 19.2684 28.4945 19.4194C28.4946 19.4638 28.4948 19.5082 28.4949 19.5539C28.494 19.7773 28.4798 19.9841 28.4264 20.2013C27.5598 20.2105 26.6987 20.181 25.8329 20.141C25.8329 19.6633 25.8329 19.1856 25.8329 18.6935C26.0519 18.6736 26.2708 18.6537 26.4964 18.6332C26.833 18.4773 27.0143 18.243 27.1598 17.9094C27.378 17.2042 27.4697 16.52 27.4758 15.7825C27.4762 15.7248 27.4767 15.6672 27.4772 15.6079C27.4781 15.4866 27.4787 15.3654 27.4792 15.2441C27.4799 15.1216 27.4811 14.999 27.4829 14.8764C27.5222 13.7165 27.5222 13.7165 27.0656 12.6773C26.8269 12.4569 26.5837 12.465 26.274 12.4473C26.2316 12.4447 26.1893 12.4421 26.1457 12.4395C26.0415 12.4331 25.9372 12.427 25.8329 12.421C25.8315 11.4243 25.8305 10.4277 25.8298 9.4311C25.8295 8.96838 25.8291 8.50566 25.8284 8.04293C25.8278 7.63973 25.8274 7.23652 25.8273 6.83331C25.8272 6.61973 25.827 6.40614 25.8266 6.19255C25.8261 5.95439 25.8261 5.71624 25.8261 5.47808C25.8259 5.40689 25.8257 5.3357 25.8254 5.26235C25.8255 5.19774 25.8256 5.13312 25.8257 5.06655C25.8256 5.01017 25.8256 4.9538 25.8255 4.89572C25.8329 4.76125 25.8329 4.76125 25.8933 4.64062Z" fill="#FCF8EE"/>
<path d="M5.21481 26.6458C5.94101 27.062 6.33831 27.8337 6.55441 28.615C6.56716 28.6656 6.57991 28.7163 6.59305 28.7686C6.61412 28.8401 6.63519 28.9116 6.6569 28.9853C6.7345 29.2985 6.73434 29.6084 6.73252 29.9296C6.73208 30.022 6.73208 30.022 6.73162 30.1164C6.72482 30.5542 6.68621 30.9489 6.53274 31.362C6.51081 31.4237 6.48889 31.4853 6.4663 31.5488C6.25567 32.0972 5.98313 32.521 5.50742 32.8698C5.16834 32.9829 4.78339 33.0053 4.44936 32.8663C3.69981 32.3902 3.31038 31.6196 3.11753 30.7747C2.89086 29.5862 3.05225 28.2976 3.69804 27.2607C4.10758 26.7709 4.54898 26.3965 5.21481 26.6458Z" fill="#45545A"/>
<path d="M20.9475 22.375C20.9674 22.375 20.9873 22.375 21.0078 22.375C21.0277 22.8527 21.0476 23.3304 21.0681 23.8225C21.308 23.822 21.308 23.822 21.5526 23.8215C22.0875 23.8205 22.6224 23.8199 23.1573 23.8194C23.4808 23.8191 23.8044 23.8186 24.1279 23.818C25.4821 23.8151 26.8322 23.8159 28.185 23.8828C28.2149 24.5098 28.2149 24.5098 28.2453 25.1494C27.3116 25.1272 26.3779 25.1047 25.4442 25.0817C25.0107 25.0711 24.5772 25.0606 24.1437 25.0503C23.7659 25.0413 23.3881 25.0322 23.0104 25.0228C22.8103 25.0178 22.6102 25.013 22.4101 25.0083C22.1869 25.0031 21.9638 24.9976 21.7407 24.9919C21.674 24.9904 21.6073 24.989 21.5386 24.9874C21.4781 24.9858 21.4175 24.9842 21.3551 24.9826C21.3023 24.9813 21.2495 24.98 21.1951 24.9787C21.0681 24.9684 21.0681 24.9684 20.9475 24.9081C20.9475 24.0722 20.9475 23.2363 20.9475 22.375Z" fill="#455256"/>
<path d="M43.3928 18.7897C43.7729 18.9694 44.023 19.3963 44.1785 19.7714C44.2362 19.9927 44.2514 20.2024 44.2508 20.4297C44.2507 20.4933 44.2507 20.4933 44.2505 20.5581C44.2379 21.1 44.0388 21.6068 43.6451 21.9903C43.2944 22.3013 43.0548 22.4044 42.5805 22.3931C42.203 22.3502 41.9601 22.0659 41.7281 21.7867C41.4079 21.321 41.399 20.7496 41.4538 20.2035C41.5541 19.7599 41.7472 19.3899 42.057 19.0575C42.0865 19.0257 42.1161 18.9938 42.1465 18.961C42.4891 18.6574 42.9684 18.6793 43.3928 18.7897Z" fill="#FDC80C"/>
<path d="M39.4032 25.5703C39.443 25.5703 39.4828 25.5703 39.5238 25.5703C39.5428 25.6323 39.5617 25.6942 39.5813 25.7581C39.6073 25.8425 39.6334 25.9269 39.6595 26.0113C39.673 26.0552 39.6865 26.099 39.7004 26.1442C39.7971 26.4546 39.9063 26.7574 40.0303 27.0581C40.0934 27.3027 40.0341 27.4522 39.9097 27.6674C39.8694 27.7279 39.8292 27.7885 39.7877 27.8509C39.5465 28.2254 39.3666 28.6145 39.1947 29.0246C39.1788 29.0619 39.163 29.0991 39.1467 29.1374C39.1018 29.249 39.0637 29.3633 39.0258 29.4774C38.893 29.7226 38.7479 29.7792 38.4947 29.8601C38.4133 29.889 38.3319 29.9183 38.2506 29.9477C38.2108 29.9618 38.171 29.9759 38.1299 29.9905C37.9194 30.0699 37.723 30.1762 37.5248 30.2818C37.4129 30.335 37.4129 30.335 37.2922 30.335C37.5564 29.1352 38.1577 28.0287 38.7096 26.9424C38.7772 26.8085 38.8447 26.6745 38.9122 26.5405C39.0753 26.2168 39.239 25.8935 39.4032 25.5703Z" fill="#FBC80B"/>
<path d="M4.79113 28.3047C5.15707 28.3922 5.43206 28.6328 5.62797 28.9493C5.85383 29.4164 5.96857 29.8692 5.82304 30.377C5.7057 30.6918 5.57617 31.0069 5.2767 31.1865C5.03498 31.2872 4.79822 31.2856 4.54234 31.2412C4.13561 31.0287 4.0169 30.6901 3.8789 30.2762C3.80623 29.1384 3.80623 29.1384 4.12015 28.7683C4.32138 28.5466 4.49355 28.3702 4.79113 28.3047Z" fill="#21292B"/>
<path d="M25.8328 4.76172C25.8527 4.76172 25.8726 4.76172 25.8931 4.76172C25.8937 4.83571 25.8943 4.9097 25.895 4.98593C25.9009 5.68935 25.9071 6.39276 25.9135 7.09617C25.9168 7.45764 25.9201 7.81911 25.9231 8.18059C25.926 8.5306 25.9291 8.8806 25.9325 9.2306C25.9337 9.36295 25.9348 9.49529 25.9358 9.62764C25.9429 10.5199 25.9693 11.4096 26.0137 12.3008C26.2127 12.3207 26.4118 12.3406 26.6168 12.3611C26.6168 12.381 26.6168 12.4009 26.6168 12.4214C26.3581 12.4214 26.0993 12.4214 25.8328 12.4214C25.8328 9.89373 25.8328 7.36602 25.8328 4.76172Z" fill="#E9E8E2"/>
<path d="M33.7941 30.9975C33.4448 31.2304 33.0424 31.2586 32.6327 31.2761C32.586 31.2784 32.5393 31.2806 32.4912 31.283C31.9422 31.3073 31.3933 31.3066 30.8439 31.305C30.7333 31.3049 30.6226 31.3048 30.5119 31.3047C30.2246 31.3045 29.9372 31.3039 29.6499 31.3032C29.3551 31.3026 29.0603 31.3023 28.7655 31.302C28.19 31.3014 27.6145 31.3004 27.0391 31.2991C27.0391 31.2792 27.0391 31.2593 27.0391 31.2388C27.1417 31.2369 27.1417 31.2369 27.2463 31.235C27.894 31.2232 28.5417 31.2108 29.1893 31.1978C29.5222 31.1912 29.8551 31.1848 30.188 31.1788C30.5098 31.173 30.8317 31.1667 31.1535 31.16C31.2757 31.1576 31.3979 31.1553 31.5201 31.1532C32.1291 31.1428 32.723 31.1261 33.3244 31.0226C33.4839 30.9988 33.6331 30.993 33.7941 30.9975Z" fill="#0A0A48"/>
<path d="M36.0859 3.4375C37.7578 3.4375 39.4297 3.4375 41.1522 3.4375C41.1522 3.49721 41.1522 3.55692 41.1522 3.61844C40.9002 3.68097 40.6711 3.68104 40.4122 3.67145C40.3711 3.67002 40.33 3.6686 40.2877 3.66713C40.1575 3.66254 40.0272 3.65746 39.8969 3.65236C39.8082 3.64915 39.7195 3.64597 39.6308 3.64282C39.4142 3.63506 39.1976 3.62687 38.9809 3.61844C38.9809 3.59853 38.9809 3.57863 38.9809 3.55813C38.0256 3.53822 37.0702 3.51832 36.0859 3.49781C36.0859 3.47791 36.0859 3.45801 36.0859 3.4375Z" fill="#DFBA0C"/>
<path d="M30.2356 12.7227C30.3956 12.9224 30.5147 13.1343 30.6352 13.3597C30.672 13.4282 30.7089 13.4967 30.7468 13.5673C30.8387 13.748 30.8387 13.748 30.899 13.9289C30.9783 13.9714 31.059 14.0111 31.1403 14.0495C31.1813 14.0869 31.2224 14.1242 31.2647 14.1626C31.7942 14.5456 32.4305 14.5972 33.0628 14.6263C33.1423 14.6302 33.1423 14.6302 33.2234 14.6342C33.3533 14.6405 33.4832 14.6466 33.6131 14.6527C33.6131 14.6726 33.6131 14.6925 33.6131 14.713C32.7041 14.7985 31.837 14.8255 31.08 14.2305C30.6752 13.8775 30.4399 13.3924 30.2356 12.9036C30.2356 12.8439 30.2356 12.7842 30.2356 12.7227Z" fill="#141444"/>
<path d="M16.2432 30.1549C16.7592 30.1412 17.2612 30.1835 17.7736 30.2416C17.8486 30.2498 17.9236 30.2579 18.0009 30.2663C18.3026 30.2995 18.6 30.3325 18.8969 30.3962C18.8969 30.4161 18.8969 30.436 18.8969 30.4565C18.3584 30.4688 17.8337 30.4325 17.2986 30.3736C17.1857 30.3621 17.1857 30.3621 17.0706 30.3505C16.9984 30.3427 16.9263 30.3349 16.8519 30.3269C16.7871 30.32 16.7222 30.313 16.6553 30.3059C16.4948 30.2774 16.3829 30.2367 16.2432 30.1549Z" fill="#0E0E48"/>
<path d="M41.092 33.5938C41.1318 33.5938 41.1717 33.5938 41.2127 33.5938C41.2888 33.6845 41.2888 33.6845 41.3748 33.8086C41.8354 34.4399 42.354 34.7741 43.0824 35.0413C43.0824 35.0612 43.0824 35.0811 43.0824 35.1016C42.4344 35.0602 41.8578 34.6319 41.4332 34.1606C41.092 33.7438 41.092 33.7438 41.092 33.5938Z" fill="#1D2324"/>
<path d="M40.7904 4.22017C40.7705 4.25997 40.7506 4.29978 40.7301 4.34079C39.9539 4.30099 39.1777 4.26118 38.3779 4.22017C38.3779 4.20026 38.3779 4.18036 38.3779 4.15985C39.1935 4.0524 39.9817 4.09168 40.7904 4.22017Z" fill="#E1C809"/>
<path d="M25.8328 18.6953C26.0517 18.6953 26.2706 18.6953 26.4962 18.6953C26.4962 18.7351 26.4962 18.7749 26.4962 18.8159C26.337 18.8358 26.1778 18.8557 26.0137 18.8763C26.0125 18.9103 26.0113 18.9444 26.0101 18.9795C26.0043 19.1336 25.9977 19.2876 25.9911 19.4417C25.9892 19.4953 25.9874 19.549 25.9854 19.6042C25.9831 19.6556 25.9808 19.7069 25.9784 19.7597C25.9765 19.8071 25.9746 19.8545 25.9726 19.9033C25.9534 20.0222 25.9534 20.0222 25.8328 20.1428C25.8328 19.6651 25.8328 19.1875 25.8328 18.6953Z" fill="#DDDDD9"/>
<path d="M25.8328 10.793C25.9872 10.9475 25.9713 11.0141 25.9784 11.2288C25.9807 11.291 25.983 11.3532 25.9854 11.4173C25.9873 11.4825 25.9892 11.5476 25.9911 11.6147C25.9934 11.6803 25.9957 11.746 25.9982 11.8136C26.0039 11.976 26.0088 12.1384 26.0137 12.3008C26.2127 12.3207 26.4118 12.3406 26.6168 12.3611C26.6168 12.381 26.6168 12.4009 26.6168 12.4214C26.3581 12.4214 26.0993 12.4214 25.8328 12.4214C25.8328 11.884 25.8328 11.3466 25.8328 10.793Z" fill="#E1E2DD"/>
<path d="M36.0256 28.9492C36.1001 29.1728 36.0599 29.2224 35.9652 29.4317C35.9528 29.4802 35.9404 29.5287 35.9276 29.5787C35.8187 29.7815 35.6754 29.8741 35.4893 30.0052C35.3178 30.1265 35.1602 30.2607 35.0002 30.3967C35.0916 30.184 35.2178 30.043 35.3772 29.8765C35.6412 29.5899 35.8402 29.2909 36.0256 28.9492Z" fill="#1B2038"/>
<path d="M3.21553 30.8164C3.32788 30.9849 3.37935 31.1126 3.4417 31.3027C3.65142 31.8863 3.92792 32.3076 4.42179 32.6861C4.38198 32.706 4.34217 32.7259 4.30116 32.7464C3.74603 32.3082 3.39364 31.8095 3.21553 31.118C3.20941 30.9474 3.20941 30.9474 3.21553 30.8164Z" fill="#4C5B63"/>
<path d="M25.8328 20.1445C26.3104 20.1445 26.7881 20.1445 27.2803 20.1445C27.3002 20.2042 27.3201 20.264 27.3406 20.3255C26.8629 20.3255 26.3852 20.3255 25.8931 20.3255C25.8732 20.2658 25.8533 20.2061 25.8328 20.1445Z" fill="#2C3131"/>
<path d="M28.3659 19.8398C28.3858 19.8398 28.4057 19.8398 28.4263 19.8398C28.4263 19.9593 28.4263 20.0787 28.4263 20.2017C28.2403 20.2052 28.0543 20.2074 27.8684 20.2093C27.7894 20.2108 27.7894 20.2108 27.7089 20.2123C27.6579 20.2127 27.607 20.2131 27.5545 20.2135C27.5078 20.2141 27.4611 20.2148 27.4129 20.2154C27.2803 20.2017 27.2803 20.2017 27.0391 20.0811C27.457 20.0811 27.875 20.0811 28.3056 20.0811C28.3255 20.0015 28.3454 19.9219 28.3659 19.8398Z" fill="#EDEEEB"/>
<path d="M46.8217 32.6875C46.8615 32.6875 46.9013 32.6875 46.9423 32.6875C46.9108 32.9906 46.8076 33.2196 46.6558 33.4791C46.6356 33.5157 46.6154 33.5523 46.5945 33.5901C46.4598 33.8243 46.3185 33.9799 46.0979 34.135C46.224 33.8709 46.3756 33.621 46.5248 33.3696C46.6538 33.1477 46.7494 32.9336 46.8217 32.6875Z" fill="#1C2122"/>
<path d="M26.8582 31.7812C27.2165 31.7812 27.5747 31.7812 27.9438 31.7812C27.7629 31.9622 27.7629 31.9622 27.6261 31.9827C27.574 31.9818 27.5219 31.9808 27.4682 31.9799C27.4116 31.9793 27.3551 31.9787 27.2968 31.9781C27.2379 31.9766 27.179 31.9751 27.1183 31.9735C27.0587 31.9727 26.9991 31.9719 26.9377 31.971C26.7906 31.9689 26.6435 31.9659 26.4963 31.9622C26.4963 31.9423 26.4963 31.9224 26.4963 31.9019C26.6158 31.882 26.7352 31.8621 26.8582 31.8416C26.8582 31.8217 26.8582 31.8018 26.8582 31.7812Z" fill="#2C3030"/>
<path d="M5.74881 29.1914C5.78862 29.2113 5.82842 29.2312 5.86943 29.2517C5.94945 29.4918 5.94558 29.7127 5.94859 29.9642C5.95122 30.0361 5.95122 30.0361 5.9539 30.1094C5.95751 30.4455 5.90169 30.619 5.6885 30.8802C5.64869 30.8603 5.60888 30.8404 5.56787 30.8198C5.58529 30.7833 5.6027 30.7468 5.62064 30.7091C5.85198 30.187 5.84514 29.7453 5.74881 29.1914Z" fill="#4B5B62"/>
<path d="M37.5335 29.6133C37.5938 29.7942 37.5938 29.7942 37.4732 30.1561C37.7319 30.0367 37.9907 29.9173 38.2572 29.7942C38.2572 29.834 38.2572 29.8738 38.2572 29.9148C38.1192 29.9855 37.9809 30.0558 37.8426 30.1259C37.8033 30.1461 37.7641 30.1662 37.7236 30.187C37.4265 30.337 37.4265 30.337 37.2922 30.337C37.3209 30.2277 37.3498 30.1183 37.3789 30.0091C37.395 29.9482 37.4111 29.8873 37.4277 29.8246C37.4732 29.6736 37.4732 29.6736 37.5335 29.6133Z" fill="#F6E405"/>
<path d="M23.1263 30.6276C23.1899 30.6267 23.2535 30.6259 23.319 30.625C23.4806 30.6389 23.4806 30.6389 23.6013 30.7595C23.4078 30.824 23.2617 30.8299 23.0584 30.8311C22.995 30.832 22.9316 30.8329 22.8662 30.8337C22.6966 30.8198 22.6966 30.8198 22.5156 30.6992C22.7211 30.6372 22.9121 30.6289 23.1263 30.6276Z" fill="#F7CE0A"/>
<path d="M20.103 30.5153C20.103 30.5352 20.103 30.5551 20.103 30.5757C20.0288 30.5811 20.0288 30.5811 19.9532 30.5867C19.8557 30.5943 19.8557 30.5943 19.7562 30.602C19.6596 30.6094 19.6596 30.6094 19.5611 30.6169C19.386 30.6304 19.386 30.6304 19.2473 30.6718C19.0731 30.7108 18.9384 30.6383 18.7761 30.5757C19.1517 30.3484 19.69 30.4236 20.103 30.5153Z" fill="#15183E"/>
<path d="M45.9169 34.1953C45.9567 34.2152 45.9965 34.2351 46.0376 34.2556C45.7296 34.5541 45.2883 34.9794 44.8313 34.9794C44.8313 34.9396 44.8313 34.8998 44.8313 34.8588C44.8793 34.8361 44.9274 34.8135 44.9769 34.7902C45.3266 34.6213 45.6339 34.4626 45.9169 34.1953Z" fill="#1C2122"/>
<path d="M25.2298 30.7578C25.2497 30.7976 25.2696 30.8374 25.2901 30.8784C25.3964 30.8766 25.3964 30.8766 25.505 30.8747C25.7409 30.8742 25.9623 30.9 26.1948 30.9388C26.1948 30.9587 26.1948 30.9786 26.1948 30.9991C25.7967 31.019 25.3987 31.0389 24.9885 31.0594C25.1092 30.8181 25.1092 30.8181 25.2298 30.7578Z" fill="#F1BE0B"/>
<path d="M45.5552 28.5273C46.0032 28.6495 46.2888 29.0526 46.5202 29.432C46.5003 29.4718 46.4804 29.5116 46.4599 29.5527C46.4198 29.5039 46.3798 29.4552 46.3385 29.4049C46.2847 29.3398 46.231 29.2747 46.1772 29.2096C46.1378 29.1616 46.1378 29.1616 46.0976 29.1127C45.9265 28.906 45.7477 28.7143 45.5552 28.5273Z" fill="#1A2122"/>
<path d="M45.4948 32.3867C45.5147 32.4464 45.5346 32.5061 45.5551 32.5677C45.3696 32.8482 45.1078 33.1018 44.8313 33.2914C44.7915 33.2914 44.7517 33.2914 44.7107 33.2914C44.7107 33.2516 44.7107 33.2118 44.7107 33.1708C44.8056 33.0947 44.8056 33.0947 44.9331 33.0087C45.1826 32.8292 45.3297 32.6446 45.4948 32.3867Z" fill="#4A5A62"/>
<path d="M28.4866 18.2109C28.9642 18.2109 29.4419 18.2109 29.9341 18.2109C29.9341 18.2308 29.9341 18.2507 29.9341 18.2713C29.2474 18.331 29.2474 18.331 28.5469 18.3919C28.527 18.3322 28.5071 18.2725 28.4866 18.2109Z" fill="#E6C808"/>
<path d="M35.724 29.4922C35.724 29.7879 35.5007 29.9514 35.3018 30.1556C35.2038 30.2391 35.1044 30.3212 35.0002 30.3969C35.0977 30.1617 35.2583 29.992 35.43 29.8088C35.4582 29.7783 35.4864 29.7477 35.5155 29.7162C35.5848 29.6413 35.6543 29.5667 35.724 29.4922Z" fill="#0D0B44"/>
<path d="M36.086 28.5859C36.1059 28.6257 36.1258 28.6656 36.1463 28.7066C36.073 28.8767 36.073 28.8767 35.9691 29.076C35.935 29.1421 35.9009 29.2081 35.8657 29.2762C35.8389 29.3271 35.8121 29.3779 35.7844 29.4303C35.7645 29.3706 35.7446 29.3109 35.7241 29.2494C35.7639 29.1897 35.8037 29.13 35.8447 29.0684C35.8423 29.0187 35.8398 28.9689 35.8372 28.9177C35.8447 28.7669 35.8447 28.7669 35.9654 28.6576C36.0052 28.6339 36.045 28.6103 36.086 28.5859Z" fill="#F6DD07"/>
<path d="M19.2587 28.6484C19.319 28.8294 19.319 28.8294 19.2721 28.9394C19.2073 29.0435 19.1425 29.1475 19.0777 29.2516C18.9972 29.119 18.9554 29.0389 18.9646 28.8821C19.0336 28.7344 19.1098 28.7061 19.2587 28.6484Z" fill="#F4D207"/>
<path d="M31.3816 12.3008C31.4214 12.3008 31.4612 12.3008 31.5022 12.3008C31.5182 12.3335 31.5342 12.3662 31.5508 12.4C31.5721 12.4431 31.5934 12.4863 31.6153 12.5307C31.6363 12.5734 31.6573 12.6161 31.6789 12.6601C31.7474 12.7961 31.7474 12.7961 31.8641 12.9642C31.8442 13.0239 31.8243 13.0836 31.8038 13.1452C31.7329 13.0387 31.6627 12.9318 31.5927 12.8247C31.5535 12.7653 31.5143 12.7058 31.4739 12.6445C31.3816 12.4817 31.3816 12.4817 31.3816 12.3008Z" fill="#F3F3F1"/>
<path d="M1.04426 28.043C1.06416 28.043 1.08407 28.043 1.10457 28.043C1.10457 28.2022 1.10457 28.3614 1.10457 28.5255C0.945346 28.5255 0.786121 28.5255 0.62207 28.5255C0.731387 28.4048 0.731387 28.4048 0.863321 28.2842C0.923031 28.2842 0.98274 28.2842 1.04426 28.2842C1.04426 28.2046 1.04426 28.125 1.04426 28.043Z" fill="#FCCF03"/>
<path d="M3.57743 27.4414C3.61724 27.4414 3.65705 27.4414 3.69806 27.4414C3.52371 28.0201 3.52371 28.0201 3.33618 28.2255C3.37183 27.9332 3.45557 27.7063 3.57743 27.4414Z" fill="#4A5A61"/>
<path d="M38.9811 29.5503C38.9208 29.6709 38.9208 29.6709 38.7511 29.7425C38.5673 29.7894 38.4903 29.7976 38.3176 29.7312C38.4854 29.4795 38.7076 29.5368 38.9811 29.5503Z" fill="#F3D607"/>
<path d="M31.0198 11.2773C31.0795 11.2773 31.1392 11.2773 31.2007 11.2773C31.2405 11.4764 31.2803 11.6754 31.3213 11.8805C31.2616 11.9103 31.2616 11.9103 31.2007 11.9408C31.141 11.7218 31.0813 11.5029 31.0198 11.2773Z" fill="#EBEBE9"/>
<path d="M37.3526 29.793C37.394 29.891 37.394 29.891 37.4129 30.0342C37.3262 30.2302 37.3262 30.2302 37.2319 30.3961C37.212 30.3961 37.1921 30.3961 37.1716 30.3961C37.1716 30.2568 37.1716 30.1175 37.1716 29.9739C37.2114 29.9739 37.2512 29.9739 37.2923 29.9739C37.3122 29.9142 37.3321 29.8545 37.3526 29.793Z" fill="#171A3E"/>
<path d="M41.0918 29.7305C41.2667 29.8749 41.303 29.9906 41.3331 30.213C41.2933 30.1334 41.2535 30.0537 41.2124 29.9717C41.1726 29.9717 41.1328 29.9717 41.0918 29.9717C41.0719 30.0314 41.052 30.0911 41.0315 30.1527C40.9938 30.0433 40.9938 30.0433 40.9712 29.9114C41.011 29.8517 41.0508 29.792 41.0918 29.7305Z" fill="#4C5C63"/>
<path d="M37.8954 28.707C37.9686 28.9267 37.9356 28.9683 37.8388 29.1707C37.8159 29.2194 37.793 29.2682 37.7693 29.3184C37.7512 29.3555 37.7331 29.3926 37.7144 29.4308C37.6612 29.282 37.6462 29.2113 37.701 29.0604C37.7241 29.0184 37.7472 28.9765 37.771 28.9332C37.7939 28.8906 37.8169 28.848 37.8405 28.8041C37.8586 28.7721 37.8767 28.74 37.8954 28.707Z" fill="#F2DE05"/>
<path d="M27.9439 27.2578C28.1248 27.3784 28.1248 27.3784 28.17 27.4878C28.1879 27.6443 28.1628 27.7692 28.1248 27.9213C27.9586 27.6719 27.9374 27.5562 27.9439 27.2578Z" fill="#E3B311"/>
<path d="M39.4634 25.5703C39.5722 25.7367 39.5848 25.8049 39.5614 26.0076C39.549 26.0623 39.5365 26.117 39.5237 26.1734C39.5038 26.1336 39.4839 26.0938 39.4634 26.0528C39.4236 26.0528 39.3838 26.0528 39.3428 26.0528C39.383 25.892 39.4232 25.7311 39.4634 25.5703Z" fill="#E8C009"/>
<path d="M30.2959 5.48828C30.3357 5.50818 30.3756 5.52809 30.4166 5.54859C30.3768 5.62821 30.337 5.70782 30.2959 5.78984C30.2561 5.78984 30.2163 5.78984 30.1753 5.78984C30.1554 5.84955 30.1355 5.90926 30.115 5.97078C30.0951 5.93098 30.0752 5.89117 30.0547 5.85016C30.1343 5.73074 30.2139 5.61132 30.2959 5.48828Z" fill="#EBECE8"/>
</svg>
