<svg width="50" height="32" viewBox="0 0 50 32" fill="none" xmlns="http://www.w3.org/2000/svg">
<path d="M28.3472 -0.00306722C28.4581 -0.00307114 28.4581 -0.00307114 28.5711 -0.00307514C28.7265 -0.0027291 28.8818 -0.00159449 29.0371 0.000291745C29.2734 0.00300934 29.5096 0.00295629 29.7458 0.00250993C29.8975 0.00319096 30.0492 0.00403068 30.2009 0.005045C30.2707 0.00505807 30.3406 0.00507114 30.4126 0.00508461C30.9746 0.0137841 31.4919 0.111712 31.9795 0.404572C32.0286 0.432932 32.0777 0.461292 32.1283 0.490511C32.5767 0.844388 32.8442 1.278 33.0868 1.78771C33.1166 1.84879 33.1464 1.90987 33.1771 1.9728C34.0759 3.82873 34.0759 3.82873 34.3685 4.64321C34.3977 4.61025 34.4269 4.57729 34.457 4.54333C34.7985 4.17789 35.1504 3.94699 35.6016 3.73464C35.6711 3.70139 35.6711 3.70139 35.742 3.66746C36.1516 3.49206 36.5232 3.48544 36.9482 3.61296C37.2495 3.78676 37.4361 3.98137 37.5485 4.31872C37.5529 4.42004 37.5541 4.52153 37.5526 4.62293C37.552 4.67538 37.5514 4.72784 37.5508 4.78188C37.5497 4.84173 37.5497 4.84173 37.5485 4.9028C37.5792 4.88164 37.6099 4.86047 37.6416 4.83866C37.6845 4.8103 37.7274 4.78194 37.7716 4.75272C37.8337 4.71094 37.8337 4.71094 37.8971 4.66831C38.3387 4.43537 38.7596 4.34879 39.2562 4.35523C39.3366 4.35596 39.3366 4.35596 39.4187 4.35672C40.111 4.37522 40.6654 4.56792 41.1828 5.0326C41.222 5.06589 41.2613 5.09919 41.3017 5.13349C42.17 5.92424 42.4902 7.2771 42.5457 8.40728C42.6021 9.782 42.2956 10.9525 41.3793 11.9921C40.8198 12.5827 40.1707 12.9637 39.3462 13.033C39.1351 13.0353 38.9273 13.0276 38.7167 13.015C38.6451 13.0129 38.5735 13.0108 38.4997 13.0087C37.9766 12.9839 37.9766 12.9839 37.7861 12.8173C37.7327 12.7545 37.7327 12.7545 37.6783 12.6905C37.7059 12.7441 37.7334 12.7976 37.7617 12.8528C38.0593 13.4387 38.3287 14.0333 38.5869 14.6375C38.8713 14.6002 39.1447 14.5504 39.4225 14.4793C41.7647 13.9344 44.2725 14.295 46.3754 15.4596C46.6347 15.6221 46.8568 15.7664 46.9587 16.0652C47.0203 16.6125 47.0203 16.6125 46.868 16.864C46.8337 16.9002 46.7994 16.9365 46.764 16.9738C46.7212 16.9738 46.6784 16.9738 46.6342 16.9738C46.6342 17.0166 46.6342 17.0595 46.6342 17.1036C46.7266 17.1016 46.7266 17.1016 46.8208 17.0995C47.4769 17.1983 48.0725 18.0835 48.4514 18.5962C49.7371 20.4672 50.2722 22.7467 49.8672 24.9953C49.4833 26.5934 48.8878 28.0399 47.7375 29.2395C47.6748 29.3161 47.6126 29.3932 47.5509 29.4707C47.2846 29.7832 46.9572 30.027 46.6342 30.2778C46.5794 30.3214 46.5246 30.365 46.4682 30.4099C44.7185 31.7495 42.5751 32.1681 40.4089 31.9457C40.0533 31.8932 39.7097 31.8089 39.3657 31.7056C39.295 31.6847 39.295 31.6847 39.2229 31.6634C37.1456 31.032 35.3329 29.5719 34.2883 27.6652C33.6998 26.5403 33.2653 25.2664 33.2653 23.9828C33.2184 23.9774 33.1716 23.972 33.1233 23.9665C32.9027 23.9077 32.7835 23.8115 32.6163 23.6583C32.2216 22.8688 32.7511 21.5154 32.9997 20.7514C33.424 19.5381 34.0518 18.4796 34.8566 17.4825C34.9404 17.3784 35.0224 17.2731 35.1042 17.1675C35.388 16.8067 35.6969 16.4763 36.0194 16.1504C36.0594 16.1098 36.0993 16.0692 36.1405 16.0274C36.4293 15.7407 36.4293 15.7407 36.5751 15.7407C36.548 15.6793 36.5208 15.6179 36.4929 15.5547C36.39 15.3215 36.287 15.0883 36.1841 14.855C36.14 14.7551 36.0959 14.6552 36.0518 14.5553C35.749 13.8694 35.4474 13.1829 35.1473 12.4958C34.8882 12.531 34.6499 12.5655 34.405 12.6581C34.1319 12.7543 33.8778 12.7941 33.5898 12.8203C33.5828 12.8627 33.5758 12.9051 33.5686 12.9487C33.5123 13.2013 33.4286 13.4422 33.3439 13.6863C33.3045 13.801 33.2651 13.9157 33.2258 14.0304C33.2046 14.092 33.1834 14.1535 33.1615 14.2169C32.672 15.6385 32.1947 17.0642 31.7199 18.4908C31.6888 18.5843 31.6576 18.6778 31.6265 18.7713C31.5656 18.9543 31.5047 19.1374 31.4438 19.3204C31.384 19.5002 31.3241 19.6799 31.2643 19.8597C31.1249 20.2782 30.9859 20.6968 30.848 21.1157C30.7836 21.3112 30.7191 21.5065 30.6545 21.7019C30.624 21.7942 30.5936 21.8866 30.5634 21.979C29.9987 23.7037 29.0968 25.0807 27.4744 25.9811C26.1342 26.6423 24.7399 26.4642 23.3057 26.3084C22.9328 26.2679 22.5598 26.229 22.1867 26.19C22.0532 26.176 21.9196 26.1619 21.7861 26.1478C21.0786 26.0735 20.3708 26.0033 19.6629 25.9348C19.6098 25.9296 19.5567 25.9245 19.502 25.9192C19.0797 25.8783 18.6574 25.8376 18.2351 25.797C17.9363 25.7683 17.6376 25.7395 17.3389 25.7106C17.2044 25.6976 17.07 25.6847 16.9355 25.6719C16.5371 25.6334 16.1396 25.593 15.7429 25.5403C15.7857 25.5617 15.8285 25.5831 15.8727 25.6052C15.3432 27.3453 13.8739 28.8337 12.3041 29.6892C10.5729 30.5992 8.56104 30.9025 6.66935 30.3346C5.40467 29.9292 4.35554 29.2612 3.41229 28.3309C3.35616 28.2756 3.30002 28.2203 3.24219 28.1633C1.62592 26.4815 1.01726 24.1602 1.05544 21.8837C1.09061 20.8654 1.34779 19.8857 1.66005 18.9207C1.62876 18.9481 1.59748 18.9754 1.56524 19.0036C1.52425 19.0392 1.48326 19.0747 1.44102 19.1114C1.38004 19.1644 1.38004 19.1644 1.31782 19.2186C1.08957 19.405 0.912628 19.3993 0.621687 19.375C0.366916 19.2378 0.190787 19.1007 0.0376064 18.8558C-0.0423335 18.4745 0.000492392 18.1526 0.211259 17.8248C0.288278 17.7197 0.367037 17.6159 0.447274 17.5133C0.531406 17.3997 0.615485 17.2861 0.699513 17.1725C0.741457 17.117 0.783401 17.0614 0.826615 17.0042C0.995175 16.7783 1.1534 16.5461 1.31123 16.3126C1.55311 15.9591 1.79829 15.608 2.04538 15.2581C2.0773 15.2125 2.10921 15.167 2.1421 15.1201C2.3096 14.8817 2.48012 14.6467 2.65659 14.4149C3.04178 13.9023 3.34224 13.4897 3.34739 12.8203C3.28072 12.825 3.21404 12.8297 3.14535 12.8345C2.91114 12.8505 2.67686 12.8647 2.44247 12.8777C2.32807 12.8842 2.21372 12.8913 2.09938 12.8987C1.70201 12.9138 1.40052 12.8675 1.07597 12.6256C0.870093 12.4005 0.839212 12.1701 0.850603 11.8735C0.917896 11.5303 1.11655 11.2711 1.37333 11.041C1.95835 10.6752 2.94192 10.798 3.60699 10.8085C3.59322 10.7743 3.57946 10.7401 3.56528 10.7048C2.9111 9.04869 2.9111 9.04869 3.25005 8.24504C3.4979 7.84587 3.87494 7.52087 4.33329 7.40053C5.16787 7.25577 6.09768 7.38961 6.93908 7.43534C7.07043 7.44231 7.20177 7.44928 7.33312 7.45623C7.60671 7.47077 7.88028 7.48553 8.15386 7.50042C8.50159 7.51934 8.84936 7.53766 9.19714 7.55582C9.46787 7.57004 9.73858 7.5846 10.0093 7.59926C10.1374 7.60615 10.2655 7.61293 10.3936 7.61959C12.7891 7.74468 12.7891 7.74468 13.728 8.206C13.7736 8.22836 13.8191 8.25073 13.866 8.27378C13.9523 8.31705 14.038 8.36153 14.1227 8.40769C15.2198 8.96802 16.5351 8.93132 17.7369 8.99216C18.1164 9.0115 18.4958 9.03226 18.8752 9.05349C19.0058 9.06061 19.1365 9.06708 19.2672 9.07353C20.5637 9.14347 20.5637 9.14347 21.0037 9.4132C21.0499 9.44064 21.0962 9.46808 21.1438 9.49635C21.2592 9.57544 21.2592 9.57544 21.389 9.70524C21.3662 9.94716 21.2317 10.1348 21.1071 10.3382C21.0637 10.4097 21.0202 10.4812 20.9755 10.5549C20.9295 10.63 20.8834 10.705 20.8374 10.7801C20.7472 10.9274 20.6574 11.0749 20.5676 11.2225C20.5276 11.2878 20.4876 11.3531 20.4463 11.4204C20.2569 11.7507 20.239 12.0585 20.2857 12.4309C20.4164 12.8111 20.5843 13.1259 20.9347 13.3395C20.9886 13.3726 21.0425 13.4056 21.098 13.4396C21.3983 13.5653 21.6703 13.5765 21.9931 13.5912C22.0922 13.5968 22.0922 13.5968 22.1934 13.6025C22.4106 13.6144 22.6278 13.625 22.8451 13.6356C22.9967 13.6436 23.1482 13.6516 23.2997 13.6596C23.766 13.6841 24.2324 13.7066 24.6988 13.7289C24.8429 13.7359 24.987 13.743 25.1312 13.75C25.9529 13.7898 26.7747 13.8248 27.5969 13.8533C27.7362 13.8582 27.8755 13.8636 28.0147 13.8692C29.2791 13.9165 30.3321 13.764 31.3021 12.869C32.1103 11.9991 32.513 10.8582 32.5108 9.68496C32.5107 9.62576 32.5106 9.56657 32.5105 9.50558C32.4993 8.88094 32.3903 8.24354 31.9673 7.7583C31.8413 7.65994 31.7161 7.58036 31.5779 7.49871C31.8189 7.203 32.1484 7.07207 32.4865 6.91463C32.4542 6.54712 32.3793 6.24665 32.2251 5.90998C32.2054 5.86538 32.1856 5.82077 32.1652 5.77481C32.1013 5.6312 32.0364 5.48806 31.9714 5.34492C31.9271 5.24602 31.8828 5.14711 31.8386 5.04817C31.5209 4.3394 31.1932 3.63541 30.8507 2.93826C30.7992 2.82607 30.7992 2.82607 30.7343 2.63138C30.3925 2.56186 30.0617 2.55566 29.7147 2.55279C29.5911 2.55097 29.4676 2.54911 29.344 2.54721C29.1508 2.54454 28.9576 2.54214 28.7643 2.54043C28.5768 2.53863 28.3893 2.53566 28.2017 2.53251C28.1446 2.5323 28.0875 2.53209 28.0286 2.53187C27.6158 2.52374 27.2372 2.46806 26.9038 2.20219C26.6433 1.87477 26.4964 1.60867 26.52 1.17929C26.57 0.848982 26.6806 0.6073 26.9053 0.359955C27.3655 0.0379677 27.7985 -0.0114263 28.3472 -0.00306722Z" fill="#23292A"/>
<path d="M44.6931 18.8507C45.9082 19.6925 46.7643 20.9739 47.0634 22.4216C47.3475 24.0139 47.0133 25.6361 46.1264 26.9889C45.8957 27.3138 45.6189 27.5957 45.3363 27.875C45.2724 27.9399 45.2724 27.9399 45.2072 28.0061C44.2237 28.9391 42.7406 29.4039 41.4079 29.3906C40.6172 29.3656 39.8839 29.1985 39.171 28.8485C39.1103 28.8191 39.0497 28.7896 38.9872 28.7593C38.5509 28.5347 38.1761 28.2636 37.8081 27.9399C37.7594 27.8974 37.7107 27.8549 37.6606 27.8112C36.6434 26.8618 35.9737 25.4753 35.9058 24.0879C35.8438 22.0416 36.6189 20.6865 37.9379 19.1787C37.9808 19.1359 38.0236 19.0931 38.0677 19.0489C38.2338 19.4272 38.3989 19.8059 38.5632 20.185C38.6192 20.3137 38.6754 20.4424 38.7319 20.5709C38.8132 20.7562 38.8937 20.9419 38.974 21.1277C38.9992 21.1846 39.0244 21.2416 39.0504 21.3002C39.2146 21.6831 39.3625 22.0587 39.2526 22.4774C39.2283 22.5292 39.2041 22.5811 39.1791 22.6345C38.9188 23.206 38.8764 23.8507 39.0328 24.4616C39.3404 25.2452 39.7895 25.7176 40.5533 26.0599C41.2084 26.2977 42.0067 26.2833 42.6455 26.01C43.3844 25.6312 43.8465 25.1447 44.1085 24.3531C44.3074 23.5448 44.178 22.8496 43.7536 22.1443C43.2707 21.4431 42.5635 21.2003 41.7669 20.9959C41.6153 20.9681 41.4659 20.9483 41.3126 20.931C41.2943 20.8815 41.276 20.832 41.2572 20.7811C41.0423 20.2102 40.7996 19.6562 40.546 19.1017C40.4696 18.9346 40.3935 18.7673 40.3176 18.6C40.2843 18.5272 40.251 18.4544 40.2167 18.3794C40.1444 18.2053 40.1444 18.2053 40.1444 18.0755C41.6954 17.6106 43.3592 18.0109 44.6931 18.8507Z" fill="#FDFAF3"/>
<path d="M31.9025 7.62835C32.2997 7.99911 32.5221 8.59203 32.5619 9.13342C32.5861 10.4992 32.5861 10.4992 32.3567 11.1328C32.3339 11.1971 32.3111 11.2613 32.2875 11.3275C31.8816 12.3778 31.2434 13.178 30.2151 13.6638C29.6848 13.8946 29.196 13.9401 28.6256 13.9353C28.5585 13.935 28.4914 13.9347 28.4223 13.9344C27.5534 13.9267 26.6857 13.8838 25.818 13.841C25.6786 13.8341 25.5392 13.8273 25.3997 13.8205C25.0285 13.8025 24.6574 13.7844 24.2863 13.7658C23.8417 13.7436 23.3972 13.7225 22.9525 13.705C22.7467 13.6968 22.5409 13.6875 22.3351 13.6779C22.2054 13.6722 22.0756 13.6679 21.9458 13.6637C21.4016 13.6364 20.9994 13.5267 20.6024 13.1406C20.2965 12.6904 20.1352 12.3373 20.2209 11.7818C20.4789 11.0655 20.9679 10.4017 21.389 9.76998C21.4319 9.76998 21.4747 9.76998 21.5188 9.76998C21.5433 9.71501 21.5433 9.71501 21.5683 9.65894C22.275 8.35246 24.0454 7.56077 25.3932 7.14187C27.4461 6.53971 30.0452 6.33955 31.9025 7.62835Z" fill="#FEC704"/>
<path d="M9.38286 16.0008C9.23502 16.648 9.05874 17.2878 8.87347 17.9251C8.84812 18.0129 8.82314 18.1007 8.79854 18.1886C8.76324 18.3144 8.7264 18.4397 8.68952 18.5651C8.6684 18.6383 8.64728 18.7116 8.62552 18.7871C8.4691 19.1478 8.19755 19.3341 7.86587 19.5256C7.22361 19.927 6.91668 20.4363 6.6711 21.145C6.59226 21.2576 6.59226 21.2576 6.42748 21.3022C6.36139 21.3089 6.2953 21.3156 6.22721 21.3225C5.72854 21.3928 5.39223 21.4979 5.07527 21.9025C4.73859 22.3755 4.72371 22.8311 4.77512 23.3992C4.87664 23.7707 5.09309 24.0434 5.42409 24.2429C5.93787 24.5071 6.4581 24.5695 7.02626 24.6241C7.12374 24.6342 7.22122 24.6444 7.3187 24.6546C7.68209 24.6922 8.04572 24.7272 8.40939 24.762C8.48971 24.7698 8.57003 24.7775 8.65278 24.7854C9.43425 24.8603 10.2157 24.9353 10.9974 25.0078C11.1314 25.0202 11.2653 25.0327 11.3993 25.0453C11.5654 25.0608 11.7314 25.0761 11.8975 25.0913C11.9719 25.0983 12.0463 25.1053 12.1229 25.1124C12.2202 25.1214 12.2202 25.1214 12.3194 25.1306C12.4898 25.1505 12.6548 25.1801 12.8224 25.2163C12.4467 26.2661 11.4916 27.0031 10.5226 27.4715C9.40443 27.9454 8.05598 28.0055 6.91674 27.5526C6.28962 27.2817 5.77267 26.9422 5.2943 26.4494C5.24921 26.4049 5.20412 26.3604 5.15766 26.3145C4.54261 25.6721 4.19145 24.8876 3.93145 24.0482C3.90852 23.9765 3.8856 23.9048 3.86198 23.8309C3.43433 22.1508 3.73946 20.3159 4.51553 18.7914C4.55016 18.7223 4.58479 18.6531 4.62048 18.5818C4.90274 18.0598 5.26822 17.6512 5.68369 17.2339C5.72485 17.1905 5.766 17.1471 5.80841 17.1023C6.77062 16.1635 8.10693 15.9859 9.38286 16.0008Z" fill="#FDFAF3"/>
<path d="M16.0579 13.7778C16.2639 13.7771 16.4699 13.7759 16.6759 13.7744C16.9233 13.7726 17.1708 13.7718 17.4182 13.7718C17.5104 13.7716 17.6026 13.7711 17.6948 13.7702C18.4012 13.7641 19.0606 13.7877 19.5874 14.3049C20.0707 14.8837 20.0941 15.5202 20.0417 16.2426C19.9399 17.2006 19.4023 18.0599 18.6633 18.6601C18.4542 18.791 18.2443 18.8956 18.0143 18.9846C17.9247 19.0201 17.9247 19.0201 17.8333 19.0564C16.8768 19.3228 15.8259 19.0344 14.9791 18.576C14.4982 18.2891 14.1127 17.8744 13.7202 17.4802C13.5703 17.3313 13.4146 17.19 13.2565 17.0498C12.9899 16.8122 12.7255 16.5723 12.464 16.3292C12.3099 16.1865 12.1544 16.0487 11.9913 15.9164C11.5709 15.571 11.3359 15.2336 11.2001 14.7014C11.1901 14.3886 11.2223 14.2961 11.4272 14.0605C11.5075 13.9922 11.5075 13.9922 11.5895 13.9226C11.6109 13.9012 11.6323 13.8798 11.6544 13.8577C11.9495 13.8314 12.2465 13.829 12.5426 13.8212C12.5907 13.8199 12.6387 13.8186 12.6882 13.8172C13.8112 13.788 14.9346 13.7816 16.0579 13.7778Z" fill="#FDC705"/>
<path d="M27.5544 16.5859C28.2445 16.7751 28.8164 16.963 29.2191 17.599C29.5211 18.1912 29.4965 18.6407 29.2954 19.2615C29.2811 19.3065 29.2667 19.3516 29.2519 19.398C29.2057 19.5424 29.1589 19.6867 29.1119 19.8308C29.0967 19.8778 29.0814 19.9247 29.0657 19.973C28.9721 20.2604 28.8766 20.547 28.7797 20.8333C28.7469 20.9305 28.7144 21.0278 28.6823 21.1252C28.2645 22.3907 27.7183 23.4957 26.4802 24.1346C25.6401 24.4918 24.6682 24.2916 23.7903 24.179C23.7903 24.1361 23.7903 24.0933 23.7903 24.0492C23.8695 24.0428 23.9487 24.0365 24.0304 24.0299C25.0469 23.9409 25.9692 23.7986 26.6985 23.023C27.2092 22.4057 27.2965 21.711 27.2299 20.9341C27.0478 20.2367 26.6312 19.6774 26.0617 19.2467C26.1209 18.9836 26.21 18.8273 26.3943 18.6383C26.7203 18.2852 26.8982 17.8566 27.1029 17.4272C27.2424 17.141 27.399 16.8637 27.5544 16.5859Z" fill="#FCFAF3"/>
<path d="M39.7551 6.06882C40.1407 6.21945 40.3649 6.54868 40.5338 6.91249C40.9791 7.94897 41.0424 9.2153 40.6636 10.2872C40.4505 10.7484 40.1348 11.0235 39.6902 11.2606C39.3632 11.3696 39.0194 11.4066 38.7 11.2568C38.1007 10.8365 37.8156 10.1452 37.6783 9.44351C37.5569 8.43033 37.758 7.42374 38.3582 6.5837C38.7529 6.0989 39.1356 5.98327 39.7551 6.06882Z" fill="#FCC807"/>
<path d="M11.3299 17.2344C12.0678 17.4732 12.6065 18.327 12.9524 18.9866C13.2242 19.5561 13.4824 20.1652 13.4715 20.8038C13.1828 20.7806 12.8942 20.7564 12.6056 20.7313C12.5076 20.7229 12.4095 20.7148 12.3115 20.7069C12.1699 20.6956 12.0285 20.6832 11.8871 20.6707C11.8021 20.6635 11.7172 20.6564 11.6296 20.649C11.3096 20.5946 11.0135 20.4833 10.8107 20.2197C10.5894 19.8002 10.678 19.3828 10.8064 18.9468C10.8192 18.9017 10.832 18.8565 10.8452 18.81C10.8859 18.6673 10.9274 18.5248 10.9689 18.3823C10.9966 18.2854 11.0241 18.1885 11.0517 18.0916C11.2527 17.3887 11.2527 17.3887 11.3299 17.2344Z" fill="#FBF9F3"/>
<path d="M21.5253 13.6579C21.6038 13.6612 21.6038 13.6612 21.6839 13.6645C21.769 13.6692 21.769 13.6692 21.8559 13.6739C21.9158 13.6766 21.9758 13.6793 22.0376 13.6821C22.2351 13.6912 22.4326 13.7013 22.6301 13.7114C22.7671 13.718 22.9042 13.7244 23.0412 13.7308C23.3237 13.7441 23.6062 13.7578 23.8887 13.7719C24.2885 13.7917 24.6883 13.8102 25.0881 13.8283C25.3287 13.8393 25.5694 13.8504 25.8101 13.8615C25.8663 13.8641 25.9225 13.8667 25.9804 13.8693C26.6142 13.8987 27.2464 13.9334 27.8787 13.9872C27.8787 14.0087 27.8787 14.0301 27.8787 14.0521C27.5102 14.0537 27.1417 14.0549 26.7731 14.0557C26.6477 14.056 26.5222 14.0565 26.3968 14.057C26.2168 14.0578 26.0369 14.0582 25.857 14.0585C25.7723 14.059 25.7723 14.059 25.6859 14.0595C25.5515 14.0595 25.4171 14.0562 25.2828 14.0521C25.2506 14.02 25.2506 14.02 25.2179 13.9872C25.0659 13.9709 24.916 13.9593 24.7636 13.9507C24.6925 13.9465 24.6925 13.9465 24.62 13.9422C24.0865 13.9147 23.5529 13.9189 23.0189 13.9247C22.9515 13.9253 22.8841 13.9258 22.8146 13.9264C22.754 13.9272 22.6934 13.9279 22.631 13.9287C22.4922 13.9223 22.4922 13.9223 22.4273 13.8575C22.3403 13.8473 22.2528 13.8412 22.1654 13.8369C22.0866 13.8328 22.0866 13.8328 22.0063 13.8287C21.9511 13.8261 21.896 13.8236 21.8391 13.8209C21.7837 13.8181 21.7283 13.8153 21.6712 13.8125C21.5338 13.8055 21.3965 13.799 21.2591 13.7926C21.2591 13.8354 21.2591 13.8782 21.2591 13.9223C21.1734 13.8795 21.0878 13.8367 20.9995 13.7926C21.1859 13.6862 21.3113 13.6475 21.5253 13.6579Z" fill="#212B43"/>
<path d="M14.9641 18.5977C15.3036 18.6533 15.6038 18.7831 15.9211 18.912C16.6989 19.1884 17.5979 19.1376 18.3388 18.7923C18.4468 18.7486 18.5549 18.7052 18.6633 18.6626C18.4992 18.8442 18.3904 18.9519 18.1441 18.987C18.1762 19.1155 18.1762 19.1155 18.209 19.2466C18.1448 19.2466 18.0805 19.2466 18.0143 19.2466C17.9822 19.1824 17.9822 19.1824 17.9494 19.1168C17.8785 19.1383 17.8075 19.1597 17.7344 19.1817C16.8118 19.4036 15.7668 19.1438 14.9641 18.6626C14.9641 18.6411 14.9641 18.6197 14.9641 18.5977Z" fill="#171309"/>
<path d="M18.4686 13.4062C18.6399 13.4062 18.8113 13.4062 18.9878 13.4062C18.9878 13.4491 18.9878 13.4919 18.9878 13.536C18.8165 13.5575 18.6451 13.5789 18.4686 13.6009C18.5355 13.6291 18.6025 13.6572 18.6714 13.6861C18.8894 13.7794 19.1012 13.8822 19.3123 13.9903C19.1825 14.0552 19.1825 14.0552 19.0438 14.0213C18.9619 13.9939 18.9619 13.9939 18.8783 13.966C18.4035 13.808 17.9344 13.7845 17.4386 13.7751C17.3488 13.7731 17.3488 13.7731 17.2572 13.771C17.0675 13.7668 16.8777 13.763 16.688 13.7591C16.5587 13.7563 16.4295 13.7535 16.3002 13.7506C15.9847 13.7437 15.6691 13.7371 15.3535 13.7307C15.3535 13.7093 15.3535 13.6879 15.3535 13.6658C16.3387 13.6658 17.3238 13.6658 18.3388 13.6658C18.3816 13.5802 18.4245 13.4945 18.4686 13.4062Z" fill="#121314"/>
<path d="M32.3567 8.53906C32.7123 9.07245 32.6275 10.0106 32.5078 10.6191C32.4634 10.7939 32.416 10.9646 32.3567 11.135C32.2935 10.9233 32.2831 10.7308 32.2837 10.5103C32.2835 10.4479 32.2834 10.3855 32.2832 10.3212C32.2918 10.1615 32.2918 10.1615 32.3567 10.0317C32.3622 9.91876 32.3637 9.8056 32.3631 9.69252C32.3628 9.62559 32.3626 9.55867 32.3624 9.48971C32.3619 9.41961 32.3613 9.3495 32.3608 9.27727C32.3605 9.20667 32.3602 9.13606 32.3599 9.06332C32.3591 8.88856 32.3581 8.71381 32.3567 8.53906Z" fill="#E6C71C"/>
<path d="M20.9348 13.3398C21.5773 13.3398 22.2198 13.3398 22.8817 13.3398C22.8817 13.3613 22.8817 13.3827 22.8817 13.4047C22.3892 13.4047 21.8966 13.4047 21.3891 13.4047C21.3891 13.4476 21.3891 13.4904 21.3891 13.5345C21.4266 13.5342 21.4642 13.5339 21.5029 13.5335C22.8806 13.5227 22.8806 13.5227 23.4658 13.5994C23.4658 13.6209 23.4658 13.6423 23.4658 13.6643C22.9219 13.6709 22.3787 13.6689 21.8353 13.6441C21.79 13.6426 21.7448 13.6411 21.6981 13.6396C21.4013 13.6238 21.1911 13.5536 20.9348 13.4047C20.9348 13.3833 20.9348 13.3619 20.9348 13.3398Z" fill="#F5D82C"/>
<path d="M11.1352 14.3789C11.1567 14.3789 11.1781 14.3789 11.2001 14.3789C11.2159 14.4353 11.2316 14.4917 11.2478 14.5498C11.2695 14.6246 11.2913 14.6993 11.3137 14.7764C11.3348 14.8502 11.3559 14.924 11.3776 15C11.5512 15.4705 11.8592 15.7618 12.2223 16.0906C12.2675 16.1322 12.3128 16.1737 12.3594 16.2166C12.4702 16.3183 12.5813 16.4196 12.6928 16.5205C12.4981 16.5205 12.4981 16.5205 12.3888 16.4212C12.313 16.3361 12.2373 16.2509 12.1617 16.1656C12.0364 16.0384 12.0364 16.0384 11.7842 16.0662C11.7762 16.01 11.7762 16.01 11.768 15.9527C11.7062 15.7672 11.5986 15.6814 11.4597 15.5471C11.4597 15.5042 11.4597 15.4614 11.4597 15.4173C11.4169 15.4173 11.3741 15.4173 11.3299 15.4173C11.1709 15.0462 11.1136 14.7819 11.1352 14.3789Z" fill="#171414"/>
<path d="M18.4685 9.11905C18.7065 9.11714 18.9444 9.116 19.1824 9.11499C19.2492 9.11445 19.3161 9.1139 19.3849 9.11334C19.7567 9.11216 20.1127 9.12782 20.4803 9.18394C20.4803 9.24819 20.4803 9.31244 20.4803 9.37864C20.0948 9.35722 19.7094 9.33581 19.3122 9.31374C19.3122 9.27091 19.3122 9.22807 19.3122 9.18394C19.0338 9.18394 18.7554 9.18394 18.4685 9.18394C18.4685 9.16253 18.4685 9.14111 18.4685 9.11905Z" fill="#1B1E1F"/>
<path d="M20.4155 11.3281C20.4804 11.5228 20.4804 11.5228 20.4155 11.7175C20.411 11.8513 20.41 11.9852 20.4115 12.1191C20.4121 12.1896 20.4126 12.2601 20.4132 12.3328C20.414 12.3867 20.4148 12.4407 20.4155 12.4963C20.4798 12.4963 20.544 12.4963 20.6102 12.4963C20.5968 12.5471 20.5834 12.598 20.5697 12.6504C20.5576 12.7347 20.5576 12.7347 20.5453 12.8208C20.5882 12.8636 20.631 12.9064 20.6751 12.9506C20.7408 13.0365 20.8058 13.1229 20.8698 13.2102C20.8484 13.253 20.827 13.2958 20.8049 13.34C20.4045 12.9137 20.1846 12.5402 20.2011 11.9411C20.2301 11.7083 20.3074 11.5354 20.4155 11.3281Z" fill="#E4CC24"/>
<path d="M30.3449 13.4047C30.3664 13.3833 30.3878 13.3619 30.4098 13.3398C30.5437 13.3682 30.5437 13.3682 30.6694 13.4047C30.3018 13.6052 29.9874 13.7667 29.5662 13.7941C29.6304 13.7513 29.6947 13.7085 29.7609 13.6643C29.7609 13.5787 29.7609 13.493 29.7609 13.4047C29.9835 13.3491 30.1253 13.342 30.3449 13.4047Z" fill="#F9CF15"/>
<path d="M11.3948 14.0515C11.4591 14.073 11.5233 14.0944 11.5895 14.1164C11.6323 14.095 11.6752 14.0736 11.7193 14.0515C11.8301 14.047 11.941 14.0461 12.0519 14.0475C12.111 14.0481 12.17 14.0487 12.2309 14.0493C12.2989 14.0504 12.2989 14.0504 12.3683 14.0515C12.3469 14.0944 12.3255 14.1372 12.3034 14.1813C12.2231 14.1773 12.1428 14.1733 12.06 14.1692C11.816 14.1679 11.7096 14.2116 11.5246 14.376C11.4604 14.376 11.3961 14.376 11.3299 14.376C11.3299 14.5474 11.3299 14.7187 11.3299 14.8952C11.2001 14.7005 11.2001 14.7005 11.2164 14.4734C11.265 14.2462 11.265 14.2462 11.3948 14.0515Z" fill="#F3CB1C"/>
<path d="M32.4865 10.7461C32.5079 10.7461 32.5293 10.7461 32.5514 10.7461C32.5299 11.0031 32.5085 11.2601 32.4865 11.5249C32.4436 11.5249 32.4008 11.5249 32.3567 11.5249C32.3567 11.6105 32.3567 11.6962 32.3567 11.7845C32.3995 11.7845 32.4423 11.7845 32.4865 11.7845C32.4651 11.8487 32.4436 11.913 32.4216 11.9792C32.4002 11.9363 32.3787 11.8935 32.3567 11.8494C32.3138 11.8494 32.271 11.8494 32.2269 11.8494C32.2269 11.9136 32.2269 11.9779 32.2269 12.044C32.184 12.044 32.1412 12.044 32.0971 12.044C32.0971 12.1083 32.0971 12.1725 32.0971 12.2387C32.0542 12.2387 32.0114 12.2387 31.9673 12.2387C32.075 11.9025 32.2084 11.5826 32.3488 11.2589C32.4153 11.0868 32.4568 10.9277 32.4865 10.7461Z" fill="#212B43"/>
<path d="M24.7637 26.2539C25.1706 26.2539 25.5775 26.2539 25.9967 26.2539C25.9753 26.3182 25.9539 26.3824 25.9318 26.4486C25.5463 26.4486 25.1608 26.4486 24.7637 26.4486C24.7637 26.3844 24.7637 26.3201 24.7637 26.2539Z" fill="#2C3031"/>
<path d="M18.4685 13.8594C18.8177 13.8814 19.0872 13.9039 19.3771 14.119C19.3128 14.2153 19.3128 14.2153 19.2473 14.3137C19.1616 14.3137 19.0759 14.3137 18.9877 14.3137C18.9663 14.228 18.9449 14.1423 18.9228 14.0541C18.7729 14.0541 18.623 14.0541 18.4685 14.0541C18.4685 13.9898 18.4685 13.9256 18.4685 13.8594Z" fill="#F6D117"/>
<path d="M46.9588 25.0859C47.0301 25.2999 47.0153 25.3718 46.9628 25.5848C46.9502 25.6373 46.9376 25.6897 46.9246 25.7438C46.9144 25.7837 46.9043 25.8236 46.8939 25.8647C46.8511 25.8647 46.8082 25.8647 46.7641 25.8647C46.748 25.9196 46.732 25.9745 46.7154 26.031C46.6252 26.279 46.5103 26.4825 46.3747 26.7084C46.3533 26.6655 46.3319 26.6227 46.3098 26.5786C46.3626 26.4465 46.422 26.3171 46.4842 26.1892C46.6574 25.8263 46.8148 25.4613 46.9588 25.0859Z" fill="#111313"/>
<path d="M38.6519 12.8203C39.1016 12.8203 39.5513 12.8203 40.0147 12.8203C39.7117 13.0223 39.4841 13.0227 39.1224 13.0191C39.0464 13.0185 38.9704 13.0179 38.8922 13.0173C38.8343 13.0165 38.7764 13.0158 38.7168 13.015C38.6953 12.9508 38.6739 12.8865 38.6519 12.8203Z" fill="#343736"/>
<path d="M23.2711 8.08203C23.3139 8.10345 23.3568 8.12486 23.4009 8.14693C23.3453 8.18926 23.2896 8.23159 23.2323 8.2752C22.8471 8.5693 22.4663 8.86419 22.1029 9.18529C22.0601 9.16388 22.0173 9.14246 21.9731 9.1204C22.3832 8.73564 22.802 8.39243 23.2711 8.08203Z" fill="#F0BC15"/>
<path d="M15.5481 18.5476C15.9175 18.6862 15.9175 18.6862 16.0024 18.8559C16.0666 18.8987 16.1309 18.9415 16.1971 18.9857C15.8099 18.9527 15.5067 18.8308 15.1587 18.6612C15.4021 18.5294 15.4021 18.5294 15.5481 18.5476Z" fill="#F4D21F"/>
<path d="M29.7082 6.82422C29.9773 6.85068 30.2148 6.90538 30.4748 6.97835C30.4748 6.99977 30.4748 7.02118 30.4748 7.04325C30.3463 7.06467 30.2178 7.08608 30.0854 7.10815C30.0854 7.06531 30.0854 7.02248 30.0854 6.97835C30.0426 7.02118 29.9997 7.06402 29.9556 7.10815C29.801 7.12082 29.801 7.12082 29.623 7.11626C29.5344 7.1145 29.5344 7.1145 29.444 7.11271C29.3987 7.1112 29.3534 7.1097 29.3066 7.10815C29.4755 6.8516 29.4755 6.8516 29.7082 6.82422Z" fill="#F5BF0C"/>
<path d="M15.3536 13.6628C15.3536 13.6842 15.3536 13.7057 15.3536 13.7277C14.9253 13.7277 14.497 13.7277 14.0557 13.7277C14.5265 13.4923 14.8579 13.5443 15.3536 13.6628Z" fill="#1C2532"/>
<path d="M32.2269 11.1328C32.3057 11.3691 32.2702 11.4139 32.166 11.6317C32.1414 11.6842 32.1167 11.7366 32.0913 11.7907C32.0718 11.8306 32.0523 11.8705 32.0322 11.9116C32.0108 11.9116 31.9894 11.9116 31.9673 11.9116C31.9673 11.7188 31.9673 11.5261 31.9673 11.3275C32.0101 11.3275 32.053 11.3275 32.0971 11.3275C32.0971 11.2847 32.0971 11.2418 32.0971 11.1977C32.1399 11.1763 32.1827 11.1549 32.2269 11.1328Z" fill="#F8D619"/>
<path d="M19.5068 17.4297C19.5282 17.4939 19.5497 17.5582 19.5717 17.6244C19.4929 17.757 19.4929 17.757 19.3811 17.8961C19.3444 17.9426 19.3076 17.989 19.2698 18.0368C19.2409 18.0721 19.2121 18.1073 19.1823 18.1436C19.1609 18.0579 19.1395 17.9722 19.1174 17.884C19.1817 17.8626 19.2459 17.8411 19.3121 17.8191C19.3121 17.7762 19.3121 17.7334 19.3121 17.6893C19.2693 17.6679 19.2265 17.6464 19.1823 17.6244C19.2466 17.5815 19.3108 17.5387 19.377 17.4946C19.4199 17.516 19.4627 17.5374 19.5068 17.5595C19.5068 17.5167 19.5068 17.4738 19.5068 17.4297Z" fill="#F3D41C"/>
<path d="M1.78975 10.876C1.91682 10.8725 2.04392 10.8699 2.17103 10.8678C2.27719 10.8656 2.27719 10.8656 2.38549 10.8633C2.56852 10.876 2.56852 10.876 2.69832 11.0058C2.48512 11.0768 2.32603 11.0771 2.10207 11.0747C1.99629 11.0738 1.99629 11.0738 1.88837 11.0729C1.83441 11.0722 1.78045 11.0714 1.72485 11.0707C1.74627 11.0064 1.76769 10.9422 1.78975 10.876Z" fill="#343939"/>
<path d="M1.6601 18.8555C1.76395 19.0632 1.66215 19.2269 1.5952 19.4395C1.40245 19.4074 1.40245 19.4074 1.20581 19.3747C1.20581 19.3318 1.20581 19.289 1.20581 19.2449C1.30519 19.147 1.30519 19.147 1.43295 19.042C1.47512 19.0071 1.51728 18.9721 1.56072 18.9361C1.59351 18.9095 1.62631 18.8829 1.6601 18.8555Z" fill="#EEEEED"/>
<path d="M18.5335 18.6602C18.5763 18.6816 18.6191 18.703 18.6633 18.7251C18.2901 18.9846 18.2901 18.9846 18.1441 18.9846C18.1655 19.0703 18.1869 19.156 18.209 19.2442C18.1447 19.2442 18.0805 19.2442 18.0143 19.2442C18.0143 19.2014 18.0143 19.1586 18.0143 19.1144C17.95 19.0716 17.8858 19.0288 17.8196 18.9846C17.8602 18.9667 17.9009 18.9487 17.9428 18.9301C17.9958 18.9066 18.0489 18.8831 18.1035 18.8589C18.1562 18.8356 18.2089 18.8122 18.2632 18.7882C18.3541 18.7473 18.4443 18.7047 18.5335 18.6602Z" fill="#232012"/>
<path d="M12.1733 16C12.3347 16.0691 12.4353 16.1323 12.5587 16.2596C12.7042 16.4007 12.8264 16.4556 13.017 16.5192C12.9528 16.562 12.8885 16.6048 12.8223 16.649C12.7382 16.5776 12.6545 16.5059 12.5708 16.434C12.5242 16.3941 12.4775 16.3542 12.4294 16.3131C12.3031 16.1947 12.3031 16.1947 12.1733 16Z" fill="#ECD422"/>
<path d="M37.6135 12.5625C37.7783 12.681 37.9319 12.8006 38.0678 12.9519C38.0962 13.1709 38.0962 13.1709 38.0678 13.3413C38.025 13.3413 37.9821 13.3413 37.938 13.3413C37.8836 13.236 37.8296 13.1305 37.7758 13.0249C37.7457 12.9662 37.7155 12.9074 37.6845 12.8469C37.6135 12.6923 37.6135 12.6923 37.6135 12.5625Z" fill="#E6E8E6"/>
<path d="M20.1559 11.3906C20.1987 11.3906 20.2415 11.3906 20.2857 11.3906C20.2428 11.7547 20.2 12.1188 20.1559 12.4939C20.1345 12.4939 20.113 12.4939 20.091 12.4939C20.087 12.454 20.0831 12.4141 20.0791 12.373C20.0736 12.3205 20.0682 12.2681 20.0626 12.214C20.0573 12.1621 20.052 12.1101 20.0466 12.0566C20.0292 11.8994 20.0292 11.8994 19.9612 11.7151C20.0254 11.6937 20.0897 11.6723 20.1559 11.6502C20.1559 11.5646 20.1559 11.4789 20.1559 11.3906Z" fill="#1D2854"/>
<path d="M7.64763 7.48047C7.69958 7.48273 7.75153 7.48499 7.80505 7.48731C7.88373 7.48995 7.88373 7.48995 7.964 7.49264C8.00391 7.4949 8.04381 7.49715 8.08493 7.49948C8.10634 7.56373 8.12776 7.62798 8.14982 7.69418C7.87141 7.69418 7.593 7.69418 7.30615 7.69418C7.50085 7.49948 7.50085 7.49948 7.64763 7.48047Z" fill="#313737"/>
<path d="M13.4065 20.4766C13.4279 20.4766 13.4493 20.4766 13.4714 20.4766C13.4714 20.5836 13.4714 20.6907 13.4714 20.8011C13.1929 20.7796 12.9145 20.7582 12.6277 20.7362C12.6277 20.7147 12.6277 20.6933 12.6277 20.6713C12.7039 20.6583 12.7039 20.6583 12.7816 20.6451C12.8472 20.6337 12.9129 20.6222 12.9806 20.6104C13.0461 20.5991 13.1116 20.5878 13.1791 20.5762C13.3369 20.5578 13.3369 20.5578 13.4065 20.4766Z" fill="#E6E6E4"/>
<path d="M13.8608 17.5586C13.9906 17.6235 14.1204 17.6884 14.2502 17.7533C14.2931 17.7319 14.3359 17.7105 14.38 17.6884C14.38 17.7312 14.38 17.7741 14.38 17.8182C14.4229 17.8182 14.4657 17.8182 14.5098 17.8182C14.467 17.9039 14.4242 17.9895 14.38 18.0778C14.2933 18.0036 14.2068 17.9292 14.1204 17.8547C14.0722 17.8133 14.0241 17.7719 13.9744 17.7292C13.9369 17.6943 13.8995 17.6594 13.8608 17.6235C13.8608 17.6021 13.8608 17.5807 13.8608 17.5586Z" fill="#EECF1E"/>
<path d="M10.0441 7.62541C10.1666 7.62742 10.1666 7.62742 10.2915 7.62947C10.2915 7.69372 10.2915 7.75797 10.2915 7.82416C10.0773 7.82416 9.86319 7.82416 9.64253 7.82416C9.62112 7.78133 9.5997 7.7385 9.57764 7.69437C9.75616 7.63486 9.86056 7.6224 10.0441 7.62541Z" fill="#303536"/>
<path d="M29.631 6.52734C29.6739 6.63443 29.7167 6.74151 29.7608 6.85183C29.5681 6.83042 29.3753 6.809 29.1768 6.78693C29.1768 6.7441 29.1768 6.70127 29.1768 6.65714C29.485 6.52734 29.485 6.52734 29.631 6.52734Z" fill="#FCF8DE"/>
<path d="M12.6278 20.6757C12.692 20.7399 12.7563 20.8042 12.8225 20.8703C12.5655 20.8703 12.3085 20.8703 12.0437 20.8703C12.0437 20.8275 12.0437 20.7847 12.0437 20.7406C12.2563 20.6697 12.4051 20.6571 12.6278 20.6757Z" fill="#2A302F"/>
<path d="M30.2152 13.3398C30.258 13.3613 30.3009 13.3827 30.345 13.4047C30.3664 13.3833 30.3878 13.3619 30.4099 13.3398C30.5437 13.3682 30.5437 13.3682 30.6695 13.4047C30.3336 13.6139 30.3336 13.6139 30.2152 13.6643C30.151 13.6429 30.0867 13.6215 30.0205 13.5994C30.0633 13.5994 30.1062 13.5994 30.1503 13.5994C30.1717 13.5138 30.1931 13.4281 30.2152 13.3398Z" fill="#F0D225"/>
<path d="M26.5808 1.00781C26.6236 1.02923 26.6664 1.05065 26.7106 1.07271C26.7106 1.22262 26.7106 1.37254 26.7106 1.52699C26.6463 1.55912 26.6463 1.55912 26.5808 1.59189C26.4921 1.41456 26.5075 1.26857 26.5159 1.07271C26.5373 1.05129 26.5587 1.02988 26.5808 1.00781Z" fill="#2D302F"/>
<path d="M27.035 17.4297C27.0564 17.4725 27.0778 17.5154 27.0999 17.5595C27.0494 17.6857 27.0494 17.6857 26.9741 17.8272C26.9495 17.8742 26.9248 17.9212 26.8994 17.9697C26.8799 18.0056 26.8604 18.0416 26.8403 18.0787C26.8189 18.0787 26.7975 18.0787 26.7754 18.0787C26.7968 17.9288 26.8182 17.7788 26.8403 17.6244C26.8831 17.6244 26.926 17.6244 26.9701 17.6244C26.9915 17.5601 27.0129 17.4959 27.035 17.4297Z" fill="#1C1F1F"/>
<path d="M12.9523 16.8438C13.1125 16.9185 13.215 16.9767 13.3417 17.1033C13.3203 17.1676 13.2989 17.2318 13.2768 17.298C13.2768 17.2552 13.2768 17.2124 13.2768 17.1682C13.2166 17.1883 13.2166 17.1883 13.1552 17.2088C13.1096 17.2168 13.0641 17.2249 13.0172 17.2331C12.9744 17.1903 12.9316 17.1475 12.8875 17.1033C12.9303 17.1033 12.9731 17.1033 13.0172 17.1033C12.9958 17.0177 12.9744 16.932 12.9523 16.8438Z" fill="#161C24"/>
<path d="M37.938 10.2891C38.116 10.4967 38.2385 10.6788 38.3274 10.938C38.1692 10.8691 38.1692 10.8691 38.0029 10.7433C37.9502 10.504 37.9502 10.504 37.938 10.2891Z" fill="#1B1B1B"/>
<path d="M11.3299 13.7305C11.4156 13.8161 11.5013 13.9018 11.5895 13.9901C11.5253 14.0115 11.461 14.0329 11.3948 14.055C11.3164 14.1848 11.3164 14.1848 11.265 14.3145C11.265 14.2503 11.265 14.1861 11.265 14.1199C11.263 14.0355 11.263 14.0355 11.261 13.9495C11.265 13.7954 11.265 13.7954 11.3299 13.7305Z" fill="#242419"/>
<path d="M32.6164 8.21094C32.7462 8.34073 32.7462 8.34073 32.7462 8.60032C32.6819 8.63245 32.6819 8.63245 32.6164 8.66522C32.5738 8.82924 32.5738 8.82924 32.5515 8.98971C32.5301 8.98971 32.5086 8.98971 32.4866 8.98971C32.4958 8.89639 32.5053 8.80311 32.515 8.70984C32.5202 8.65789 32.5255 8.60594 32.5309 8.55241C32.5515 8.40563 32.5515 8.40563 32.6164 8.21094Z" fill="#202121"/>
<path d="M31.9024 7.17355C31.7929 7.3074 31.7929 7.3074 31.6428 7.43314C31.4644 7.41691 31.4644 7.41691 31.3184 7.36824C31.5177 7.19103 31.6366 7.1514 31.9024 7.17355Z" fill="#F6F4E7"/>
<path d="M11.0703 24.8906C11.2202 24.8906 11.3701 24.8906 11.5246 24.8906C11.5032 24.9549 11.4818 25.0191 11.4597 25.0853C11.3312 25.0853 11.2027 25.0853 11.0703 25.0853C11.0703 25.0211 11.0703 24.9568 11.0703 24.8906Z" fill="#2C3031"/>
<path d="M38.8465 6.13672C38.9108 6.15814 38.975 6.17955 39.0412 6.20162C39.0626 6.26587 39.084 6.33011 39.1061 6.39631C38.9204 6.48917 38.7859 6.43524 38.5869 6.39631C38.6726 6.31064 38.7582 6.22498 38.8465 6.13672Z" fill="#F1D019"/>
<path d="M38.4572 10.7461C38.5215 10.7461 38.5857 10.7461 38.6519 10.7461C38.6519 10.8746 38.6519 11.0031 38.6519 11.1355C38.5663 11.0926 38.4806 11.0498 38.3923 11.0057C38.4138 10.92 38.4352 10.8344 38.4572 10.7461Z" fill="#F7D213"/>
<path d="M40.8584 9.83203C40.9882 10.0267 40.9882 10.0267 40.9638 10.1687C40.9504 10.2075 40.937 10.2463 40.9233 10.2863C40.8804 10.2863 40.8376 10.2863 40.7935 10.2863C40.772 10.3506 40.7506 10.4148 40.7286 10.481C40.6637 10.3512 40.6637 10.3512 40.6999 10.225C40.7187 10.1783 40.7376 10.1316 40.757 10.0835C40.7756 10.0365 40.7943 9.98948 40.8135 9.94104C40.8283 9.90507 40.8431 9.86909 40.8584 9.83203Z" fill="#283031"/>
<path d="M22.4274 8.40625C22.4917 8.42767 22.5559 8.44908 22.6221 8.47115C22.5793 8.55681 22.5364 8.64248 22.4923 8.73074C22.4281 8.73074 22.3638 8.73074 22.2976 8.73074C22.3404 8.62366 22.3833 8.51658 22.4274 8.40625Z" fill="#FCF9E4"/>
<path d="M32.876 1.39844C32.9402 1.41985 33.0045 1.44127 33.0707 1.46334C33.1477 1.69453 33.1477 1.69453 33.2005 1.91762C33.1576 1.91762 33.1148 1.91762 33.0707 1.91762C32.876 1.54446 32.876 1.54446 32.876 1.39844Z" fill="#E7E7E5"/>
</svg>
