<svg width="50" height="28" viewBox="0 0 50 28" fill="none" xmlns="http://www.w3.org/2000/svg">
<path d="M21.1894 0.92262C21.2931 0.922475 21.3968 0.922269 21.5006 0.92199C23.0936 0.918105 24.6805 1.01326 26.268 1.13995C26.3227 1.14425 26.3774 1.14855 26.4337 1.15298C29.176 1.37151 31.3496 2.02736 33.5404 3.71899C33.6849 3.82991 33.8311 3.9386 33.9772 4.04737C34.6316 4.53474 35.2699 5.03773 35.8896 5.56837C36.0442 5.70047 36.1995 5.83167 36.3548 5.96296C36.397 5.99877 36.397 5.99877 36.4402 6.0353C36.5212 6.10393 36.6024 6.17241 36.6836 6.24089C36.7592 6.31324 36.7592 6.31324 36.8363 6.38705C37.2986 6.7217 37.9541 6.65411 38.5011 6.67663C38.9565 6.70161 39.2198 6.74639 39.5675 7.04861C39.7684 7.27585 39.9008 7.44088 39.8831 7.75931C39.7598 7.99642 39.5938 8.17805 39.3951 8.35583C39.3593 8.35583 39.3235 8.35583 39.2866 8.35583C39.2866 8.39162 39.2866 8.42741 39.2866 8.46429C39.3351 8.47671 39.3351 8.47671 39.3847 8.48939C39.8644 8.61591 40.3345 8.76864 40.805 8.92524C40.8479 8.93949 40.8907 8.95375 40.9349 8.96844C47.0744 11.0204 47.0744 11.0204 48.0176 12.7484C48.0047 12.8553 48.0047 12.8553 47.9634 12.9653C47.8332 13.0569 47.7085 13.1356 47.5702 13.2127C47.534 13.2337 47.4977 13.2546 47.4603 13.2762C47.3895 13.317 47.3185 13.3575 47.2473 13.3977C47.162 13.4465 47.0783 13.4979 46.9949 13.5498C46.8788 13.6161 46.8788 13.6161 46.7703 13.6161C46.7748 13.6607 46.7748 13.6607 46.7794 13.7062C46.8036 13.9455 46.8275 14.1848 46.8511 14.4242C46.8656 14.5709 46.8808 14.7172 46.8981 14.8636C46.9259 15.1084 46.9357 15.3519 46.9362 15.5982C46.9364 15.68 46.9364 15.68 46.9366 15.7634C46.9363 16.0057 46.9351 16.248 46.933 16.4902C47.7824 16.1295 47.7824 16.1295 48.6209 15.7446C48.677 15.718 48.7331 15.6914 48.7908 15.6641C49.0262 15.5126 49.1642 15.3127 49.3192 15.0803C49.9819 16.9408 50.3625 20.1322 49.4988 21.9911C49.1751 22.5773 48.7475 22.9771 48.1066 23.1856C47.5728 23.362 47.2929 23.4875 47.0256 24.0124C46.7258 24.5901 46.1991 24.9819 45.5881 25.186C45.5487 25.1976 45.5094 25.2092 45.4688 25.2211C45.4233 25.235 45.3778 25.2488 45.3309 25.2631C44.0399 25.6076 42.5246 25.6696 41.3306 25.0186C41.0479 24.8531 40.8157 24.6431 40.5881 24.4077C40.4822 24.2768 40.4822 24.2768 40.2848 24.2948C40.196 24.2989 40.1074 24.3039 40.0187 24.3094C39.9429 24.3136 39.9429 24.3136 39.8656 24.3178C39.4243 24.3441 38.9845 24.3842 38.5443 24.4246C37.1487 24.5525 35.7503 24.6448 34.3517 24.7331C34.285 24.7373 34.2183 24.7416 34.1495 24.7459C32.4901 24.8511 30.8352 24.9107 29.1727 24.9093C29.1349 24.9093 29.0971 24.9093 29.0582 24.9093C27.7293 24.9085 26.3963 24.9006 25.0728 24.7709C24.9579 24.7597 24.8429 24.7492 24.7279 24.7388C24.1724 24.6868 24.1724 24.6868 24.0479 24.6246C24.03 24.6895 24.0121 24.7543 23.9937 24.8212C23.7375 25.5838 23.2679 26.2201 22.5945 26.6578C22.0895 26.8958 21.5691 26.9371 21.0178 26.9666C20.9433 26.9709 20.8687 26.9751 20.7942 26.9794C20.5773 26.9913 20.3604 27.0013 20.1434 27.0107C20.0845 27.0133 20.0257 27.0159 19.9651 27.0186C19.0539 27.054 18.3457 26.9265 17.6344 26.3072C16.6298 25.2828 16.0794 23.7385 15.8592 22.347C15.8118 22.336 15.7644 22.3251 15.7156 22.3138C15.0259 22.1485 14.3524 21.9374 13.6764 21.7233C13.6154 21.7041 13.5544 21.6849 13.4915 21.665C12.4606 21.3399 11.4333 21.0053 10.4098 20.6578C10.2598 20.607 10.1097 20.5563 9.95964 20.5056C9.6763 20.4099 9.39302 20.314 9.1098 20.2179C8.99981 20.1806 8.88981 20.1434 8.77979 20.1061C8.08059 19.8693 7.38566 19.6232 6.69431 19.3644C6.68316 19.3993 6.672 19.4343 6.66051 19.4703C6.23874 20.7763 6.23874 20.7763 5.88086 21.1539C5.84689 21.1902 5.81291 21.2265 5.77791 21.2639C5.39427 21.6346 4.96082 21.7194 4.44037 21.7335C4.39351 21.7352 4.34666 21.7368 4.29838 21.7385C4.20289 21.7417 4.10739 21.7444 4.01188 21.7468C3.88389 21.7502 3.7561 21.7554 3.62819 21.761C3.07897 21.7801 2.72184 21.7097 2.2949 21.3607C1.58035 20.6885 1.23172 19.8111 1.00015 18.8763C0.991031 18.8397 0.98191 18.8032 0.972512 18.7655C0.903749 18.4749 0.86885 18.1932 0.851231 17.8955C0.844932 17.8039 0.838612 17.7123 0.832272 17.6208C0.822832 17.4783 0.813634 17.3359 0.804826 17.1934C0.796091 17.0546 0.786439 16.9158 0.776665 16.777C0.774286 16.7343 0.771908 16.6916 0.769457 16.6476C0.7559 16.4207 0.755899 16.4207 0.64902 16.2265C0.621726 16.2062 0.594432 16.1858 0.566311 16.1648C0.0354992 15.1307 0.000231668 13.9477 0.000284655 12.8094C0.000190719 12.7608 9.67823e-05 12.7121 0 12.662C0.000596177 11.9501 0.0445685 11.2534 0.146028 10.5487C0.154352 10.4905 0.154352 10.4905 0.162844 10.4311C0.225456 10.0048 0.307327 9.58413 0.404892 9.1644C0.413575 9.12704 0.422257 9.08969 0.431203 9.0512C0.610343 8.30716 0.89493 7.61055 1.54245 7.16279C1.8375 6.99958 2.14284 6.88867 2.46436 6.78996C3.10392 6.58145 3.56376 6.15657 4.03704 5.6986C4.07674 5.66106 4.11645 5.62352 4.15736 5.58484C4.35139 5.39736 4.52363 5.20169 4.69119 4.99023C4.99324 4.61333 5.33785 4.28042 5.68253 3.94287C5.84313 3.78549 6.00252 3.62746 6.15625 3.46333C7.76297 1.77572 9.82681 1.08157 12.1061 1.00545C12.2053 1.00205 12.2053 1.00205 12.3065 0.998576C13.0441 0.974802 13.7818 0.968331 14.5198 0.963493C14.6683 0.962392 14.8169 0.961233 14.9655 0.960078C15.275 0.957704 15.5846 0.955491 15.8942 0.953391C16.2057 0.951277 16.5172 0.949024 16.8287 0.946612C18.2822 0.935365 19.7358 0.924499 21.1894 0.92262Z" fill="#FEC909"/>
<path d="M35.8159 5.59375C36.0099 5.67918 36.1583 5.79748 36.3209 5.93268C36.3737 5.97609 36.4264 6.0195 36.4808 6.06423C36.5999 6.16528 36.7127 6.26933 36.8259 6.37668C37.2526 6.73658 37.9758 6.65862 38.5011 6.68024C38.9565 6.70523 39.2198 6.75 39.5675 7.05222C39.7684 7.27947 39.9008 7.4445 39.8831 7.76292C39.7598 8.00003 39.5938 8.18166 39.3951 8.35944C39.3593 8.35944 39.3235 8.35944 39.2866 8.35944C39.2866 8.39523 39.2866 8.43102 39.2866 8.4679C39.319 8.47618 39.3513 8.48447 39.3847 8.493C39.8644 8.61952 40.3345 8.77225 40.805 8.92885C40.8479 8.94311 40.8907 8.95736 40.9349 8.97205C47.0744 11.024 47.0744 11.024 48.0176 12.752C48.0047 12.8589 48.0047 12.8589 47.9634 12.9689C47.8332 13.0605 47.7085 13.1392 47.5702 13.2163C47.534 13.2373 47.4977 13.2582 47.4603 13.2798C47.3895 13.3206 47.3185 13.3611 47.2473 13.4013C47.162 13.4501 47.0783 13.5015 46.9949 13.5534C46.8788 13.6197 46.8788 13.6197 46.7703 13.6197C46.7703 13.7271 46.7703 13.8344 46.7703 13.9451C45.4039 14.429 43.8974 14.5819 42.4624 14.7449C42.3804 14.7543 42.3804 14.7543 42.2966 14.7639C41.3225 14.8684 40.3492 14.8758 39.3705 14.8761C39.2321 14.8762 39.0938 14.8764 38.9554 14.8766C38.6661 14.8769 38.3768 14.877 38.0874 14.877C37.7952 14.877 37.5029 14.8774 37.2107 14.8781C34.4027 14.8851 34.4027 14.8851 33.1696 14.8189C33.1296 14.8168 33.0896 14.8146 33.0483 14.8125C32.306 14.7717 31.5693 14.6996 30.8451 14.5265C30.7953 14.515 30.7455 14.5035 30.6942 14.4917C30.5383 14.4556 30.3825 14.419 30.2268 14.3823C29.2094 14.1448 28.1973 13.935 27.1643 13.7766C27.0037 13.7519 26.8431 13.727 26.6825 13.702C26.1124 13.6137 25.5422 13.5298 24.9699 13.457C24.9699 13.4212 24.9699 13.3854 24.9699 13.3485C24.9011 13.3451 24.8324 13.3417 24.7616 13.3382C24.2153 13.3018 23.8507 13.2633 23.4514 12.8605C23.3932 12.8236 23.3351 12.7867 23.2752 12.7486C23.1479 12.659 23.078 12.5927 22.9837 12.4741C22.8124 12.2667 22.7145 12.2267 22.4549 12.169C22.2316 12.116 22.0223 12.0337 21.811 11.9454C21.7469 11.9186 21.6829 11.8919 21.6169 11.8644C21.4506 11.7788 21.3458 11.7031 21.228 11.559C21.228 11.5232 21.228 11.4874 21.228 11.4505C21.1286 11.3895 21.1286 11.3895 21.0111 11.3421C20.9305 11.3689 20.9305 11.3689 20.8484 11.3963C20.2936 11.1189 19.9753 10.5178 19.7095 9.98632C19.7057 9.89375 19.705 9.80104 19.7061 9.70839C19.7066 9.65904 19.7071 9.60969 19.7076 9.55884C19.7083 9.52095 19.7089 9.48306 19.7095 9.44403C19.6737 9.44403 19.638 9.44403 19.6011 9.44403C19.6011 9.35364 19.6011 9.26326 19.6011 9.17288C20.6337 9.13219 21.6647 9.10921 22.6981 9.1034C22.8394 9.10244 22.9807 9.10145 23.122 9.10045C23.4183 9.09836 23.7146 9.0964 24.0109 9.09452C24.4749 9.09156 24.9389 9.08815 25.403 9.08463C25.4414 9.08433 25.4799 9.08404 25.5195 9.08374C25.7504 9.08198 25.9813 9.08021 26.2122 9.07843C26.3263 9.07756 26.4405 9.07668 26.5546 9.07581C29.049 9.05677 31.5415 9.01533 34.0349 8.94068C34.2028 8.93572 34.3708 8.93094 34.5387 8.92622C36.5587 8.93453 36.5587 8.93453 38.5274 8.57636C38.2145 7.99505 37.5604 7.57848 37.039 7.18928C37.0071 7.16523 36.9751 7.14118 36.9422 7.11641C36.8796 7.06941 36.8167 7.02278 36.7535 6.9766C36.5898 6.8537 36.494 6.75648 36.4124 6.56988C36.3325 6.48814 36.3325 6.48814 36.2429 6.42075C36.1915 6.38048 36.14 6.34022 36.087 6.29873C36.1049 6.26294 36.1228 6.22715 36.1413 6.19027C36.1055 6.17238 36.0697 6.15448 36.0328 6.13604C36.0507 6.02867 36.0686 5.92129 36.087 5.81067C35.9975 5.77488 35.9081 5.73908 35.8159 5.70221C35.8159 5.66642 35.8159 5.63063 35.8159 5.59375Z" fill="#FEC809"/>
<path d="M21.931 2.43546C22.2236 2.43545 22.5161 2.435 22.8087 2.43434C24.6463 2.43027 26.482 2.44174 28.3188 2.49698C28.3583 2.49815 28.3979 2.49933 28.4386 2.50054C28.7 2.50836 28.9614 2.51668 29.2228 2.5253C29.3195 2.52839 29.3195 2.52839 29.4181 2.53154C30.7093 2.57661 31.6216 2.78627 32.6291 3.61455C32.7812 3.73892 32.9361 3.85979 33.0908 3.98087C33.1371 4.01723 33.1371 4.01723 33.1843 4.05433C33.3617 4.19387 33.5398 4.33266 33.7183 4.47084C34.1548 4.80874 34.588 5.14972 35.0152 5.49923C35.2471 5.6887 35.4813 5.87461 35.7176 6.05853C35.9983 6.27732 36.2716 6.50349 36.5423 6.73454C36.7105 6.87798 36.8801 7.01896 37.053 7.15667C37.117 7.20763 37.117 7.20763 37.1822 7.25962C37.2667 7.32669 37.3513 7.3937 37.436 7.46049C38.2996 8.14278 38.2996 8.14278 38.5816 8.51918C38.5637 8.55497 38.5458 8.59076 38.5274 8.62764C38.1125 8.76146 37.672 8.8066 37.2397 8.84687C37.1653 8.85383 37.1653 8.85383 37.0895 8.86094C36.5691 8.90743 36.049 8.92749 35.527 8.94306C35.4241 8.94638 35.3213 8.94973 35.2184 8.9531C34.9455 8.96193 34.6725 8.97026 34.3996 8.97842C34.2274 8.98358 34.0551 8.98886 33.8829 8.99416C31.9781 9.05257 30.0738 9.09708 28.1682 9.11424C27.9894 9.11586 27.8107 9.11749 27.632 9.11912C26.5797 9.1287 25.5274 9.13767 24.475 9.1462C24.4371 9.14651 24.3992 9.14682 24.3601 9.14714C24.1344 9.14896 23.9086 9.15077 23.6828 9.15256C23.609 9.15314 23.5353 9.15372 23.4616 9.15431C23.072 9.1574 22.6823 9.16021 22.2927 9.16228C22.1599 9.16299 22.0271 9.16372 21.8944 9.16445C21.8312 9.16479 21.7681 9.16513 21.703 9.16549C21.3818 9.16753 21.0609 9.17149 20.7398 9.17959C20.6172 9.18267 20.4946 9.18515 20.372 9.18742C20.2363 9.19016 20.1006 9.19411 19.965 9.19974C19.4805 9.20758 19.2249 9.04342 18.873 8.72579C18.6196 8.43526 18.4311 8.13819 18.2589 7.79386C18.2315 7.74015 18.204 7.68644 18.1757 7.63111C17.91 7.10362 17.6722 6.56412 17.4355 6.02315C16.9381 4.88749 16.4169 3.75799 15.8004 2.68119C15.7661 2.62131 15.7319 2.56143 15.6965 2.49973C17.7748 2.44782 19.8522 2.43529 21.931 2.43546Z" fill="#222A2A"/>
<path d="M26.0544 13.5499C26.1831 13.569 26.3118 13.5881 26.4406 13.6071C26.8182 13.6632 27.1956 13.7214 27.5728 13.7803C27.6303 13.7892 27.6877 13.7981 27.7469 13.8072C28.5281 13.9282 29.2934 14.0853 30.0606 14.2752C30.2087 14.3114 30.3569 14.3475 30.5051 14.3835C30.5956 14.4056 30.6862 14.4278 30.7767 14.4501C31.2807 14.5738 31.7726 14.6654 32.2908 14.7022C32.3837 14.7092 32.3837 14.7092 32.4785 14.7162C34.0468 14.8267 35.6153 14.8276 37.1868 14.8248C37.5123 14.8243 37.8378 14.8244 38.1633 14.825C38.4835 14.8256 38.8038 14.8255 39.124 14.8252C39.2572 14.8251 39.3905 14.8252 39.5237 14.8255C40.8831 14.8275 42.224 14.722 43.5707 14.5396C43.6406 14.5301 43.7105 14.5207 43.7825 14.511C44.7385 14.3804 45.6737 14.2166 46.6077 13.9686C46.716 13.943 46.716 13.943 46.8245 13.943C46.8676 14.4725 46.898 15.0012 46.9067 15.5324C46.9084 15.6148 46.911 15.6972 46.9144 15.7795C46.9423 16.4627 46.9423 16.4627 46.7991 16.6504C46.6844 16.7229 46.5715 16.7687 46.4449 16.8172C46.3594 16.869 46.2747 16.9222 46.1907 16.9765C45.3585 17.4689 44.5404 17.6224 43.5947 17.7245C43.4546 17.7399 43.3147 17.7564 43.1748 17.773C41.3857 17.9863 39.5937 18.1338 37.7952 18.2373C37.7555 18.2396 37.7158 18.242 37.6749 18.2444C36.9095 18.2887 36.1588 18.3141 35.3989 18.1932C35.3375 18.1839 35.2761 18.1745 35.2128 18.1648C34.5555 18.0604 33.9061 17.9193 33.2574 17.7717C32.9839 17.7135 32.7239 17.678 32.444 17.6754C32.3461 17.6743 32.3461 17.6743 32.2463 17.6732C32.1761 17.6727 32.106 17.6721 32.0337 17.6715C31.9594 17.6707 31.8852 17.6698 31.811 17.6689C31.4978 17.6651 31.1846 17.6618 30.8714 17.659C29.6169 17.6473 28.3768 17.597 27.1356 17.4001C27.0991 17.3945 27.0626 17.3888 27.025 17.3829C26.4794 17.298 25.9354 17.2045 25.3927 17.1024C25.3194 17.0886 25.246 17.075 25.1725 17.0615C25.0707 17.0426 24.9689 17.0229 24.8673 17.0032C24.8096 16.9921 24.752 16.9811 24.6926 16.9697C24.1254 16.8103 23.7774 16.2925 23.4965 15.8086C23.2384 15.3294 23.1025 14.9248 23.0955 14.3803C23.0946 14.3366 23.0938 14.2929 23.093 14.2479C23.0981 13.9593 23.1542 13.793 23.3429 13.5634C23.9662 13.0157 25.3253 13.4385 26.0544 13.5499Z" fill="#21292A"/>
<path d="M19.323 14.5921C20.871 15.6751 21.382 17.8469 21.6937 19.5979C21.8016 20.2222 21.8755 20.8518 21.9472 21.481C22.0707 23.0231 22.0707 23.0231 22.8005 24.2992C23.0458 24.4229 23.3081 24.4542 23.5767 24.4957C23.622 24.503 23.6674 24.5103 23.7141 24.5178C23.8253 24.5356 23.9365 24.553 24.0478 24.5703C23.9377 25.3145 23.368 26.0993 22.7821 26.5412C22.5491 26.6863 22.3045 26.7735 22.0413 26.8479C22.01 26.8571 21.9786 26.8662 21.9464 26.8756C20.7665 27.1327 19.1021 27.2392 18.0452 26.6242C16.7318 25.7255 16.1411 23.8891 15.8589 22.3965C15.8178 22.1636 15.7817 21.9305 15.7506 21.6962C15.7459 21.6608 15.7411 21.6255 15.7362 21.5892C15.6956 21.2606 15.6877 20.9362 15.6873 20.6054C15.6871 20.5485 15.6869 20.4916 15.6867 20.4329C15.6865 20.3128 15.6863 20.1926 15.6863 20.0724C15.6862 19.8922 15.6852 19.7121 15.6842 19.532C15.6797 17.8672 15.7853 15.9873 16.9844 14.6993C17.7064 14.065 18.5382 14.0793 19.323 14.5921Z" fill="#212929"/>
<path d="M11.4217 2.10412C11.5641 2.10429 11.7065 2.10301 11.8489 2.10164C12.8758 2.09773 13.7586 2.23719 14.5387 2.96497C14.8137 3.2505 15.0489 3.54109 15.2492 3.88369C15.2723 3.92316 15.2954 3.96264 15.3191 4.00331C15.5876 4.47585 15.7946 4.97364 16.0035 5.47453C16.0782 5.65088 16.1557 5.82575 16.234 6.00053C16.6374 6.90759 16.9636 7.82664 17.2647 8.77147C17.3262 8.9625 17.3907 9.15227 17.4577 9.34145C17.511 9.52982 17.5097 9.68112 17.4862 9.87602C17.3376 10.0211 17.2298 10.061 17.0242 10.0588C16.7601 10.0507 16.523 9.99403 16.2688 9.92575C15.3677 9.68802 14.4831 9.67411 13.5558 9.6714C11.9228 9.66571 11.9228 9.66571 11.5209 9.33373C11.4105 9.16671 11.304 8.99544 11.304 8.79143C11.2637 8.78464 11.2234 8.77785 11.182 8.77085C10.4777 8.65163 9.77436 8.53082 9.07375 8.39149C8.33161 8.24455 7.5848 8.12695 6.83747 8.0098C6.55441 7.96516 6.27184 7.91798 5.98941 7.86954C5.94193 7.86161 5.89445 7.85368 5.84553 7.84551C5.70558 7.82164 5.56609 7.79598 5.42656 7.76976C5.385 7.76287 5.34344 7.75597 5.30063 7.74886C4.99243 7.68796 4.79291 7.55779 4.57943 7.32724C4.47523 7.11885 4.489 6.9027 4.5252 6.67649C4.74929 6.16309 5.1857 5.7349 5.55557 5.32076C5.6008 5.27008 5.64603 5.2194 5.69263 5.16718C5.76905 5.08214 5.84569 4.99729 5.92268 4.91277C6.0228 4.80161 6.12083 4.68915 6.21862 4.57596C7.24018 3.40766 8.29329 2.53314 9.83975 2.22969C9.88381 2.22008 9.92787 2.21046 9.97327 2.20055C10.4551 2.10573 10.9325 2.10289 11.4217 2.10412Z" fill="#212A2A"/>
<path d="M49.1564 19.4206C49.366 19.8242 49.3845 20.1932 49.3869 20.6374C49.3886 20.713 49.3886 20.713 49.3903 20.79C49.3922 21.1261 49.3547 21.3579 49.1365 21.6271C48.3377 22.3224 47.1425 22.4816 46.1297 22.6168C46.0309 22.6304 45.9321 22.644 45.8333 22.6576C42.6166 23.0949 39.3817 23.3817 36.1421 23.5805C35.9988 23.5893 35.8554 23.5984 35.7121 23.6075C34.692 23.672 33.6748 23.7152 32.6525 23.7145C32.6087 23.7145 32.5648 23.7145 32.5197 23.7144C31.7039 23.713 30.8887 23.6853 30.0744 23.6344C30.0286 23.6316 29.9828 23.6288 29.9355 23.6259C28.536 23.5391 27.1366 23.4409 25.7394 23.3218C25.6883 23.3175 25.6371 23.3132 25.5844 23.3087C25.3411 23.2875 25.1018 23.2616 24.8614 23.2167C24.8224 22.2921 24.9611 21.2237 25.5189 20.451C25.7335 20.2473 25.907 20.2697 26.1908 20.2771C26.5335 20.2974 26.8735 20.3362 27.2142 20.3775C27.2939 20.3869 27.3736 20.3962 27.4534 20.4055C27.6623 20.43 27.8712 20.4549 28.08 20.4799C28.2881 20.5048 28.4961 20.5292 28.7042 20.5536C29.3086 20.6248 29.9129 20.6962 30.5169 20.7707C30.5774 20.7781 30.6378 20.7856 30.7001 20.7932C30.8088 20.8066 30.9175 20.8201 31.0261 20.8338C31.6941 20.9158 32.3581 20.9473 33.0308 20.9463C33.1057 20.9463 33.1806 20.9464 33.2554 20.9464C33.4119 20.9465 33.5684 20.9464 33.7248 20.9461C33.9193 20.9458 34.1139 20.946 34.3084 20.9463C35.9722 20.9486 37.6292 20.8926 39.2895 20.7869C39.477 20.775 39.6645 20.7635 39.852 20.7519C40.1863 20.7312 40.5207 20.7101 40.855 20.6888C41.0742 20.6748 41.2935 20.6612 41.5128 20.6479C42.3739 20.5955 43.233 20.5336 44.0915 20.4473C44.261 20.4304 44.4306 20.4144 44.6002 20.3985C45.5363 20.3073 46.4454 20.1496 47.3499 19.8884C47.4065 19.8724 47.463 19.8564 47.5213 19.84C47.9075 19.729 48.2875 19.6049 48.6616 19.4581C48.9886 19.3335 48.9886 19.3335 49.1564 19.4206Z" fill="#222A2A"/>
<path d="M3.0204 11.7384C4.08224 12.7519 4.30188 14.2331 4.55283 15.6143C4.8299 17.4553 4.8299 17.4553 5.88104 18.9305C6.12311 19.0801 6.37922 19.198 6.64026 19.3101C6.54612 20.1454 6.19913 20.8854 5.57642 21.4537C5.22342 21.6718 4.84816 21.7224 4.44056 21.7335C4.3937 21.7352 4.34684 21.7368 4.29856 21.7385C4.20307 21.7417 4.10757 21.7444 4.01206 21.7468C3.88407 21.7502 3.75628 21.7554 3.62837 21.761C3.07915 21.7801 2.72202 21.7097 2.29508 21.3607C1.58176 20.6897 1.22926 19.8108 1.00033 18.8763C0.985955 18.8177 0.985955 18.8177 0.971286 18.7579C0.524742 16.8509 0.512776 14.1314 1.43778 12.3749C1.80055 11.7908 2.33193 11.4471 3.0204 11.7384Z" fill="#202828"/>
<path d="M18.9619 17.1906C19.7068 17.6487 20.0243 18.4453 20.2204 19.2628C20.2897 19.6086 20.3152 19.9423 20.317 20.2938C20.3173 20.3407 20.3176 20.3876 20.318 20.4359C20.3185 20.5349 20.3188 20.6338 20.319 20.7328C20.3196 20.8816 20.3212 21.0303 20.3229 21.179C20.3292 22.2044 20.1917 23.3827 19.4926 24.1915C19.2406 24.4444 19.0628 24.6112 18.696 24.6423C18.3585 24.6361 18.0922 24.4926 17.8589 24.2525C17.5223 23.8202 17.368 23.2728 17.2284 22.751C17.2177 22.7108 17.2069 22.6706 17.1958 22.6291C17.0278 21.9644 16.9777 21.3138 16.9779 20.6311C16.9776 20.4949 16.9757 20.3587 16.9736 20.2225C16.9672 19.2953 17.1013 18.2146 17.703 17.4671C18.0761 17.1061 18.4664 16.948 18.9619 17.1906Z" fill="#FDFBF3"/>
<path d="M24.5494 13.832C26.2619 13.9431 27.9673 14.3552 29.6473 14.6906C29.6871 14.6986 29.727 14.7065 29.7681 14.7147C29.8069 14.7225 29.8456 14.7302 29.8856 14.7382C29.9231 14.7457 29.9606 14.7532 29.9992 14.7609C30.1053 14.7824 30.2112 14.8048 30.3171 14.8272C30.4944 14.865 30.4944 14.865 30.6484 14.8786C30.8484 14.9025 30.9522 14.9335 31.0948 15.0807C31.2038 15.2266 31.3007 15.376 31.3962 15.5311C31.4663 15.6398 31.5364 15.7485 31.6065 15.8572C31.6567 15.9364 31.6567 15.9364 31.7078 16.0172C31.8665 16.2639 32.0402 16.4994 32.2128 16.7365C32.291 16.8699 32.291 16.8699 32.291 17.0868C32.1193 17.1727 31.9343 17.1522 31.7457 17.154C31.7006 17.1545 31.6555 17.1551 31.6091 17.1556C29.827 17.1721 28.076 17.0329 26.3155 16.7581C26.2723 16.7514 26.2291 16.7447 26.1846 16.7378C25.0436 16.558 25.0436 16.558 24.7945 16.3206C24.7674 16.2771 24.7403 16.2335 24.7123 16.1887C24.6822 16.1409 24.6521 16.093 24.621 16.0438C24.4927 15.8172 24.3716 15.5892 24.2649 15.3515C24.245 15.3104 24.2251 15.2693 24.2046 15.227C24.1414 15.0343 24.1365 14.8505 24.1361 14.6499C24.1348 14.6125 24.1335 14.5751 24.1321 14.5365C24.1305 14.2572 24.2011 14.1035 24.3734 13.8873C24.4276 13.8331 24.4276 13.8331 24.5494 13.832Z" fill="#FDFAF1"/>
<path d="M2.73072 14.072C2.96531 14.1435 3.09827 14.3394 3.22366 14.5404C3.87512 15.8235 3.84351 17.6729 3.43317 19.028C3.32156 19.3488 3.24297 19.5535 2.95251 19.7464C2.75242 19.7797 2.6643 19.7706 2.49388 19.6593C2.33538 19.5101 2.24714 19.3541 2.15601 19.16C2.10871 19.0639 2.10871 19.0639 2.06047 18.9658C1.76092 18.2693 1.73995 17.4891 1.74233 16.7406C1.7425 16.6282 1.74122 16.5158 1.73985 16.4034C1.73608 15.6096 1.83057 14.8488 2.29158 14.1811C2.43587 14.0904 2.56014 14.0628 2.73072 14.072Z" fill="#FCFAF2"/>
<path d="M47.2585 23.4336C47.2853 23.4873 47.2853 23.4873 47.3127 23.5421C47.0568 24.2156 46.5216 24.7832 45.878 25.0933C44.6928 25.5598 42.9619 25.7424 41.7726 25.2414C41.2659 25.0101 40.7947 24.7194 40.4797 24.247C40.5126 24.2439 40.5455 24.2408 40.5793 24.2376C42.2188 24.0817 43.8538 23.9087 45.4859 23.6878C45.5566 23.6782 45.6274 23.6687 45.7003 23.6588C46.4809 23.5561 46.4809 23.5561 47.2585 23.4336Z" fill="#212928"/>
<path d="M37.1174 6.56641C37.1628 6.57091 37.1628 6.57091 37.2091 6.5755C37.3514 6.58955 37.4937 6.6034 37.636 6.61725C37.6877 6.62236 37.7393 6.62747 37.7926 6.63274C38.0282 6.6555 38.2631 6.67694 38.4997 6.68652C39.0267 6.70823 39.2878 6.76765 39.6595 7.15276C39.8224 7.35099 39.8978 7.49523 39.8832 7.75945C39.7456 8.0404 39.5276 8.21935 39.2866 8.4102C39.039 8.2525 38.8191 8.07818 38.5986 7.88485C38.5316 7.82676 38.4645 7.76872 38.3973 7.71073C38.3644 7.68222 38.3314 7.65372 38.2974 7.62435C37.9429 7.32023 37.5785 7.02935 37.2032 6.75134C37.1749 6.7261 37.1466 6.70087 37.1174 6.67486C37.1174 6.63907 37.1174 6.60328 37.1174 6.56641Z" fill="#1F2627"/>
<path d="M9.37876 10.2461C9.45336 10.2599 9.45336 10.2599 9.52948 10.2739C9.58407 10.2837 9.63867 10.2934 9.69492 10.3035C9.75161 10.3149 9.80831 10.3263 9.86672 10.3381C9.92341 10.3481 9.98011 10.358 10.0385 10.3683C10.5307 10.4606 10.5307 10.4606 10.7073 10.633C10.7386 10.8757 10.7314 11.0076 10.6395 11.2329C10.3868 11.4109 10.132 11.3341 9.83961 11.2837C9.78032 11.2747 9.72104 11.2656 9.65997 11.2562C9.24757 11.1764 9.24757 11.1764 9.09797 11.0355C9.00652 10.8909 8.97192 10.7659 8.97192 10.5957C9.05719 10.3985 9.15413 10.2582 9.37876 10.2461Z" fill="#1F262B"/>
<path d="M18.6792 8.35547C18.7139 8.39238 18.7485 8.42929 18.7843 8.46732C18.8099 8.49182 18.8355 8.51632 18.8619 8.54157C18.9503 8.62661 18.9503 8.62661 19.0379 8.72432C19.3362 9.01278 19.619 9.04553 20.0167 9.04362C20.1598 9.04085 20.3027 9.03622 20.4457 9.03164C20.5503 9.02976 20.6549 9.02809 20.7595 9.0266C20.9897 9.02311 21.2199 9.01861 21.4501 9.0135C21.8419 9.00528 22.2336 9.00204 22.6254 8.99965C22.6944 8.99923 22.7634 8.9988 22.8345 8.99836C22.9769 8.99749 23.1194 8.99662 23.2618 8.99577C23.6324 8.99345 24.0029 8.99015 24.3735 8.98694C24.4493 8.98629 24.525 8.98565 24.6008 8.985C24.9042 8.98241 25.2075 8.97979 25.5109 8.97713C26.0348 8.97254 26.5586 8.96808 27.0825 8.96385C27.1192 8.96356 27.1559 8.96326 27.1936 8.96295C28.8927 8.94927 30.5918 8.94905 32.291 8.95199C32.291 8.96989 32.291 8.98778 32.291 9.00622C31.5781 9.07243 30.8642 9.07753 30.1489 9.08756C30.0422 9.08916 30.0422 9.08916 29.9334 9.09078C28.1523 9.11727 26.3711 9.13007 24.5899 9.14427C24.4755 9.14518 24.3612 9.1461 24.2468 9.14702C24.0592 9.14853 23.8716 9.15002 23.6839 9.15151C23.6102 9.15209 23.5364 9.15268 23.4626 9.15327C23.0726 9.15637 22.6826 9.15919 22.2926 9.16126C22.1599 9.16197 22.0271 9.1627 21.8944 9.16343C21.7997 9.16394 21.7997 9.16394 21.703 9.16446C21.3819 9.16651 21.0609 9.17047 20.7398 9.17857C20.6172 9.18165 20.4946 9.18413 20.372 9.1864C20.2363 9.18913 20.1006 9.19308 19.965 9.19872C19.5582 9.2053 19.3108 9.11382 19.0046 8.84353C18.6792 8.51333 18.6792 8.51333 18.6792 8.35547Z" fill="#110F35"/>
<path d="M4.37928 9.15625C4.45143 9.16611 4.45143 9.16611 4.52503 9.17616C4.60378 9.18665 4.60378 9.18665 4.68412 9.19735C4.73899 9.20601 4.79387 9.21468 4.85041 9.22361C4.90584 9.23116 4.96128 9.23871 5.01839 9.24649C5.32226 9.29293 5.32226 9.29293 5.44694 9.33207C5.56475 9.50878 5.56818 9.53925 5.54523 9.73879C5.54111 9.78073 5.53698 9.82268 5.53273 9.86589C5.49447 10.0076 5.45368 10.0556 5.33848 10.1455C5.15694 10.1643 4.97716 10.1353 4.79618 10.115C4.74655 10.1109 4.69691 10.1068 4.64577 10.1026C4.5981 10.0977 4.55042 10.0928 4.5013 10.0877C4.43598 10.081 4.43598 10.081 4.36933 10.0742C4.21726 10.0253 4.17211 9.95503 4.09119 9.82013C4.06958 9.71168 4.06958 9.71168 4.07085 9.60322C4.07043 9.56743 4.07001 9.53164 4.06958 9.49476C4.10796 9.3021 4.17564 9.17758 4.37928 9.15625Z" fill="#20252D"/>
<path d="M29.105 17.0335C30.127 17.1308 31.1568 17.1281 32.1826 17.1454C32.1826 17.1812 32.1826 17.217 32.1826 17.2538C32.1456 17.2537 32.1085 17.2536 32.0704 17.2535C31.686 17.2523 31.3016 17.2515 30.9172 17.2509C30.7736 17.2506 30.6301 17.2502 30.4865 17.2498C30.2804 17.2491 30.0743 17.2488 29.8682 17.2485C29.8038 17.2483 29.7394 17.248 29.6731 17.2477C29.6134 17.2477 29.5537 17.2477 29.4922 17.2477C29.4395 17.2476 29.3869 17.2474 29.3327 17.2473C29.1924 17.2482 29.1924 17.2482 29.0372 17.3081C29.0372 17.3439 29.0372 17.3797 29.0372 17.4165C28.9477 17.4344 28.8583 17.4523 28.7661 17.4708C28.7661 17.4887 28.7661 17.5065 28.7661 17.525C28.2925 17.5468 27.8387 17.513 27.3696 17.4504C27.3167 17.4436 27.2637 17.4367 27.2091 17.4297C27.1595 17.4227 27.1098 17.4157 27.0587 17.4085C26.9918 17.3991 26.9918 17.3991 26.9236 17.3895C26.8138 17.3623 26.8138 17.3623 26.7053 17.2538C26.9917 17.2717 27.278 17.2896 27.573 17.3081C27.573 17.2365 27.573 17.1649 27.573 17.0912C27.9642 16.8303 28.6524 16.9901 29.105 17.0335Z" fill="#131817"/>
<path d="M21.2368 0.924077C21.3464 0.923863 21.456 0.923563 21.5656 0.923169C21.7142 0.922671 21.8627 0.922528 22.0113 0.922494C22.054 0.92229 22.0968 0.922086 22.1408 0.921875C22.3666 0.922281 22.5793 0.938568 22.8007 0.982853C22.8007 1.00075 22.8007 1.01864 22.8007 1.03708C21.1298 1.07322 19.4599 1.09521 17.7886 1.09157C16.5006 1.08885 15.213 1.09162 13.9251 1.11013C13.8182 1.11161 13.7113 1.1129 13.6044 1.11419C12.9971 1.12173 12.3909 1.13079 11.7851 1.17567C11.7488 1.17835 11.7125 1.18103 11.6751 1.18379C11.5001 1.19695 11.3253 1.21119 11.1505 1.22668C11.0885 1.23175 11.0264 1.23683 10.9625 1.24206C10.9079 1.24695 10.8533 1.25185 10.797 1.25689C10.6448 1.25383 10.5645 1.22461 10.4363 1.14554C10.993 1.06969 11.5471 1.02604 12.1088 1.00744C12.1747 1.00519 12.2406 1.00293 12.3086 1.00061C13.0456 0.976962 13.7825 0.970529 14.5198 0.965695C14.6684 0.964594 14.817 0.963435 14.9656 0.96228C15.2751 0.959907 15.5847 0.957693 15.8943 0.955593C16.2058 0.953479 16.5173 0.951227 16.8288 0.948815C18.2981 0.937446 19.7674 0.926627 21.2368 0.924077Z" fill="#FEBD0F"/>
<path d="M33.3755 3.74609C33.6601 3.76904 33.8331 3.92224 34.05 4.09181C34.0879 4.1209 34.1259 4.15 34.165 4.17998C34.2819 4.26981 34.3982 4.36034 34.5143 4.45107C34.5666 4.49173 34.5666 4.49173 34.62 4.53321C35.0216 4.84551 35.4194 5.16263 35.8158 5.48143C35.6169 5.54776 35.4296 5.60032 35.2193 5.58989C35.0769 5.50823 34.9794 5.43947 34.86 5.3323C34.7947 5.27718 34.7293 5.2221 34.6639 5.16707C34.6306 5.13844 34.5974 5.10982 34.5631 5.08032C34.3619 4.9105 34.1509 4.75293 33.9418 4.59306C33.7969 4.48028 33.6953 4.38845 33.5924 4.23416C33.6461 4.23416 33.6998 4.23416 33.7551 4.23416C33.7551 4.19837 33.7551 4.16257 33.7551 4.1257C33.7014 4.1078 33.6477 4.08991 33.5924 4.07147C33.5738 3.9993 33.5557 3.92699 33.5382 3.85455C33.4845 3.81876 33.4308 3.78297 33.3755 3.74609Z" fill="#FDC50A"/>
<path d="M10.9243 2.93359C10.9958 2.93359 11.0674 2.93359 11.1412 2.93359C11.1069 3.23079 11.0373 3.50318 10.9488 3.78855C10.9282 3.8563 10.9282 3.8563 10.9072 3.92542C10.8635 4.0694 10.8193 4.21326 10.7751 4.35711C10.3502 5.73729 10.3502 5.73729 10.0396 7.14653C10.0305 7.1962 10.0214 7.24586 10.012 7.29704C9.99035 7.41514 9.96918 7.53333 9.94812 7.65154C9.84075 7.67838 9.84075 7.67838 9.7312 7.70577C9.75039 7.15146 9.89234 6.6299 10.0295 6.09584C10.0538 5.99996 10.0781 5.90409 10.1023 5.80821C10.2603 5.18797 10.4257 4.56993 10.5989 3.95378C10.6091 3.91722 10.6194 3.88067 10.63 3.843C10.8072 3.21336 10.8072 3.21336 10.9243 2.93359Z" fill="#EED90C"/>
<path d="M30.447 14.4297C30.7981 14.4634 31.1363 14.5202 31.4807 14.5958C31.5277 14.6059 31.5746 14.616 31.623 14.6264C31.7372 14.651 31.8513 14.6759 31.9654 14.7008C31.9654 14.7187 31.9654 14.7366 31.9654 14.7551C31.6692 14.7604 31.391 14.7427 31.0977 14.7008C31.1163 15.0487 31.2397 15.2404 31.4468 15.5143C31.5059 15.5953 31.565 15.6763 31.6239 15.7575C31.6537 15.7981 31.6836 15.8388 31.7143 15.8806C31.8503 16.0678 31.9815 16.258 32.1111 16.4497C32.134 16.4827 32.1569 16.5156 32.1804 16.5495C32.3 16.7269 32.3755 16.8731 32.3992 17.0869C32.3456 17.1227 32.2919 17.1585 32.2366 17.1954C32.2402 17.1475 32.2438 17.0997 32.2476 17.0504C32.2346 16.8386 32.1837 16.7566 32.0601 16.5864C32.0227 16.5338 31.9852 16.4813 31.9467 16.4272C31.907 16.3731 31.8673 16.319 31.8264 16.2633C31.7494 16.1564 31.6725 16.0494 31.5958 15.9424C31.5575 15.8898 31.5192 15.8372 31.4798 15.7831C31.3699 15.6242 31.2752 15.461 31.1791 15.2935C31.0592 15.1024 30.979 14.9927 30.7624 14.9205C30.686 14.9047 30.609 14.8913 30.5317 14.8805C30.492 14.8728 30.4524 14.8652 30.4115 14.8573C30.3152 14.839 30.2184 14.8238 30.1216 14.8093C30.1216 14.7914 30.1216 14.7735 30.1216 14.7551C30.2111 14.7372 30.3005 14.7193 30.3927 14.7008C30.3927 14.665 30.3927 14.6293 30.3927 14.5924C30.4285 14.5924 30.4643 14.5924 30.5012 14.5924C30.4833 14.5387 30.4654 14.485 30.447 14.4297Z" fill="#181C27"/>
<path d="M49.7531 17.9023C49.8616 18.0108 49.8616 18.0108 49.8747 18.1661C49.8744 18.2644 49.8744 18.2644 49.8741 18.3648C49.8741 18.4004 49.8741 18.436 49.8741 18.4726C49.8739 18.5887 49.8729 18.7048 49.8717 18.8209C49.8713 18.9004 49.8709 18.98 49.8704 19.0596C49.8592 20.6802 49.8592 20.6802 49.6989 21.373C49.6631 21.3014 49.6273 21.2299 49.5904 21.1561C49.5367 21.2098 49.483 21.2635 49.4277 21.3188C49.4456 20.9251 49.4635 20.5314 49.482 20.1257C49.5357 20.1615 49.5893 20.1973 49.6447 20.2342C49.6968 19.9672 49.7102 19.709 49.716 19.4381C49.7172 19.3941 49.7183 19.35 49.7195 19.3046C49.723 19.1648 49.7262 19.025 49.7294 18.8852C49.7317 18.7901 49.7341 18.6949 49.7365 18.5997C49.7423 18.3673 49.7478 18.1348 49.7531 17.9023Z" fill="#FDC213"/>
<path d="M24.8071 13.4524C25.256 13.4361 25.677 13.4842 26.1188 13.5608C26.1808 13.5712 26.2428 13.5815 26.3066 13.5922C26.4576 13.6175 26.6085 13.6432 26.7594 13.6693C26.7594 13.7051 26.7594 13.7409 26.7594 13.7777C26.6699 13.7777 26.5805 13.7777 26.4883 13.7777C26.5062 13.8493 26.5241 13.9209 26.5425 13.9947C26.8109 14.0484 27.0794 14.102 27.3559 14.1574C27.3559 14.1752 27.3559 14.1931 27.3559 14.2116C26.9909 14.2255 26.6563 14.1726 26.2985 14.1031C26.2435 14.0928 26.1886 14.0824 26.132 14.0718C25.9976 14.0464 25.8633 14.0207 25.729 13.9947C25.8006 13.9589 25.8722 13.9231 25.946 13.8862C25.946 13.8504 25.946 13.8146 25.946 13.7777C25.8565 13.7956 25.767 13.8135 25.6748 13.832C25.6748 13.7783 25.6748 13.7246 25.6748 13.6693C25.7643 13.6693 25.8538 13.6693 25.946 13.6693C25.5701 13.6156 25.1943 13.5619 24.8071 13.5066C24.8071 13.4887 24.8071 13.4708 24.8071 13.4524Z" fill="#131727"/>
<path d="M46.7702 20.1267C46.0305 20.8663 43.2193 20.7004 42.2148 20.7232C42.2148 20.7053 42.2148 20.6874 42.2148 20.669C42.772 20.5778 43.33 20.5064 43.892 20.4529C43.9398 20.4483 43.9877 20.4438 44.0371 20.4391C44.279 20.4162 44.521 20.394 44.763 20.3726C45.2479 20.3284 45.7252 20.2726 46.2033 20.179C46.3953 20.1418 46.5745 20.1184 46.7702 20.1267Z" fill="#1B1734"/>
<path d="M37.009 6.62109C37.2631 6.70119 37.4374 6.85035 37.6327 7.02442C37.7001 7.08333 37.7675 7.14222 37.835 7.20109C37.869 7.23096 37.903 7.26083 37.938 7.2916C38.0937 7.42777 38.251 7.56187 38.4089 7.69551C38.4377 7.72 38.4666 7.74448 38.4964 7.76971C38.7365 7.97222 38.9821 8.16685 39.2325 8.35643C39.1788 8.38327 39.1788 8.38327 39.124 8.41066C39.0152 8.33199 38.9068 8.25286 38.7986 8.17341C38.7521 8.13985 38.7521 8.13985 38.7046 8.10562C38.6255 8.04723 38.5491 7.98514 38.4732 7.9226C38.4732 7.8868 38.4732 7.85101 38.4732 7.81414C38.4285 7.79453 38.4285 7.79453 38.3828 7.77452C38.2276 7.69005 38.1034 7.58556 37.9682 7.47182C37.7447 7.28607 37.5194 7.11127 37.2802 6.94647C37.3339 7.027 37.3339 7.027 37.3886 7.10916C37.3529 7.14495 37.3171 7.18074 37.2802 7.21762C37.316 7.2892 37.3518 7.36078 37.3886 7.43453C37.1071 7.2283 36.8379 7.01363 36.5752 6.78378C36.7691 6.78378 36.8492 6.8428 37.009 6.94647C37.0448 6.89278 37.0806 6.8391 37.1175 6.78378C37.0817 6.76589 37.0459 6.74799 37.009 6.72955C37.009 6.69376 37.009 6.65797 37.009 6.62109Z" fill="#F3E509"/>
<path d="M18.7876 14.2695C19.3145 14.333 19.811 14.8163 20.1406 15.2067C20.6468 15.8777 21.1152 16.6919 21.2822 17.5233C21.2643 17.577 21.2464 17.6307 21.228 17.686C21.2167 17.6569 21.2054 17.6278 21.1938 17.5979C20.6239 16.136 20.6239 16.136 19.6553 14.9203C19.6276 14.8942 19.5999 14.8681 19.5714 14.8413C19.3319 14.6243 19.0745 14.4708 18.7876 14.3238C18.7876 14.3059 18.7876 14.288 18.7876 14.2695Z" fill="#F3E508"/>
<path d="M11.4124 9.00781C11.4493 9.0492 11.4862 9.09058 11.5242 9.13322C12.0203 9.58707 12.743 9.50147 13.3767 9.52108C13.4999 9.52533 13.6231 9.52961 13.7463 9.5339C13.938 9.54043 14.1297 9.54679 14.3214 9.55279C14.5082 9.55871 14.6949 9.56527 14.8816 9.57192C14.9392 9.57357 14.9968 9.57521 15.0562 9.5769C15.1361 9.57988 15.1361 9.57988 15.2176 9.58293C15.2878 9.58521 15.2878 9.58521 15.3594 9.58754C15.4796 9.60433 15.4796 9.60433 15.6423 9.71279C15.2314 9.70774 14.8205 9.70192 14.4097 9.69558C14.2702 9.69352 14.1307 9.69163 13.9912 9.68991C13.7896 9.68741 13.5879 9.68427 13.3862 9.68102C13.2943 9.68008 13.2943 9.68008 13.2004 9.67912C11.952 9.65657 11.952 9.65657 11.5208 9.33319C11.4124 9.1705 11.4124 9.1705 11.4124 9.00781Z" fill="#191533"/>
<path d="M18.9504 14.4297C19.6977 14.6463 20.1612 15.3218 20.5264 15.9695C21.2808 17.3554 21.2808 17.3554 21.2281 17.9004C21.1196 17.8461 21.1196 17.8461 21.0805 17.7409C21.0624 17.6736 21.0624 17.6736 21.044 17.6049C20.7223 16.4713 20.1981 15.2999 19.1674 14.6466C19.0956 14.6094 19.0234 14.5729 18.9504 14.5381C18.9504 14.5024 18.9504 14.4666 18.9504 14.4297Z" fill="#131234"/>
<path d="M22.7463 12.4766C23.0245 12.5029 23.211 12.6441 23.4344 12.7985C23.471 12.8233 23.5077 12.848 23.5455 12.8734C23.6878 12.9702 23.8174 13.0595 23.9394 13.1815C24.0758 13.2118 24.0758 13.2118 24.2347 13.2277C24.3223 13.2382 24.3223 13.2382 24.4116 13.2489C24.5033 13.2592 24.5033 13.2592 24.5969 13.2697C24.6893 13.2806 24.6893 13.2806 24.7836 13.2917C24.936 13.3096 25.0884 13.3271 25.2409 13.3442C25.2409 13.3621 25.2409 13.38 25.2409 13.3985C25.1966 13.3976 25.1523 13.3968 25.1067 13.3959C24.9051 13.3925 24.7036 13.3904 24.502 13.3883C24.4323 13.3869 24.3626 13.3856 24.2908 13.3842C24.2234 13.3836 24.1559 13.3831 24.0864 13.3826C24.0245 13.3817 23.9626 13.3809 23.8988 13.38C23.6252 13.4087 23.4515 13.498 23.2725 13.7056C23.1623 13.9216 23.1331 14.1019 23.1124 14.3407C23.1082 14.3806 23.104 14.4205 23.0997 14.4616C23.0896 14.5591 23.0805 14.6566 23.0717 14.7542C23.0538 14.7542 23.0359 14.7542 23.0175 14.7542C22.9673 13.8983 22.9673 13.8983 23.1959 13.5965C23.3699 13.4285 23.5677 13.3018 23.7767 13.1815C23.7205 13.1443 23.6643 13.107 23.6064 13.0686C23.5321 13.0193 23.4578 12.9699 23.3835 12.9206C23.3466 12.8961 23.3096 12.8716 23.2715 12.8463C23.0928 12.7275 22.916 12.6082 22.7463 12.4766Z" fill="#F8EA05"/>
<path d="M28.7117 14.0508C29.1277 14.0741 29.5067 14.1453 29.9048 14.2677C29.9048 14.2856 29.9048 14.3035 29.9048 14.3219C29.6136 14.2949 29.325 14.2665 29.0371 14.2135C28.9834 14.294 28.9834 14.294 28.9287 14.3762C28.618 14.5833 28.247 14.4775 27.8985 14.4105C27.8626 14.3991 27.8268 14.3878 27.7898 14.3762C27.7719 14.3404 27.754 14.3046 27.7356 14.2677C27.9325 14.2856 28.1293 14.3035 28.3321 14.3219C28.3321 14.2861 28.3321 14.2503 28.3321 14.2135C28.4574 14.1777 28.5827 14.1419 28.7117 14.105C28.7117 14.0871 28.7117 14.0692 28.7117 14.0508Z" fill="#161B27"/>
<path d="M49.0481 19.3672C49.2294 19.4578 49.2548 19.6168 49.3193 19.801C49.3858 20.0832 49.3835 20.3565 49.3837 20.645C49.3843 20.6962 49.385 20.7475 49.3857 20.8003C49.3859 20.8745 49.3859 20.8745 49.386 20.9502C49.3862 20.9951 49.3865 21.0399 49.3867 21.0861C49.3723 21.2221 49.3332 21.3104 49.2651 21.4279C49.2121 21.269 49.2058 21.1741 49.2093 21.0093C49.2101 20.959 49.2108 20.9087 49.2116 20.8568C49.2124 20.8037 49.2133 20.7506 49.2142 20.6958C49.2183 20.2785 49.2112 19.8817 49.1024 19.4756C49.0239 19.5059 49.0239 19.5059 48.9439 19.5369C48.8747 19.5628 48.8055 19.5887 48.7363 19.6146C48.7019 19.628 48.6675 19.6414 48.6321 19.6552C48.4456 19.7241 48.3148 19.7721 48.1262 19.6926C48.2313 19.6484 48.3363 19.6044 48.4414 19.5604C48.4999 19.5358 48.5585 19.5113 48.6187 19.486C48.9098 19.3672 48.9098 19.3672 49.0481 19.3672Z" fill="#161433"/>
<path d="M4.97428 9.13551C5.40946 9.19678 5.40946 9.19678 5.54348 9.29545C5.67143 9.47245 5.68621 9.66172 5.66401 9.87523C5.58815 10.0466 5.50019 10.1584 5.33863 10.2548C5.16668 10.2696 5.01676 10.2446 4.85056 10.2006C4.85056 10.1827 4.85056 10.1648 4.85056 10.1464C4.90058 10.1452 4.90058 10.1452 4.95161 10.144C5.23281 10.1338 5.23281 10.1338 5.45048 9.97352C5.51923 9.76729 5.54657 9.58612 5.44709 9.38717C5.29733 9.35214 5.15121 9.32359 4.9997 9.29905C4.95824 9.29178 4.91679 9.28451 4.87408 9.27702C4.56527 9.2198 4.56527 9.2198 4.25403 9.22448C4.1382 9.39822 4.13303 9.44245 4.13879 9.64137C4.13977 9.6852 4.14075 9.72903 4.14176 9.77419C4.14302 9.80753 4.14428 9.84088 4.14557 9.87523C4.10978 9.87523 4.07399 9.87523 4.03711 9.87523C3.95304 9.7071 3.96716 9.57269 3.98288 9.38717C4.16889 8.97088 4.59327 9.09378 4.97428 9.13551Z" fill="#FFD700"/>
<path d="M34.1348 4.88672C34.4196 4.97167 34.6145 5.15539 34.8364 5.34428C34.9186 5.41327 35.001 5.48218 35.0834 5.55103C35.1244 5.58535 35.1654 5.61967 35.2077 5.65504C35.3817 5.79897 35.5595 5.93793 35.7379 6.07637C36.007 6.28567 36.2687 6.50105 36.5209 6.73051C36.3037 6.73051 36.2476 6.6532 36.0837 6.5136C36.0302 6.46865 35.9767 6.4237 35.9216 6.37739C35.8688 6.33286 35.816 6.28833 35.7617 6.24245C35.6761 6.17318 35.5902 6.10425 35.5041 6.0357C35.4605 6.00089 35.417 5.96608 35.3721 5.93021C35.2529 5.83535 35.1336 5.74079 35.0141 5.64635C34.9413 5.58859 34.8685 5.53083 34.7957 5.47307C34.7441 5.43246 34.7441 5.43246 34.6914 5.39103C34.4928 5.2332 34.3105 5.06978 34.1348 4.88672Z" fill="#131135"/>
<path d="M9.08032 8.30078C9.49749 8.31805 9.9009 8.37975 10.3107 8.45669C10.3821 8.46982 10.3821 8.46982 10.455 8.48322C10.6879 8.52826 10.9178 8.58038 11.1455 8.64692C11.1851 8.65846 11.2248 8.67 11.2656 8.6819C11.358 8.73462 11.358 8.73462 11.3984 8.84855C11.4029 8.88254 11.4075 8.91652 11.4122 8.95153C11.3764 8.93364 11.3406 8.91574 11.3038 8.8973C11.3038 8.86151 11.3038 8.82572 11.3038 8.78884C11.237 8.77738 11.237 8.77738 11.1689 8.76568C11.0008 8.73679 10.8327 8.70788 10.6646 8.67896C10.5573 8.66049 10.4499 8.64205 10.3425 8.62361C10.2042 8.59979 10.0658 8.57581 9.92754 8.55164C9.80128 8.52983 9.67491 8.50869 9.5484 8.48841C9.46738 8.47502 9.46738 8.47502 9.38473 8.46135C9.31377 8.45007 9.31377 8.45007 9.24138 8.43855C9.1885 8.42404 9.1885 8.42404 9.13455 8.40924C9.11666 8.37345 9.09876 8.33766 9.08032 8.30078Z" fill="#1D1834"/>
<path d="M2.3017 11.7758C2.19324 11.8843 2.19324 11.8843 2.06106 11.9893C1.92551 12.0929 1.92551 12.0929 1.83397 12.1961C1.7594 12.2639 1.7594 12.2639 1.59671 12.2639C1.57511 12.3304 1.57511 12.3304 1.55308 12.3982C1.47949 12.6151 1.39975 12.8292 1.31878 13.0434C1.30375 13.0833 1.28872 13.1232 1.27324 13.1644C1.23651 13.2619 1.1997 13.3594 1.16287 13.4569C1.14498 13.4569 1.12708 13.4569 1.10864 13.4569C1.11847 12.8871 1.37787 12.353 1.77635 11.9487C1.96548 11.7744 2.0478 11.6996 2.3017 11.7758Z" fill="#171830"/>
<path d="M4.19971 14.3242C4.2355 14.3242 4.27129 14.3242 4.30817 14.3242C4.31774 14.3757 4.32731 14.4271 4.33718 14.4801C4.37279 14.6713 4.40848 14.8625 4.44421 15.0537C4.45964 15.1364 4.47505 15.2191 4.49044 15.3018C4.51259 15.4208 4.53482 15.5398 4.55707 15.6588C4.56391 15.6956 4.57075 15.7324 4.57779 15.7704C4.60388 15.9095 4.63058 16.0477 4.66511 16.1851C4.69441 16.3032 4.69295 16.4126 4.69117 16.5341C4.69068 16.5774 4.69019 16.6207 4.68968 16.6654C4.68906 16.6981 4.68843 16.7308 4.68778 16.7645C4.66988 16.7645 4.65199 16.7645 4.63355 16.7645C4.58022 16.4955 4.52716 16.2264 4.47434 15.9573C4.45637 15.8659 4.43833 15.7745 4.42022 15.6832C4.39404 15.5512 4.36814 15.4191 4.34227 15.287C4.33425 15.2468 4.32623 15.2066 4.31796 15.1652C4.26358 14.8857 4.22825 14.6076 4.19971 14.3242Z" fill="#1C1934"/>
<path d="M27.9899 16.9742C28.0556 16.9756 28.0556 16.9756 28.1227 16.9771C28.1727 16.979 28.1727 16.979 28.2238 16.981C28.1356 17.1436 28.1356 17.1436 28.0068 17.3063C27.834 17.3233 27.834 17.3233 27.6815 17.3063C27.6636 17.3242 27.6457 17.3421 27.6272 17.3606C27.6988 17.3785 27.7704 17.3964 27.8442 17.4148C27.4488 17.4283 27.09 17.3998 26.7053 17.3063C26.7053 17.2884 26.7053 17.2705 26.7053 17.2521C26.9917 17.27 27.278 17.2879 27.573 17.3063C27.573 17.2347 27.573 17.1632 27.573 17.0894C27.7467 16.9736 27.791 16.9684 27.9899 16.9742Z" fill="#181B2A"/>
<path d="M4.74213 16.9805C4.79582 17.0073 4.79582 17.0073 4.85059 17.0347C4.88343 17.1438 4.88343 17.1438 4.91499 17.2889C5.08616 17.9446 5.4005 18.4588 5.88096 18.9327C5.91256 18.9644 5.94416 18.9961 5.97671 19.0287C5.9988 19.0507 6.02089 19.0727 6.04365 19.0954C5.85261 19.0954 5.78635 19.0419 5.64625 18.9181C5.20249 18.4588 4.7631 17.7444 4.73535 17.0923C4.73759 17.0554 4.73983 17.0185 4.74213 16.9805Z" fill="#171433"/>
<path d="M44.4926 14.3764C44.3416 14.4546 44.2167 14.5033 44.0482 14.5291C43.9836 14.5392 43.9836 14.5392 43.9178 14.5495C43.8726 14.5561 43.8274 14.5628 43.7808 14.5696C43.7111 14.5801 43.7111 14.5801 43.6399 14.5908C43.1061 14.6701 42.5927 14.7101 42.0522 14.7018C42.0522 14.6839 42.0522 14.666 42.0522 14.6475C42.3213 14.6085 42.5904 14.5699 42.8595 14.5317C42.9509 14.5187 43.0423 14.5055 43.1336 14.4922C43.2656 14.4731 43.3977 14.4543 43.5298 14.4357C43.57 14.4298 43.6102 14.4238 43.6516 14.4177C43.9342 14.3784 44.2072 14.3715 44.4926 14.3764Z" fill="#F4E606"/>
<path d="M31.6266 2.67789C31.6944 2.7694 31.6944 2.7694 31.6944 2.87786C31.7839 2.87786 31.8734 2.87786 31.9656 2.87786C31.9835 2.93154 32.0014 2.98523 32.0198 3.04054C32.1076 3.12176 32.1076 3.12176 32.2164 3.19645C32.2551 3.22442 32.2939 3.25238 32.3338 3.28119C32.3733 3.30915 32.4129 3.33711 32.4537 3.36592C32.491 3.39276 32.5283 3.41961 32.5668 3.44726C32.6553 3.51089 32.7443 3.57403 32.8333 3.63707C32.7975 3.67286 32.7617 3.70865 32.7248 3.74553C32.6775 3.70624 32.6303 3.66695 32.5816 3.62647C32.1802 3.29859 31.7914 3.03534 31.3148 2.82363C31.2423 2.78786 31.1699 2.75186 31.0979 2.71517C31.1702 2.69709 31.2425 2.67902 31.3148 2.66094C31.3517 2.64752 31.3886 2.6341 31.4267 2.62027C31.5317 2.60671 31.5317 2.60671 31.6266 2.67789Z" fill="#F0D809"/>
<path d="M26.3798 20.2894C26.6161 20.319 26.8504 20.3555 27.0848 20.3978C27.0848 20.4336 27.0848 20.4694 27.0848 20.5063C26.8342 20.5063 26.5837 20.5063 26.3255 20.5063C26.3255 20.4705 26.3255 20.4347 26.3255 20.3978C25.9286 20.3934 25.9286 20.3934 25.5934 20.5707C25.467 20.8074 25.467 20.8074 25.3494 21.0486C25.3087 20.9604 25.3087 20.9604 25.2952 20.8317C25.5882 20.3108 25.8074 20.2433 26.3798 20.2894Z" fill="#111234"/>
<path d="M28.5489 16.9799C28.5399 17.0414 28.531 17.103 28.5218 17.1663C28.5025 17.2896 28.5025 17.2896 28.4947 17.4138C28.0383 17.4406 28.0383 17.4406 27.5728 17.468C27.6085 17.3964 27.6443 17.3248 27.6812 17.2511C27.7886 17.2511 27.896 17.2511 28.0066 17.2511C28.0066 17.1974 28.0066 17.1437 28.0066 17.0884C28.1911 16.9748 28.3348 16.9702 28.5489 16.9799Z" fill="#282D2B"/>
<path d="M4.95898 17.4688C5.07076 17.6029 5.15102 17.7396 5.22675 17.8958C5.48896 18.4301 5.8062 18.8509 6.35626 19.0952C6.47743 19.1499 6.47743 19.1499 6.64012 19.2583C6.18639 19.23 5.8551 19.0019 5.54492 18.6775C5.41835 18.5169 5.31253 18.3466 5.2098 18.1703C5.19103 18.1384 5.17226 18.1064 5.15292 18.0734C5.04104 17.8728 4.9833 17.6969 4.95898 17.4688Z" fill="#F3E808"/>
<path d="M4.85062 6.02734C4.86852 6.06314 4.88642 6.09893 4.90485 6.1358C4.85499 6.21917 4.80114 6.30017 4.74555 6.37983C4.57025 6.66326 4.50498 6.89116 4.57947 7.22039C4.75842 7.52795 4.95862 7.60904 5.28446 7.70845C5.28446 7.72635 5.28446 7.74424 5.28446 7.76268C4.99011 7.73913 4.8069 7.68278 4.57947 7.49153C4.44196 7.28984 4.38177 7.10324 4.38988 6.85667C4.45518 6.55484 4.63291 6.24506 4.85062 6.02734Z" fill="#F3E407"/>
<path d="M31.0979 15.082C31.3542 15.3228 31.5375 15.6112 31.733 15.9009C31.8058 16.0082 31.8795 16.1149 31.9533 16.2215C32.0026 16.2936 32.0519 16.3656 32.1012 16.4378C32.1247 16.4715 32.1482 16.5053 32.1724 16.54C32.2948 16.7211 32.3762 16.8696 32.3994 17.0885C32.3457 17.1243 32.292 17.1601 32.2367 17.197C32.2405 17.1493 32.2442 17.1015 32.248 17.0524C32.2347 16.8385 32.1812 16.7543 32.0565 16.5822C31.9996 16.5023 31.9996 16.5023 31.9415 16.4208C31.8813 16.3386 31.8813 16.3386 31.8198 16.2547C31.7416 16.1459 31.6634 16.037 31.5853 15.9281C31.5482 15.8764 31.511 15.8247 31.4728 15.7714C31.0979 15.2399 31.0979 15.2399 31.0979 15.082Z" fill="#0C0E0F"/>
<path d="M1.75945 15.7344C1.77735 15.7344 1.79524 15.7344 1.81368 15.7344C1.83158 15.8954 1.84947 16.0565 1.86791 16.2224C1.9037 16.1866 1.93949 16.1509 1.97637 16.114C1.97637 16.2035 1.97637 16.2929 1.97637 16.3851C1.94058 16.3851 1.90479 16.3851 1.86791 16.3851C1.86791 16.8146 1.86791 17.2441 1.86791 17.6866C1.7362 17.4891 1.74553 17.3446 1.74886 17.1166C1.74901 17.0771 1.74916 17.0376 1.74932 16.9969C1.74993 16.8709 1.75129 16.745 1.75267 16.619C1.75321 16.5335 1.75371 16.448 1.75415 16.3626C1.75535 16.1532 1.75722 15.9438 1.75945 15.7344Z" fill="#F0F1F0"/>
<path d="M45.6858 22.7276C45.7216 22.7633 45.7574 22.7991 45.7942 22.836C45.6745 22.8544 45.5547 22.8724 45.435 22.8902C45.3683 22.9003 45.3016 22.9104 45.2329 22.9207C45.0558 22.942 44.8877 22.9489 44.7096 22.9445C44.7096 22.9087 44.7096 22.8729 44.7096 22.836C44.6201 22.836 44.5307 22.836 44.4385 22.836C44.4385 22.8181 44.4385 22.8002 44.4385 22.7818C44.5751 22.7619 44.7118 22.7428 44.8486 22.7242C44.8868 22.7185 44.925 22.7129 44.9644 22.7071C45.2158 22.6735 45.435 22.6722 45.6858 22.7276Z" fill="#EFCD0C"/>
<path d="M24.9699 22.2383C25.0891 22.4768 24.9905 22.8543 24.9699 23.1059C25.3278 23.1417 25.6857 23.1775 26.0545 23.2144C26.0545 23.2323 26.0545 23.2502 26.0545 23.2686C25.9166 23.2701 25.7788 23.2712 25.641 23.272C25.583 23.2727 25.583 23.2727 25.5238 23.2734C25.2967 23.2744 25.0852 23.2592 24.8614 23.2144C24.8585 23.0924 24.8564 22.9704 24.8546 22.8484C24.8534 22.7804 24.8521 22.7125 24.8508 22.6425C24.8606 22.4699 24.8782 22.3812 24.9699 22.2383Z" fill="#111034"/>
<path d="M16.9438 25.2227C17.0968 25.3579 17.2064 25.5034 17.3167 25.6734C17.6226 26.1373 17.9242 26.4036 18.4081 26.6868C18.3902 26.7226 18.3723 26.7584 18.3538 26.7953C17.7265 26.4412 17.2634 25.9828 16.9438 25.3311C16.9438 25.2953 16.9438 25.2595 16.9438 25.2227Z" fill="#0C0F0E"/>
<path d="M26.8137 13.6201C27.7198 13.59 27.7198 13.59 28.1695 13.7827C28.1695 13.8185 28.1695 13.8543 28.1695 13.8912C26.9972 13.8035 26.9972 13.8035 26.8137 13.6201Z" fill="#F0D709"/>
<path d="M45.1436 23.8124C45.1436 23.8303 45.1436 23.8482 45.1436 23.8666C44.5601 23.9701 44.0026 24.0581 43.4082 24.0293C43.4082 24.0114 43.4082 23.9935 43.4082 23.9751C44.5688 23.7809 44.5688 23.7809 45.1436 23.8124Z" fill="#171533"/>
<path d="M28.2778 17.0352C28.4568 17.0352 28.6357 17.0352 28.8201 17.0352C28.7306 17.1783 28.6411 17.3215 28.549 17.469C28.6205 17.4869 28.6921 17.5048 28.7659 17.5232C28.6416 17.5261 28.5173 17.5282 28.393 17.53C28.2892 17.5319 28.2892 17.5319 28.1833 17.5338C28.0067 17.5232 28.0067 17.5232 27.8982 17.4148C28.0772 17.3969 28.2561 17.379 28.4405 17.3605C28.4405 17.2889 28.4405 17.2174 28.4405 17.1436C28.3868 17.1078 28.3331 17.072 28.2778 17.0352Z" fill="#131725"/>
<path d="M46.7704 16.5977C46.8062 16.6156 46.842 16.6334 46.8789 16.6519C46.3441 16.9581 45.8063 17.2502 45.252 17.5196C45.3259 17.2978 45.4228 17.2794 45.628 17.173C45.6762 17.1479 45.6762 17.1479 45.7254 17.1222C45.7935 17.087 45.8616 17.052 45.9299 17.0172C46.0347 16.9638 46.1389 16.9094 46.243 16.8548C46.3091 16.8207 46.3753 16.7867 46.4414 16.7527C46.5018 16.7217 46.5623 16.6906 46.6245 16.6586C46.6727 16.6385 46.7208 16.6184 46.7704 16.5977Z" fill="#F5E907"/>
<path d="M13.5815 2.23047C13.8169 2.312 14.0101 2.4369 14.212 2.57957C14.243 2.601 14.274 2.62242 14.306 2.6445C14.6129 2.85894 14.6129 2.85894 14.7204 2.98968C14.7204 3.02547 14.7204 3.06126 14.7204 3.09814C14.7562 3.09814 14.792 3.09814 14.8288 3.09814C14.9203 3.19643 14.9203 3.19643 14.9915 3.31505C14.9736 3.36874 14.9557 3.42243 14.9373 3.47774C14.9077 3.443 14.8782 3.40826 14.8477 3.37246C14.4728 2.9425 14.0854 2.60692 13.5815 2.33893C13.5815 2.30314 13.5815 2.26734 13.5815 2.23047Z" fill="#F1E307"/>
<path d="M18.0554 14.0961C18.1164 14.0953 18.1773 14.0945 18.2401 14.0938C18.4008 14.1057 18.4896 14.1309 18.6248 14.2147C18.5802 14.2161 18.5356 14.2175 18.4897 14.2189C18.1192 14.2378 17.8226 14.2841 17.4873 14.4456C17.3775 14.4859 17.3775 14.4859 17.2148 14.4316C17.3043 14.3958 17.3938 14.36 17.486 14.3232C17.486 14.2695 17.486 14.2158 17.486 14.1605C17.677 14.102 17.8563 14.0972 18.0554 14.0961Z" fill="#F8E206"/>
<path d="M36.5752 6.73047C36.7198 6.80277 36.8644 6.87508 37.009 6.94739C37.0806 6.8937 37.1522 6.84001 37.226 6.7847C37.2796 6.89207 37.3333 6.99945 37.3886 7.11007C37.3529 7.14586 37.3171 7.18166 37.2802 7.21853C37.316 7.29011 37.3518 7.3617 37.3886 7.43545C36.8173 7.01696 36.8173 7.01696 36.5752 6.7847C36.5752 6.7668 36.5752 6.74891 36.5752 6.73047Z" fill="#F8D909"/>
<path d="M32.6162 3.69141C32.8986 3.77674 33.0957 3.95635 33.3178 4.14219C33.374 4.18848 33.374 4.18848 33.4313 4.23571C33.5395 4.32507 33.6473 4.41487 33.755 4.50485C33.8184 4.55759 33.8817 4.61034 33.9451 4.66308C33.9897 4.70034 34.0344 4.7376 34.0804 4.77599C33.8915 4.77599 33.8584 4.74579 33.7135 4.63322C33.6742 4.60288 33.6348 4.57254 33.5943 4.54128C33.5329 4.49305 33.5329 4.49305 33.4703 4.44384C33.4303 4.41294 33.3902 4.38204 33.349 4.35021C33.0983 4.15573 32.853 3.95676 32.6162 3.74564C32.6162 3.72774 32.6162 3.70984 32.6162 3.69141Z" fill="#110F35"/>
<path d="M26.7596 13.6719C26.8132 13.6898 26.8669 13.7077 26.9222 13.7261C26.929 13.7899 26.929 13.7899 26.9358 13.8549C26.9492 13.9019 26.9626 13.9489 26.9765 13.9973C27.0481 14.033 27.1196 14.0688 27.1934 14.1057C26.9607 14.0878 26.7281 14.0699 26.4884 14.0515C26.4884 13.9799 26.4884 13.9083 26.4884 13.8346C26.4168 13.7988 26.3452 13.763 26.2715 13.7261C26.6375 13.7193 26.6375 13.7193 26.7596 13.7803C26.7596 13.7445 26.7596 13.7088 26.7596 13.6719Z" fill="#262E2B"/>
<path d="M20.252 10.9062C20.4539 10.9736 20.5362 11.082 20.6858 11.2316C20.7744 11.2887 20.8643 11.344 20.9569 11.3943C20.9748 11.3585 20.9927 11.3227 21.0112 11.2859C21.1543 11.4111 21.2975 11.5364 21.445 11.6655C21.3913 11.6923 21.3913 11.6923 21.3366 11.7197C20.9313 11.5651 20.5404 11.3439 20.252 11.0147C20.252 10.9789 20.252 10.9431 20.252 10.9062Z" fill="#F4DA06"/>
<path d="M41.8896 17.9036C41.9075 17.9394 41.9254 17.9752 41.9438 18.012C41.3877 18.0926 40.8775 18.1384 40.3169 18.0663C40.3169 18.0484 40.3169 18.0305 40.3169 18.012C40.5078 17.9937 40.6987 17.9757 40.8897 17.9578C40.9703 17.95 40.9703 17.95 41.0525 17.9421C41.3329 17.916 41.6079 17.8973 41.8896 17.9036Z" fill="#E1CF0D"/>
<path d="M30.5013 14.4311C30.5013 14.4848 30.5013 14.5385 30.5013 14.5938C30.4655 14.5938 30.4297 14.5938 30.3929 14.5938C30.4108 14.6475 30.4286 14.7012 30.4471 14.7565C30.2681 14.7744 30.0892 14.7923 29.9048 14.8107C29.9048 14.6853 29.9048 14.6853 29.959 14.5396C30.1304 14.4398 30.3156 14.3383 30.5013 14.4311Z" fill="#252E2C"/>
<path d="M9.36501 10.2681C9.41199 10.2883 9.41199 10.2883 9.45991 10.3088C9.45991 10.3446 9.45991 10.3804 9.45991 10.4173C9.37043 10.4352 9.28095 10.4531 9.18876 10.4715C9.13671 10.6371 9.12754 10.7226 9.18537 10.8884C9.34808 11.0708 9.49309 11.0793 9.73106 11.1222C9.73106 11.1401 9.73106 11.158 9.73106 11.1765C9.33322 11.203 9.33322 11.203 9.16842 11.0816C8.96872 10.8051 8.96872 10.8051 8.97862 10.6071C9.0473 10.4108 9.13867 10.243 9.36501 10.2681Z" fill="#141135"/>
<path d="M0.783203 15.082C0.801099 15.082 0.818995 15.082 0.837433 15.082C0.855329 15.2431 0.873225 15.4042 0.891663 15.5701C0.909559 15.5701 0.927455 15.5701 0.945893 15.5701C0.945893 16.0891 0.945893 16.608 0.945893 17.1427C0.927997 17.1427 0.910102 17.1427 0.891663 17.1427C0.873767 16.749 0.855871 16.3553 0.837433 15.9497C0.819537 15.9497 0.801641 15.9497 0.783203 15.9497C0.783203 15.6634 0.783203 15.377 0.783203 15.082Z" fill="#33332D"/>
<path d="M17.8114 14.3769C17.7532 14.3981 17.6951 14.4194 17.6352 14.4413C17.4349 14.5257 17.3474 14.6385 17.2149 14.8107C17.1251 14.8483 17.0348 14.8847 16.9437 14.9192C16.9258 14.9729 16.9079 15.0265 16.8895 15.0819C16.8358 15.0998 16.7821 15.1176 16.7268 15.1361C16.8147 14.7734 17.1437 14.5625 17.4454 14.3769C17.6 14.3206 17.6619 14.3136 17.8114 14.3769Z" fill="#161732"/>
<path d="M3.00659 11.7188C3.43636 11.9025 3.68977 12.3377 3.88974 12.7402C3.9285 12.8576 3.9285 12.8576 3.87427 13.0203C3.84799 12.9711 3.8217 12.922 3.79462 12.8713C3.59012 12.4971 3.38413 12.1683 3.08624 11.8583C3.00659 11.773 3.00659 11.773 3.00659 11.7188Z" fill="#F5E707"/>
<path d="M7.56196 3.25781C7.59775 3.27571 7.63354 3.2936 7.67042 3.31204C7.63355 3.34645 7.63355 3.34645 7.59593 3.38155C7.48287 3.48712 7.36989 3.59277 7.25691 3.69843C7.21826 3.7345 7.1796 3.77057 7.13977 3.80773C6.9148 4.01825 6.69385 4.23163 6.47736 4.45086C6.44156 4.43296 6.40577 4.41506 6.3689 4.39663C6.53701 4.22694 6.70543 4.05756 6.87391 3.88823C6.92169 3.83999 6.96948 3.79176 7.0187 3.74206C7.06467 3.69593 7.11063 3.64979 7.15799 3.60225C7.2003 3.55965 7.24262 3.51706 7.28621 3.47317C7.39927 3.36627 7.39927 3.36627 7.56196 3.25781Z" fill="#090936"/>
<path d="M24.5902 13.5078C24.6976 13.5078 24.805 13.5078 24.9156 13.5078C24.8351 13.5883 24.8351 13.5883 24.7529 13.6705C24.7941 13.6732 24.8353 13.6758 24.8777 13.6785C24.9316 13.6826 24.9855 13.6867 25.041 13.6908C25.1212 13.6965 25.1212 13.6965 25.2031 13.7023C25.3495 13.7247 25.3495 13.7247 25.5121 13.8332C25.0558 13.86 25.0558 13.86 24.5902 13.8874C24.536 13.6705 24.536 13.6705 24.5902 13.5078Z" fill="#27302A"/>
<path d="M9.83966 6.83984C9.85756 6.83984 9.87545 6.83984 9.89389 6.83984C10.0384 7.4024 10.0384 7.4024 9.89389 7.70751C9.8402 7.70751 9.78652 7.70751 9.7312 7.70751C9.73892 7.61372 9.74688 7.51996 9.75493 7.4262C9.75933 7.37398 9.76373 7.32176 9.76827 7.26796C9.78417 7.12257 9.80859 6.98267 9.83966 6.83984Z" fill="#EEDB0A"/>
<path d="M40.4797 24.2461C40.7482 24.2461 41.0166 24.2461 41.2932 24.2461C41.2932 24.264 41.2932 24.2819 41.2932 24.3003C41.0516 24.3272 41.0516 24.3272 40.8051 24.3546C40.8051 24.3903 40.8051 24.4261 40.8051 24.463C40.8927 24.5409 40.9837 24.6149 41.0763 24.6867C41.1518 24.7456 41.1518 24.7456 41.2288 24.8058C41.2679 24.8358 41.3071 24.8659 41.3474 24.8968C41.2937 24.9237 41.2937 24.9237 41.239 24.9511C40.9401 24.744 40.707 24.5302 40.4797 24.2461Z" fill="#07091B"/>
<path d="M0.945834 7.76172C0.96373 7.8333 0.981626 7.90488 1.00006 7.97864C0.964273 7.97864 0.928481 7.97864 0.891604 7.97864C0.891604 8.06811 0.891604 8.15759 0.891604 8.24978C0.855813 8.24978 0.820021 8.24978 0.783144 8.24978C0.773287 8.29487 0.763431 8.33996 0.753275 8.38641C0.739644 8.44534 0.726012 8.50427 0.711967 8.56499C0.698755 8.6235 0.685543 8.68201 0.67193 8.74229C0.621429 8.89753 0.583165 8.96311 0.457764 9.06322C0.542072 8.60336 0.684713 8.15339 0.945834 7.76172Z" fill="#FFD700"/>
<path d="M37.4429 7.43359C37.7084 7.55587 37.9214 7.73936 38.1479 7.92166C38.1855 7.95123 38.2232 7.9808 38.262 8.01126C38.2959 8.03873 38.3299 8.06621 38.3648 8.09451C38.395 8.11877 38.4252 8.14303 38.4563 8.16802C38.5422 8.26342 38.5546 8.3402 38.5817 8.46395C38.559 8.44443 38.5363 8.42492 38.5128 8.40481C38.342 8.25817 38.1708 8.11188 37.9989 7.96635C37.9322 7.90965 37.8655 7.85295 37.7988 7.79625C37.7643 7.76714 37.7298 7.73802 37.6942 7.70802C37.6094 7.6358 37.526 7.56196 37.4429 7.48782C37.4429 7.46993 37.4429 7.45203 37.4429 7.43359Z" fill="#F3E408"/>
<path d="M10.165 1.30508C9.96892 1.41586 9.76107 1.47169 9.54479 1.52877C9.50924 1.53863 9.4737 1.54848 9.43707 1.55864C9.24151 1.61081 9.06597 1.64215 8.86353 1.63045C9.05089 1.50555 9.24078 1.44345 9.45328 1.37625C9.51085 1.35691 9.51085 1.35691 9.56958 1.33717C9.78756 1.26796 9.94479 1.23382 10.165 1.30508Z" fill="#FEC116"/>
<path d="M3.92871 13.0781C4.09734 13.269 4.16449 13.4829 4.23714 13.7221C4.24934 13.7598 4.26154 13.7975 4.27411 13.8363C4.34343 14.06 4.37629 14.2511 4.36255 14.4881C4.26499 14.3417 4.22182 14.243 4.17232 14.078C4.15799 14.0303 4.14366 13.9826 4.1289 13.9335C4.10698 13.8591 4.10698 13.8591 4.08462 13.7831C4.06959 13.7335 4.05456 13.6838 4.03908 13.6327C3.92871 13.2619 3.92871 13.2619 3.92871 13.0781Z" fill="#F3E409"/>
<path d="M37.7681 7.81641C37.9963 7.89127 38.1295 7.99456 38.2968 8.16551C38.339 8.20794 38.3813 8.25037 38.4248 8.29409C38.5273 8.41293 38.5273 8.41293 38.5815 8.57562C38.3844 8.70175 38.2143 8.6929 37.985 8.68407C38.155 8.58333 38.2765 8.56469 38.4731 8.57562C38.2795 8.33601 38.0793 8.12772 37.8397 7.93376C37.816 7.91293 37.7924 7.8921 37.7681 7.87064C37.7681 7.85274 37.7681 7.83484 37.7681 7.81641Z" fill="#0A0A39"/>
<path d="M16.998 21.6953C17.1255 21.8865 17.1555 22.0635 17.1946 22.2851C17.2019 22.3234 17.2092 22.3618 17.2167 22.4014C17.2533 22.602 17.278 22.7928 17.2692 22.9968C17.0313 22.7589 17.0354 22.3982 17.0184 22.0783C17.0163 22.0412 17.0142 22.0041 17.012 21.9659C17.007 21.8757 17.0025 21.7855 16.998 21.6953Z" fill="#141716"/>
<path d="M22.7463 12.1518C22.8616 12.2806 22.8616 12.2806 22.9633 12.4229C23.0165 12.4781 23.0703 12.5328 23.126 12.5856C22.6918 12.4931 22.6918 12.4931 22.5294 12.3144C22.4578 12.3144 22.3863 12.3144 22.3125 12.3144C22.3125 12.2608 22.3125 12.2071 22.3125 12.1518C22.4967 12.0904 22.5646 12.0897 22.7463 12.1518Z" fill="#9A8321"/>
<path d="M22.15 22.7266C22.378 23.0686 22.4483 23.4082 22.4753 23.8111C22.2428 23.6164 22.2086 23.3379 22.15 23.0519C22.1398 22.852 22.1398 22.852 22.15 22.7266Z" fill="#FBEB08"/>
<path d="M29.0371 13.9961C29.1693 14.0023 29.3015 14.0091 29.4337 14.0164C29.4711 14.0181 29.5085 14.0198 29.5471 14.0215C29.7459 14.033 29.844 14.0459 30.0133 14.1588C29.7147 14.3081 29.3442 14.1825 29.0371 14.1046C29.0371 14.0688 29.0371 14.033 29.0371 13.9961Z" fill="#EDD409"/>
<path d="M14.395 21.8594C14.7719 21.8944 15.1207 22.0145 15.4796 22.1305C15.4796 22.1663 15.4796 22.2021 15.4796 22.239C15.1076 22.1516 14.7496 22.0568 14.395 21.9136C14.395 21.8957 14.395 21.8778 14.395 21.8594Z" fill="#FEBE13"/>
<path d="M48.1802 22.0756C48.126 22.1841 48.126 22.1841 48.0116 22.2302C47.9643 22.2441 47.917 22.2579 47.8684 22.2722C47.7983 22.2934 47.7983 22.2934 47.7269 22.315C47.5838 22.3467 47.4585 22.3525 47.3125 22.3467C47.8852 21.965 47.8852 21.965 48.1802 22.0756Z" fill="#15162F"/>
<path d="M6.69437 19.3086C6.9986 19.416 7.30283 19.5233 7.61628 19.634C7.61628 19.6519 7.61628 19.6698 7.61628 19.6882C7.49101 19.7061 7.36574 19.724 7.23667 19.7424C7.21877 19.7066 7.20088 19.6708 7.18244 19.634C7.05695 19.5943 6.93036 19.558 6.80283 19.5255C6.80283 19.4897 6.80283 19.4539 6.80283 19.4171C6.74914 19.4349 6.69545 19.4528 6.64014 19.4713C6.65803 19.4176 6.67593 19.3639 6.69437 19.3086Z" fill="#FCF8E8"/>
<path d="M41.8897 23.1064C41.9076 23.1422 41.9255 23.178 41.944 23.2149C41.8243 23.2255 41.7045 23.2356 41.5847 23.2454C41.518 23.251 41.4513 23.2567 41.3826 23.2625C41.198 23.2687 41.0397 23.2523 40.8594 23.2149C40.8594 23.197 40.8594 23.1791 40.8594 23.1606C41.205 23.1202 41.5418 23.1008 41.8897 23.1064Z" fill="#E0CD0D"/>
<path d="M5.88086 3.85547C5.88086 3.89126 5.88086 3.92705 5.88086 3.96393C5.79549 4.04612 5.79549 4.04612 5.68089 4.14017C5.53753 4.26124 5.41061 4.37911 5.2945 4.52656C5.17587 4.66891 5.17587 4.66891 5.01318 4.72314C5.10346 4.49069 5.27299 4.33886 5.44702 4.16729C5.47666 4.13723 5.5063 4.10717 5.53684 4.0762C5.75866 3.85547 5.75866 3.85547 5.88086 3.85547Z" fill="#FDB803"/>
<path d="M31.9114 3.04297C32.1477 3.12276 32.33 3.25071 32.5249 3.40224C32.5547 3.42503 32.5845 3.44782 32.6152 3.4713C32.6881 3.52708 32.7607 3.58325 32.8333 3.63949C32.7975 3.67528 32.7617 3.71107 32.7248 3.74795C32.589 3.64089 32.4535 3.53346 32.3181 3.42596C32.2793 3.39538 32.2405 3.3648 32.2005 3.33329C32.1638 3.3041 32.1271 3.27492 32.0893 3.24485C32.0552 3.21787 32.0212 3.19089 31.986 3.16309C31.9614 3.14135 31.9368 3.1196 31.9114 3.0972C31.9114 3.0793 31.9114 3.06141 31.9114 3.04297Z" fill="#FFD700"/>
<path d="M4.7419 16.4922C4.90459 16.6006 4.90459 16.6006 4.94187 16.6888C4.96667 16.8772 4.96199 17.0614 4.95882 17.2514C4.90513 17.2782 4.90513 17.2782 4.85036 17.3056C4.78186 17.0304 4.72724 16.7781 4.7419 16.4922Z" fill="#F9E109"/>
<path d="M18.9504 14.4297C19.2017 14.4997 19.3679 14.5948 19.5673 14.7618C19.6147 14.8011 19.6621 14.8404 19.7109 14.8809C19.764 14.926 19.764 14.926 19.8181 14.972C19.7823 15.0078 19.7465 15.0436 19.7097 15.0804C19.6821 15.0549 19.6546 15.0294 19.6262 15.0031C19.4109 14.8084 19.2181 14.6519 18.9504 14.5381C18.9504 14.5024 18.9504 14.4666 18.9504 14.4297Z" fill="#181733"/>
<path d="M17.4318 9.66016C17.4497 9.73174 17.4676 9.80332 17.4861 9.87707C17.3155 10.0289 17.2113 10.0589 16.9844 10.0499C16.9361 10.0485 16.8877 10.047 16.8378 10.0455C16.8012 10.0436 16.7646 10.0417 16.7268 10.0398C16.7089 10.004 16.691 9.96818 16.6726 9.9313C16.9053 9.89551 17.1379 9.85972 17.3776 9.82284C17.3955 9.76916 17.4134 9.71547 17.4318 9.66016Z" fill="#2A2432"/>
<path d="M9.94812 6.1875C9.96602 6.1875 9.98391 6.1875 10.0024 6.1875C9.96871 6.54408 9.88581 6.87442 9.78543 7.21786C9.76754 7.21786 9.74964 7.21786 9.7312 7.21786C9.7534 6.85115 9.81632 6.53068 9.94812 6.1875Z" fill="#0C0C35"/>
<path d="M9.24302 2.4467C9.0686 2.56298 8.88882 2.64523 8.69733 2.72802C8.66276 2.7435 8.62819 2.75899 8.59257 2.77494C8.50348 2.81352 8.41237 2.8474 8.32111 2.88054C8.28531 2.86264 8.24952 2.84475 8.21265 2.82631C8.33321 2.76235 8.4541 2.69923 8.57531 2.63651C8.60925 2.6184 8.64319 2.60029 8.67816 2.58164C8.87451 2.48089 9.02144 2.42298 9.24302 2.4467Z" fill="#141137"/>
<path d="M47.2586 23.4336C47.2765 23.4694 47.2944 23.5052 47.3128 23.5421C47.2546 23.6774 47.2546 23.6774 47.1671 23.8369C47.1248 23.9157 47.1248 23.9157 47.0817 23.996C46.9895 24.1354 46.9099 24.2117 46.7705 24.3013C46.8595 24.0423 47.0018 23.8244 47.1501 23.5963C47.1143 23.5784 47.0785 23.5605 47.0417 23.5421C47.1132 23.5063 47.1848 23.4705 47.2586 23.4336Z" fill="#0E1015"/>
<path d="M20.6856 26.7945C20.7035 26.8481 20.7214 26.9018 20.7398 26.9571C20.3998 26.9392 20.0598 26.9213 19.7095 26.9029C19.7095 26.885 19.7095 26.8671 19.7095 26.8487C20.0375 26.8001 20.3542 26.7883 20.6856 26.7945Z" fill="#2A322F"/>
<path d="M6.53149 7.86719C6.81783 7.86719 7.10416 7.86719 7.39918 7.86719C7.39918 7.92087 7.39918 7.97456 7.39918 8.02988C7.08583 8.04266 6.82904 8.02271 6.53149 7.92142C6.53149 7.90352 6.53149 7.88563 6.53149 7.86719Z" fill="#191733"/>
<path d="M10.7615 3.37109C10.8699 3.47955 10.8699 3.47955 10.8805 3.60877C10.8793 3.65784 10.878 3.70692 10.8767 3.75748C10.8757 3.80683 10.8748 3.85618 10.8738 3.90703C10.8725 3.94492 10.8712 3.98281 10.8699 4.02184C10.8163 4.03974 10.7626 4.05764 10.7073 4.07607C10.6419 3.80798 10.6731 3.63093 10.7615 3.37109Z" fill="#E9CA0D"/>
<path d="M47.9634 16.1094C47.9634 16.1452 47.9634 16.181 47.9634 16.2178C47.8482 16.2632 47.7329 16.3084 47.6176 16.3534C47.5535 16.3786 47.4893 16.4037 47.4232 16.4297C47.2584 16.489 47.2584 16.489 47.1499 16.489C47.1499 16.4532 47.1499 16.4174 47.1499 16.3805C47.2548 16.335 47.3599 16.2899 47.4651 16.2449C47.5236 16.2198 47.5821 16.1946 47.6424 16.1687C47.8007 16.1094 47.8007 16.1094 47.9634 16.1094Z" fill="#FDBD0E"/>
<path d="M49.2649 15.082C49.3007 15.0999 49.3365 15.1178 49.3734 15.1363C49.3869 15.2617 49.3869 15.2617 49.3734 15.4074C49.2625 15.5146 49.2043 15.5701 49.048 15.5701C49.048 15.6059 49.048 15.6417 49.048 15.6786C48.9764 15.6607 48.9048 15.6428 48.8311 15.6243C48.8825 15.5852 48.934 15.546 48.987 15.5057C49.1388 15.3804 49.2099 15.2746 49.2649 15.082Z" fill="#FEBE17"/>
<path d="M31.3147 20.7762C31.3147 20.812 31.3147 20.8477 31.3147 20.8846C31.0284 20.8667 30.742 20.8488 30.447 20.8304C30.447 20.8125 30.447 20.7946 30.447 20.7762C30.7453 20.7055 31.0148 20.7376 31.3147 20.7762Z" fill="#DDC80E"/>
<path d="M18.2454 17.087C18.6062 17.068 18.8794 17.0934 19.1639 17.3412C19.1924 17.3764 19.1924 17.3764 19.2215 17.4124C19.0764 17.3834 18.9612 17.3385 18.8249 17.2768C18.6275 17.1965 18.4565 17.1628 18.2454 17.1412C18.2454 17.1233 18.2454 17.1054 18.2454 17.087Z" fill="#E9E9E6"/>
<path d="M16.6726 7.32812C16.8292 7.40642 16.8377 7.50473 16.8963 7.66706C16.9155 7.71879 16.9346 7.77052 16.9543 7.82381C16.9968 7.97464 17.0065 8.09442 16.998 8.25002C16.8949 8.09539 16.8373 7.96276 16.7743 7.78907C16.7551 7.73706 16.736 7.68506 16.7162 7.63147C16.6726 7.49081 16.6726 7.49081 16.6726 7.32812Z" fill="#1B1635"/>
<path d="M49.5361 21.5898C49.5719 21.6077 49.6077 21.6256 49.6445 21.6441C49.593 21.7516 49.5409 21.8589 49.4886 21.9661C49.4597 22.0258 49.4307 22.0856 49.4009 22.1472C49.3192 22.2948 49.3192 22.2948 49.2107 22.3491C49.2286 22.2417 49.2465 22.1343 49.2649 22.0237C49.3007 22.0237 49.3365 22.0237 49.3734 22.0237C49.3902 21.9622 49.4069 21.9006 49.4242 21.8373C49.4818 21.6441 49.4818 21.6441 49.5361 21.5898Z" fill="#FFD700"/>
<path d="M23.8447 13.3931C23.9172 13.3953 23.9172 13.3953 23.9913 13.3975C24.0279 13.3994 24.0645 13.4013 24.1023 13.4032C24.1023 13.4211 24.1023 13.439 24.1023 13.4575C23.9233 13.4932 23.7444 13.529 23.56 13.5659C23.5421 13.6196 23.5242 13.6733 23.5057 13.7286C23.4521 13.7107 23.3984 13.6928 23.343 13.6744C23.3252 13.7102 23.3073 13.746 23.2888 13.7828C23.3085 13.6403 23.3303 13.578 23.4363 13.4778C23.5854 13.3879 23.6722 13.3862 23.8447 13.3931Z" fill="#151530"/>
<path d="M27.0849 20.3978C27.0849 20.4336 27.0849 20.4694 27.0849 20.5063C26.8344 20.5063 26.5838 20.5063 26.3257 20.5063C26.3257 20.4705 26.3257 20.4347 26.3257 20.3978C26.5775 20.3139 26.8314 20.3167 27.0849 20.3978Z" fill="#1A1B32"/>
<path d="M29.3625 14.5938C29.5594 14.5938 29.7563 14.5938 29.9591 14.5938C29.9591 14.6295 29.9591 14.6653 29.9591 14.7022C29.9949 14.7201 30.0307 14.738 30.0675 14.7564C29.8007 14.7655 29.6064 14.7699 29.3625 14.648C29.3625 14.6301 29.3625 14.6122 29.3625 14.5938Z" fill="#171B1A"/>
<path d="M30.9351 15.0273C30.9709 15.0273 31.0066 15.0273 31.0435 15.0273C31.1272 15.1284 31.1272 15.1284 31.2164 15.2612C31.2462 15.3046 31.2761 15.348 31.3068 15.3928C31.3273 15.4332 31.3478 15.4737 31.3689 15.5154C31.351 15.5691 31.3331 15.6228 31.3147 15.6781C31.2968 15.6244 31.2789 15.5707 31.2604 15.5154C31.2246 15.5154 31.1889 15.5154 31.152 15.5154C30.9351 15.1494 30.9351 15.1494 30.9351 15.0273Z" fill="#E8E9E7"/>
<path d="M24.1021 14.8633C24.1902 15.0396 24.2597 15.2071 24.3257 15.392C24.3449 15.4454 24.3641 15.4988 24.3838 15.5539C24.3982 15.5944 24.4126 15.6349 24.4274 15.6767C24.3737 15.7036 24.3737 15.7036 24.319 15.7309C24.2832 15.6057 24.2474 15.4804 24.2105 15.3513C24.1747 15.3513 24.1389 15.3513 24.1021 15.3513C24.1021 15.1903 24.1021 15.0292 24.1021 14.8633Z" fill="#0F1111"/>
<path d="M35.7075 5.75391C35.8328 5.7718 35.9581 5.7897 36.0871 5.80814C36.0513 5.93341 36.0155 6.05867 35.9787 6.18774C35.9429 6.15195 35.9071 6.11616 35.8702 6.07928C35.8411 6.05356 35.812 6.02783 35.7821 6.00133C35.7075 5.91659 35.7075 5.91659 35.7075 5.75391Z" fill="#FEC906"/>
<path d="M28.6574 1.30759C28.729 1.36128 28.8006 1.41497 28.8743 1.47028C28.5701 1.43449 28.2658 1.3987 27.9524 1.36182C27.9524 1.34393 27.9524 1.32603 27.9524 1.30759C28.1897 1.24085 28.4202 1.24159 28.6574 1.30759Z" fill="#FDF6E0"/>
<path d="M25.9459 13.7812C25.9459 13.817 25.9459 13.8528 25.9459 13.8897C26.0353 13.8897 26.1248 13.8897 26.217 13.8897C26.217 13.9076 26.217 13.9255 26.217 13.9439C25.9486 13.9618 25.6801 13.9797 25.4036 13.9982C25.5868 13.8149 25.693 13.7812 25.9459 13.7812Z" fill="#313935"/>
<path d="M2.78983 11.609C2.78983 11.6269 2.78983 11.6448 2.78983 11.6632C2.75054 11.6659 2.71126 11.6685 2.67078 11.6713C2.38774 11.6931 2.13375 11.7181 1.86792 11.8259C1.9052 11.7208 1.9052 11.7208 1.97638 11.609C2.23062 11.5057 2.52456 11.5755 2.78983 11.609Z" fill="#D6C20D"/>
<path d="M8.10422 2.88281C8.14001 2.9544 8.1758 3.02598 8.21268 3.09973C8.05139 3.16693 7.89529 3.22449 7.72461 3.26242C7.80338 3.05475 7.91056 2.98474 8.10422 2.88281Z" fill="#111731"/>
<path d="M42.4319 23.0536C42.5001 23.0513 42.5683 23.0491 42.6386 23.0468C42.677 23.0455 42.7154 23.0443 42.7549 23.043C42.8657 23.0536 42.8657 23.0536 43.0284 23.162C42.8488 23.223 42.8488 23.223 42.6488 23.2705C42.4861 23.162 42.4861 23.162 42.4319 23.0536Z" fill="#FBD605"/>
<path d="M5.39283 5.53906C5.39283 5.75388 5.31968 5.80094 5.1759 5.95595C5.13564 5.99978 5.09537 6.04361 5.05389 6.08877C5.02257 6.12211 4.99125 6.15546 4.95898 6.18981C4.95898 5.98597 5.01055 5.95049 5.1454 5.80343C5.18 5.76526 5.21461 5.72709 5.25026 5.68777C5.29716 5.63761 5.34427 5.58762 5.39283 5.53906Z" fill="#131138"/>
<path d="M19.4927 14.6992C19.7644 14.7769 19.8693 14.9153 20.035 15.1331C19.8723 15.1331 19.8723 15.1331 19.7333 15.0076C19.6011 14.8619 19.6011 14.8619 19.4927 14.6992Z" fill="#E7D609"/>
<path d="M31.2605 20.9375C31.4395 20.9375 31.6184 20.9375 31.8028 20.9375C31.6728 21.0675 31.6221 21.0645 31.4436 21.0799C31.3992 21.0839 31.3549 21.088 31.3093 21.0921C31.2753 21.0948 31.2413 21.0975 31.2063 21.1002C31.2242 21.0465 31.2421 20.9928 31.2605 20.9375Z" fill="#111732"/>
<path d="M1.75952 15.7344C1.77742 15.7344 1.79531 15.7344 1.81375 15.7344C1.83165 15.8954 1.84954 16.0565 1.86798 16.2224C1.90377 16.1866 1.93957 16.1509 1.97644 16.114C1.97644 16.2035 1.97644 16.2929 1.97644 16.3851C1.90486 16.3851 1.83327 16.3851 1.75952 16.3851C1.75952 16.1704 1.75952 15.9556 1.75952 15.7344Z" fill="#D0D1CA"/>
<path d="M39.7205 7.98047C39.7563 7.99836 39.792 8.01626 39.8289 8.0347C39.7696 8.10748 39.7096 8.17968 39.6493 8.25161C39.5993 8.31201 39.5993 8.31201 39.5482 8.37363C39.4493 8.46853 39.4493 8.46853 39.2866 8.46853C39.2866 8.43274 39.2866 8.39695 39.2866 8.36007C39.3815 8.26644 39.3815 8.26644 39.5035 8.16349C39.5438 8.12924 39.5841 8.09499 39.6256 8.05969C39.6569 8.03355 39.6882 8.00741 39.7205 7.98047Z" fill="#E0E1DC"/>
<path d="M10.0024 6.67578C10.0202 6.67578 10.0381 6.67578 10.0566 6.67578C10.0701 7.03505 10.0701 7.03505 9.94812 7.21807C9.88034 6.8588 9.88034 6.8588 10.0024 6.67578Z" fill="#FAEB07"/>
<path d="M10.9783 3.25781C11.0393 3.437 11.0269 3.53171 10.9546 3.7052C10.939 3.74351 10.9234 3.78182 10.9074 3.82129C10.895 3.85009 10.8826 3.87889 10.8699 3.90856C10.8071 3.72021 10.8119 3.56363 10.8156 3.36627C10.8514 3.36627 10.8872 3.36627 10.9241 3.36627C10.942 3.33048 10.9599 3.29469 10.9783 3.25781Z" fill="#F5E606"/>
<path d="M10.2735 5.26562C10.3272 5.26562 10.3808 5.26562 10.4362 5.26562C10.4183 5.373 10.4004 5.48037 10.3819 5.591C10.3282 5.591 10.2746 5.591 10.2192 5.591C10.2371 5.48363 10.255 5.37625 10.2735 5.26562Z" fill="#F8E909"/>
<path d="M16.781 25.0586C16.9297 25.2321 17.0321 25.3842 17.1064 25.6009C16.9735 25.5477 16.9021 25.5113 16.8217 25.3907C16.781 25.2755 16.781 25.2755 16.781 25.0586Z" fill="#E6E8E5"/>
<path d="M9.83963 6.83984C9.85753 6.83984 9.87542 6.83984 9.89386 6.83984C9.92965 7.0188 9.96544 7.19776 10.0023 7.38214C9.93074 7.36424 9.85915 7.34634 9.7854 7.32791C9.8033 7.16685 9.82119 7.00579 9.83963 6.83984Z" fill="#DFC510"/>
<path d="M22.421 23.3242C22.4389 23.4853 22.4568 23.6463 22.4752 23.8123C22.3078 23.6449 22.2882 23.5997 22.2583 23.3784C22.3668 23.3242 22.3668 23.3242 22.421 23.3242Z" fill="#F3DC09"/>
<path d="M2.35596 19.4219C2.42754 19.4398 2.49912 19.4577 2.57288 19.4761C2.57288 19.5119 2.57288 19.5477 2.57288 19.5846C2.62657 19.6025 2.68025 19.6204 2.73557 19.6388C2.73557 19.6746 2.73557 19.7104 2.73557 19.7473C2.48194 19.6672 2.48194 19.6672 2.39324 19.5236C2.38094 19.49 2.36863 19.4564 2.35596 19.4219Z" fill="#DDDEDC"/>
<path d="M0.457795 15.7344C0.566255 15.7886 0.566255 15.7886 0.630653 15.914C0.674715 16.0598 0.674715 16.0598 0.620485 16.2767C0.548901 16.1156 0.477317 15.9545 0.403564 15.7886C0.42146 15.7707 0.439356 15.7528 0.457795 15.7344Z" fill="#FFD700"/>
<path d="M25.7832 13.9961C25.9292 14.0057 26.0722 14.0296 26.2171 14.0503C26.075 14.145 25.9981 14.1798 25.8375 14.213C25.8017 14.1593 25.7659 14.1056 25.729 14.0503C25.7469 14.0324 25.7648 14.0145 25.7832 13.9961Z" fill="#E3E4E1"/>
<path d="M46.7161 13.8895C46.7161 13.9253 46.7161 13.9611 46.7161 13.9979C46.555 14.0337 46.394 14.0695 46.228 14.1064C46.228 14.0706 46.228 14.0348 46.228 13.9979C46.398 13.8972 46.5195 13.8786 46.7161 13.8895Z" fill="#EAD80E"/>
<path d="M36.5752 6.83984C36.7822 6.92417 36.911 7.05871 37.0633 7.21945C36.8768 7.1521 36.7242 7.08076 36.5752 6.9483C36.5752 6.91251 36.5752 6.87672 36.5752 6.83984Z" fill="#141233"/>
<path d="M10.4905 5.10547C10.599 5.21393 10.599 5.21393 10.6125 5.40373C10.599 5.59353 10.599 5.59353 10.4905 5.70199C10.5084 5.59462 10.5263 5.48724 10.5447 5.37662C10.5089 5.37662 10.4732 5.37662 10.4363 5.37662C10.4542 5.28714 10.4721 5.19766 10.4905 5.10547Z" fill="#2C2F2C"/>
<path d="M6.09787 3.47656C6.05381 3.58163 6.05381 3.58163 5.98941 3.69348C5.93572 3.71138 5.88204 3.72927 5.82672 3.74771C5.80883 3.7835 5.79093 3.81929 5.77249 3.85617C5.7546 3.82038 5.7367 3.78458 5.71826 3.74771C5.97585 3.47656 5.97585 3.47656 6.09787 3.47656Z" fill="#FDF7E3"/>
<path d="M20.1978 19.4219C20.2157 19.4219 20.2336 19.4219 20.252 19.4219C20.2699 19.6187 20.2878 19.8156 20.3062 20.0184C20.2526 19.9826 20.1989 19.9468 20.1436 19.9099C20.1615 19.7489 20.1793 19.5878 20.1978 19.4219Z" fill="#BEC1BD"/>
<path d="M24.8613 16.2227C25.0492 16.33 25.0492 16.33 25.2409 16.4396C25.2409 16.4754 25.2409 16.5112 25.2409 16.548C25.0816 16.5074 25.0816 16.5074 24.9156 16.4396C24.8681 16.3243 24.8681 16.3243 24.8613 16.2227Z" fill="#E5E5E3"/>
<path d="M2.13901 14.375C2.1748 14.3929 2.21059 14.4108 2.24747 14.4292C2.20341 14.6156 2.20341 14.6156 2.13901 14.8088C2.08532 14.8267 2.03163 14.8446 1.97632 14.8631C2.00654 14.6817 2.04962 14.5359 2.13901 14.375Z" fill="#EBECEA"/>
<path d="M39.5576 7.00391C39.7206 7.05825 39.7779 7.09069 39.883 7.22082C39.883 7.27451 39.883 7.3282 39.883 7.38351C39.698 7.32184 39.6596 7.2727 39.5576 7.11236C39.5576 7.07657 39.5576 7.04078 39.5576 7.00391Z" fill="#F1F2EF"/>
</svg>
