<svg width="50" height="36" viewBox="0 0 50 36" fill="none" xmlns="http://www.w3.org/2000/svg">
<path d="M8.63902 0.850498C8.76978 0.850198 8.90054 0.849784 9.03131 0.849267C9.38794 0.848186 9.74456 0.848714 10.1012 0.849524C10.4868 0.850116 10.8725 0.849202 11.2581 0.848487C11.9689 0.847398 12.6796 0.847489 13.3904 0.848204C14.0468 0.84886 14.7033 0.849029 15.3597 0.848719C15.4034 0.848699 15.447 0.848679 15.492 0.848658C15.6691 0.848577 15.8462 0.848494 16.0233 0.848408C17.6827 0.847613 19.3421 0.848332 21.0014 0.849736C22.4749 0.850973 23.9484 0.850861 25.4219 0.849616C27.0791 0.848221 28.7362 0.847668 30.3933 0.848473C30.5699 0.848557 30.7466 0.848638 30.9233 0.848719C30.9668 0.848739 31.0103 0.84876 31.0551 0.848781C31.7113 0.849077 32.3676 0.848731 33.0239 0.848073C33.7699 0.847342 34.5159 0.847539 35.2619 0.848927C35.6425 0.849612 36.0231 0.84988 36.4037 0.849019C36.7521 0.848243 37.1004 0.848669 37.4488 0.850055C37.5748 0.850346 37.7008 0.850198 37.8269 0.849566C39.0345 0.843978 39.0345 0.843978 39.4895 1.14407C39.5513 1.18302 39.6131 1.22197 39.6768 1.26211C39.8882 1.4798 40.0004 1.69462 40.0192 2.00187C39.9973 2.3747 39.88 2.69569 39.6198 2.96753C39.4503 3.08339 39.276 3.18962 39.0988 3.29314C39.5443 4.12285 39.995 4.94905 40.4606 5.76772C40.7489 6.2756 41.0316 6.7865 41.313 7.29823C41.6946 7.99197 42.0811 8.68277 42.4717 9.3715C42.7317 9.83002 42.9891 10.29 43.2463 10.7501C43.4812 11.1703 43.7172 11.5899 43.9544 12.0089C44.0705 12.2154 44.1846 12.423 44.2985 12.6307C44.4166 12.8451 44.5377 13.0513 44.677 13.2524C45.5313 14.5519 45.0369 17.0011 44.751 18.4153C44.6287 18.9832 44.4803 19.5399 44.3087 20.095C44.3852 20.0936 44.4617 20.0923 44.5406 20.0908C44.8259 20.0861 45.1112 20.0831 45.3966 20.0807C45.5198 20.0794 45.643 20.0776 45.7663 20.0753C45.9439 20.0721 46.1216 20.0707 46.2993 20.0695C46.3539 20.0682 46.4085 20.0669 46.4648 20.0655C46.8423 20.0653 47.0597 20.1367 47.3695 20.3555C47.6079 20.682 47.5944 21.0128 47.5893 21.4015C47.59 21.4591 47.5908 21.5168 47.5915 21.5762C47.5901 21.8924 47.5856 22.1258 47.3695 22.3743C47.0373 22.6494 46.797 22.6706 46.385 22.6602C46.3292 22.6599 46.2733 22.6595 46.2158 22.6591C46.0387 22.6577 45.8616 22.6544 45.6844 22.6511C45.5638 22.6498 45.4432 22.6486 45.3227 22.6475C45.028 22.6446 44.7335 22.6402 44.4389 22.6348C44.4174 22.7422 44.3959 22.8497 44.3738 22.9604C44.4347 22.9566 44.4955 22.9529 44.5582 22.949C46.0197 22.8988 47.3288 23.4203 48.4114 24.3931C48.458 24.4305 48.5046 24.4678 48.5526 24.5063C48.949 24.8276 49.2895 25.2375 49.5185 25.6956C49.5417 26.113 49.5417 26.113 49.444 26.2751C49.3705 26.4142 49.3705 26.4142 49.4376 26.5717C49.467 26.6318 49.4964 26.6919 49.5267 26.7538C50.128 28.1197 50.1458 29.5779 49.6401 30.9797C49.5641 31.1559 49.4798 31.3229 49.3883 31.4916C49.3571 31.5534 49.3258 31.6151 49.2937 31.6788C48.6928 32.7989 47.7556 33.5536 46.588 34.0314C46.6486 34.0323 46.6486 34.0323 46.7104 34.0332C46.8935 34.0367 47.0765 34.0422 47.2596 34.0477C47.3232 34.0486 47.3868 34.0495 47.4523 34.0505C47.5133 34.0526 47.5744 34.0547 47.6373 34.0568C47.7217 34.0589 47.7217 34.0589 47.8079 34.061C47.9556 34.0965 47.9556 34.0965 48.0711 34.2152C48.1909 34.4279 48.1846 34.5732 48.1509 34.8129C48.0186 35.0057 47.913 35.1207 47.6781 35.1683C47.4873 35.1805 47.299 35.1814 47.1078 35.1793C47.0342 35.1797 46.9606 35.1802 46.8847 35.1807C46.6362 35.1818 46.3878 35.1806 46.1393 35.1794C45.9601 35.1795 45.7809 35.1802 45.6017 35.1808C45.2111 35.1819 44.8205 35.1817 44.4299 35.1808C43.8491 35.1794 43.2683 35.1799 42.6875 35.1808C41.6503 35.1822 40.6131 35.1818 39.576 35.1807C38.6683 35.1797 37.7607 35.1793 36.853 35.1795C36.7929 35.1795 36.7327 35.1796 36.6707 35.1796C36.4266 35.1796 36.1824 35.1797 35.9383 35.1798C33.6468 35.1804 31.3553 35.1792 29.0639 35.1772C27.027 35.1754 24.99 35.175 22.9531 35.176C22.4316 35.1763 21.91 35.1765 21.3885 35.1768C21.3243 35.1768 21.2601 35.1768 21.1939 35.1768C19.4931 35.1776 17.7923 35.1771 16.0915 35.1762C15.9085 35.1761 15.7256 35.1761 15.5426 35.176C15.4212 35.1759 15.2999 35.1758 15.1785 35.1758C14.2713 35.1753 13.3641 35.1755 12.4569 35.176C11.4256 35.1765 10.3944 35.1761 9.3631 35.1744C8.78557 35.1735 8.20804 35.1733 7.6305 35.1741C7.24512 35.1746 6.85975 35.1742 6.47437 35.1729C6.25453 35.1723 6.03472 35.1721 5.81487 35.1729C5.57841 35.1736 5.34201 35.1727 5.10556 35.1714C5.00245 35.1723 5.00245 35.1723 4.89725 35.1732C4.60593 35.1701 4.43616 35.1676 4.18293 35.0143C4.05278 34.8671 4.01935 34.811 4.02577 34.6175C4.02569 34.5745 4.02561 34.5315 4.02552 34.4873C4.08174 34.2887 4.15689 34.2211 4.3229 34.0965C4.52558 34.0561 4.72623 34.0571 4.93241 34.0568C4.99131 34.0558 5.05021 34.0547 5.11089 34.0536C5.29867 34.0504 5.48641 34.049 5.67421 34.0477C5.80166 34.0458 5.92911 34.0439 6.05656 34.0418C6.36869 34.037 6.6808 34.0338 6.99296 34.0314C6.92294 33.9974 6.85291 33.9633 6.78077 33.9283C6.68715 33.8823 6.59355 33.8363 6.49995 33.7902C6.45401 33.768 6.40806 33.7457 6.36072 33.7228C5.14487 33.1222 4.24955 32.0802 3.81005 30.7956C3.69301 30.441 3.63769 30.1033 3.60654 29.7332C3.54417 29.7346 3.4818 29.736 3.41753 29.7374C3.18402 29.7421 2.95052 29.7451 2.71698 29.7476C2.6163 29.7489 2.51562 29.7506 2.41496 29.7529C1.78093 29.7668 1.32675 29.7596 0.797332 29.3705C0.24979 28.8216 0.0136132 28.1384 0 27.372C0.00111665 26.8155 0.00830811 26.3256 0.285249 25.8258C0.317233 25.7663 0.317233 25.7663 0.349863 25.7055C0.571873 25.3757 0.958373 25.2647 1.32722 25.1746C1.43468 25.1746 1.54213 25.1746 1.65284 25.1746C1.65284 24.8308 1.65284 24.4869 1.65284 24.1326C1.50173 24.1085 1.50173 24.1085 1.34757 24.0838C1.0176 24.0175 0.80188 23.9224 0.60395 23.6386C0.51582 23.4006 0.525875 23.1624 0.526154 22.9118C0.525875 22.8566 0.525596 22.8014 0.525309 22.7444C0.524935 22.6278 0.524902 22.5112 0.525185 22.3945C0.52539 22.2164 0.523862 22.0384 0.522211 21.8603C0.522063 21.7468 0.522018 21.6333 0.522084 21.5198C0.521484 21.4668 0.520885 21.4137 0.520267 21.359C0.523237 20.9931 0.596748 20.7844 0.838798 20.502C1.04215 20.3325 1.25047 20.3484 1.50224 20.3514C1.56697 20.352 1.63169 20.3526 1.69838 20.3532C1.77254 20.3543 1.77254 20.3543 1.84821 20.3555C1.84745 20.3005 1.8467 20.2455 1.84592 20.1888C1.84221 19.6622 1.85088 19.1372 1.87007 18.6108C1.90855 17.53 1.92303 16.4494 1.93165 15.3679C1.93227 15.2901 1.93289 15.2123 1.93353 15.1322C1.93799 14.5641 1.94197 13.996 1.9459 13.428C1.95423 12.2335 1.96347 11.0391 1.97602 9.84475C1.97765 9.6874 1.97924 9.53006 1.98077 9.37271C1.9853 8.91107 1.9908 8.44946 1.99778 7.98786C1.99979 7.84635 2.00149 7.70483 2.00287 7.56332C2.01301 6.55701 2.06457 5.61487 2.47909 4.68109C2.50176 4.62892 2.52444 4.57675 2.54779 4.523C3.22589 3.00898 4.4919 1.8478 6.02731 1.23598C6.90209 0.90598 7.71422 0.845822 8.63902 0.850498Z" fill="#FFD700"/>
<path d="M8.63904 0.823155C8.7698 0.822854 8.90056 0.82244 9.03133 0.821923C9.38796 0.820843 9.74458 0.82137 10.1012 0.82218C10.4869 0.822772 10.8725 0.821859 11.2581 0.821143C11.9689 0.820054 12.6796 0.820145 13.3904 0.82086C14.0468 0.821516 14.7033 0.821686 15.3598 0.821375C15.4034 0.821355 15.447 0.821335 15.492 0.821315C15.6691 0.821234 15.8462 0.821151 16.0234 0.821065C17.6827 0.820269 19.3421 0.820989 21.0015 0.822392C22.475 0.823629 23.9485 0.823517 25.422 0.822272C27.0791 0.820877 28.7362 0.820324 30.3933 0.821129C30.57 0.821213 30.7466 0.821294 30.9233 0.821375C30.9668 0.821396 31.0103 0.821416 31.0551 0.821437C31.7114 0.821733 32.3677 0.821388 33.0239 0.820729C33.7699 0.819999 34.5159 0.820196 35.2619 0.821584C35.6425 0.822268 36.0231 0.822536 36.4037 0.821675C36.7521 0.820899 37.1004 0.821325 37.4488 0.822711C37.5748 0.823002 37.7009 0.822854 37.8269 0.822223C39.0346 0.816634 39.0346 0.816634 39.4896 1.11673C39.5513 1.15568 39.6131 1.19463 39.6768 1.23476C39.8883 1.45246 40.0004 1.66728 40.0192 1.97452C39.9973 2.34736 39.88 2.66835 39.6198 2.94018C39.4503 3.05605 39.276 3.16227 39.0988 3.2658C39.5444 4.09551 39.9951 4.92171 40.4606 5.74038C40.749 6.24825 41.0316 6.75915 41.313 7.27089C41.6946 7.96463 42.0811 8.65542 42.4718 9.34415C42.7317 9.80268 42.9892 10.2626 43.2463 10.7227C43.4812 11.143 43.7173 11.5626 43.9544 11.9817C44.0703 12.1877 44.1845 12.3945 44.2985 12.6016C44.4186 12.8195 44.5421 13.0322 44.677 13.2411C45.2089 14.1279 45.025 14.5688 45.025 15.7695C42.2098 15.7695 39.3945 15.7695 36.4939 15.7695C36.4724 15.0388 36.4509 14.3081 36.4288 13.5553C36.3616 13.0149 36.294 12.4833 36.2043 11.9476C36.1687 11.7342 36.1348 11.5206 36.1015 11.3069C36.0461 10.9523 35.9891 10.5979 35.9315 10.2437C35.8942 10.0142 35.8572 9.78475 35.8201 9.55526C35.7134 8.89438 35.6063 8.23358 35.4991 7.57278C35.4311 7.15355 35.3632 6.73428 35.2955 6.315C35.2573 6.07893 35.2189 5.8429 35.1804 5.60687C35.1569 5.46164 35.1335 5.3164 35.11 5.17117C35.0994 5.10633 35.0888 5.0415 35.0778 4.97471C35.063 4.88271 35.063 4.88271 35.0479 4.78885C35.0394 4.73651 35.0309 4.68417 35.0222 4.63024C34.9841 4.35003 34.9591 4.06818 34.9309 3.78679C31.7073 3.78679 28.4837 3.78679 25.1624 3.78679C25.1624 6.21524 25.1624 8.64369 25.1624 11.1457C25.6137 11.1457 26.065 11.1457 26.53 11.1457C26.9943 11.4553 26.9943 11.4553 27.1161 11.797C27.1346 11.9678 27.1435 12.1229 27.1424 12.2934C27.1431 12.3656 27.1431 12.3656 27.1438 12.4392C27.145 12.5974 27.1447 12.7555 27.1443 12.9137C27.1446 13.0243 27.145 13.135 27.1454 13.2456C27.146 13.4771 27.1458 13.7087 27.1452 13.9402C27.1444 14.236 27.1457 14.5317 27.1476 14.8275C27.1488 15.0559 27.1488 15.2843 27.1484 15.5127C27.1484 15.6217 27.1488 15.7307 27.1496 15.8397C27.1572 17.0226 27.1572 17.0226 26.7163 17.4756C26.6563 17.5337 26.6563 17.5337 26.5951 17.5929C26.669 17.5933 26.7429 17.5937 26.8191 17.5941C27.5166 17.5978 28.2141 17.6026 28.9117 17.6083C29.2702 17.6112 29.6288 17.6138 29.9874 17.6155C30.3336 17.6172 30.6799 17.6198 31.0261 17.6231C31.158 17.6242 31.2899 17.6249 31.4218 17.6254C31.607 17.626 31.7922 17.6278 31.9773 17.6299C32.0315 17.6298 32.0856 17.6297 32.1414 17.6296C32.6305 17.6374 33.081 17.7521 33.4331 18.1139C33.6861 18.4955 33.7343 18.8357 33.7261 19.2862C33.7271 19.3416 33.7281 19.397 33.7292 19.4541C33.7266 19.8808 33.632 20.2319 33.3457 20.5578C32.8448 21.0168 32.2611 20.9142 31.6096 20.9142C31.6096 22.6335 31.6096 24.3528 31.6096 26.1241C32.8346 26.1241 34.0596 26.1241 35.3217 26.1241C35.065 26.723 34.8174 27.1433 34.2154 27.4212C33.6652 27.6072 33.1035 27.5852 32.5303 27.5828C32.4181 27.5829 32.3059 27.5831 32.1937 27.5833C31.9598 27.5836 31.726 27.5832 31.4921 27.5823C31.1927 27.5812 30.8933 27.5818 30.5939 27.583C30.3627 27.5837 30.1316 27.5835 29.9005 27.583C29.79 27.5828 29.6796 27.583 29.5692 27.5835C29.4151 27.584 29.261 27.5832 29.1069 27.5821C29.0616 27.5825 29.0163 27.5829 28.9696 27.5833C28.6877 27.5796 28.5088 27.5395 28.2883 27.3615C28.0765 27.1004 28.0657 26.8589 28.07 26.5349C28.0698 26.4855 28.0697 26.4361 28.0695 26.3852C28.0693 26.2783 28.0696 26.1714 28.0702 26.0646C28.0711 25.895 28.0707 25.7256 28.0699 25.556C28.0679 25.0742 28.0682 24.5924 28.0695 24.1106C28.0702 23.8155 28.0693 23.5204 28.0675 23.2253C28.0672 23.1132 28.0675 23.0011 28.0684 22.889C28.1024 22.1347 28.1024 22.1347 27.8129 21.4666C27.2991 21.0186 26.7575 20.9946 26.0986 20.9916C26.0145 20.9899 25.9305 20.9883 25.8439 20.9866C25.6384 20.9828 25.433 20.9804 25.2275 20.9794C25.2282 21.0577 25.2282 21.0578 25.2288 21.1377C25.2328 21.633 25.2357 22.1282 25.2377 22.6235C25.2387 22.878 25.24 23.1326 25.2423 23.3871C25.2444 23.6333 25.2456 23.8794 25.2461 24.1256C25.2464 24.219 25.2471 24.3124 25.2482 24.4058C25.2577 25.2739 25.1457 26.1369 24.5463 26.8117C24.0182 27.3063 23.3712 27.5639 22.6527 27.5663C22.6105 27.5665 22.5683 27.5667 22.5249 27.5669C22.3857 27.5676 22.2464 27.5677 22.1072 27.5678C22.0098 27.568 21.9125 27.5682 21.8151 27.5684C21.611 27.5688 21.4068 27.5689 21.2026 27.5689C20.9424 27.5689 20.6823 27.5698 20.4222 27.5709C20.221 27.5716 20.0197 27.5718 19.8185 27.5717C19.7227 27.5718 19.6269 27.5721 19.5311 27.5726C18.553 27.5773 17.7353 27.4879 16.9976 26.7835C16.3535 26.0855 16.1649 25.2752 16.0751 24.347C15.9805 23.378 15.8727 22.4108 15.7524 21.4447C15.7358 21.3101 15.7195 21.1754 15.7036 21.0407C15.5527 19.7687 15.3689 18.6601 14.3336 17.7886C13.4312 17.1234 12.4153 17.0415 11.3308 17.0498C11.228 17.0498 11.1252 17.0498 11.0224 17.0497C10.7467 17.0496 10.4709 17.0508 10.1951 17.0522C9.9057 17.0534 9.61628 17.0535 9.32686 17.0537C8.78027 17.0543 8.23368 17.0559 7.6871 17.0579C7.0642 17.0601 6.44131 17.0611 5.81841 17.0621C4.53843 17.0642 3.19333 17.1001 1.91336 17.1045C1.91181 16.1854 1.9758 15.2337 1.9751 14.3146C1.97477 13.8874 1.97432 13.4602 1.97356 13.0331C1.97067 11.3391 1.96996 9.64509 1.99591 7.95133C1.99799 7.81033 1.99978 7.66934 2.00125 7.52834C2.01231 6.52538 2.06603 5.58427 2.47911 4.65374C2.50178 4.60157 2.52446 4.5494 2.54781 4.49566C3.22591 2.98164 4.49192 1.82045 6.02733 1.20864C6.90211 0.878636 7.71424 0.818479 8.63904 0.823155Z" fill="#141F20"/>
<path d="M44.2435 20.0959C44.6155 20.0895 44.9873 20.0847 45.3593 20.0816C45.4857 20.0803 45.6121 20.0785 45.7384 20.0763C45.9206 20.0731 46.1028 20.0716 46.285 20.0705C46.3411 20.0691 46.3971 20.0678 46.4549 20.0664C46.8365 20.0663 47.0567 20.1346 47.3695 20.3564C47.6079 20.6829 47.5944 21.0138 47.5893 21.4025C47.59 21.4601 47.5908 21.5177 47.5916 21.5771C47.5901 21.8933 47.5856 22.1267 47.3695 22.3752C47.0373 22.6504 46.797 22.6715 46.385 22.6612C46.3292 22.6608 46.2733 22.6604 46.2158 22.6601C46.0387 22.6586 45.8616 22.6553 45.6844 22.652C45.5638 22.6507 45.4432 22.6495 45.3227 22.6485C45.028 22.6456 44.7335 22.6411 44.4389 22.6357C44.4174 22.7432 44.3959 22.8506 44.3738 22.9613C44.4347 22.9576 44.4955 22.9538 44.5582 22.9499C46.0197 22.8997 47.3288 23.4213 48.4114 24.3941C48.4813 24.4501 48.4813 24.4501 48.5526 24.5073C48.949 24.8285 49.2895 25.2384 49.5185 25.6965C49.5417 26.1139 49.5417 26.1139 49.444 26.276C49.3705 26.4152 49.3705 26.4152 49.4377 26.5726C49.467 26.6328 49.4964 26.6929 49.5267 26.7548C50.128 28.1206 50.1458 29.5788 49.6401 30.9807C49.5641 31.1569 49.4798 31.3239 49.3883 31.4925C49.3571 31.5543 49.3258 31.6161 49.2937 31.6797C48.6928 32.7998 47.7556 33.5546 46.588 34.0323C46.6486 34.0332 46.6486 34.0332 46.7104 34.0342C46.8935 34.0377 47.0765 34.0431 47.2596 34.0486C47.3232 34.0495 47.3868 34.0505 47.4523 34.0514C47.5133 34.0535 47.5744 34.0556 47.6373 34.0578C47.6936 34.0591 47.7499 34.0605 47.8079 34.0619C47.9556 34.0975 47.9556 34.0975 48.0711 34.2162C48.1909 34.4289 48.1846 34.5741 48.151 34.8138C48.0186 35.0066 47.913 35.1217 47.6781 35.1692C47.4873 35.1814 47.299 35.1824 47.1078 35.1802C46.9974 35.1809 46.9974 35.1809 46.8847 35.1816C46.6362 35.1827 46.3878 35.1815 46.1393 35.1803C45.9601 35.1805 45.7809 35.1811 45.6017 35.1817C45.2111 35.1828 44.8205 35.1827 44.4299 35.1817C43.8491 35.1804 43.2683 35.1809 42.6875 35.1817C41.6503 35.1832 40.6132 35.1828 39.576 35.1816C38.6683 35.1806 37.7607 35.1802 36.853 35.1805C36.7929 35.1805 36.7327 35.1805 36.6707 35.1805C36.4266 35.1806 36.1824 35.1806 35.9383 35.1807C33.6468 35.1814 31.3554 35.1802 29.0639 35.1781C27.027 35.1763 24.99 35.176 22.9531 35.177C22.4316 35.1772 21.91 35.1775 21.3885 35.1777C21.3243 35.1777 21.2601 35.1777 21.1939 35.1778C19.4931 35.1785 17.7923 35.178 16.0915 35.1772C15.9085 35.1771 15.7256 35.177 15.5426 35.1769C15.4212 35.1769 15.2999 35.1768 15.1785 35.1767C14.2713 35.1763 13.3641 35.1765 12.4569 35.1769C11.4256 35.1774 10.3944 35.177 9.36311 35.1753C8.78557 35.1744 8.20804 35.1742 7.6305 35.1751C7.24512 35.1756 6.85975 35.1751 6.47438 35.1739C6.25453 35.1732 6.03472 35.1731 5.81487 35.1738C5.57841 35.1745 5.34201 35.1737 5.10556 35.1724C5.03682 35.173 4.96808 35.1736 4.89725 35.1742C4.60593 35.1711 4.43616 35.1686 4.18293 35.0153C4.05279 34.8681 4.01935 34.812 4.02577 34.6184C4.02565 34.554 4.02565 34.554 4.02552 34.4882C4.08174 34.2897 4.15689 34.222 4.3229 34.0975C4.52558 34.057 4.72623 34.0581 4.93241 34.0578C4.99131 34.0567 5.05021 34.0556 5.11089 34.0545C5.29867 34.0513 5.48641 34.05 5.67421 34.0486C5.80166 34.0468 5.92911 34.0448 6.05656 34.0428C6.36869 34.0379 6.6808 34.0347 6.99296 34.0323C6.92294 33.9983 6.85291 33.9643 6.78077 33.9292C6.68715 33.8832 6.59355 33.8372 6.49996 33.7912C6.45401 33.7689 6.40806 33.7467 6.36073 33.7237C5.14487 33.1231 4.24955 32.0811 3.81005 30.7965C3.69301 30.4419 3.63769 30.1043 3.60654 29.7342C3.54417 29.7355 3.4818 29.7369 3.41753 29.7383C3.18402 29.7431 2.95052 29.746 2.71698 29.7485C2.6163 29.7498 2.51562 29.7516 2.41496 29.7538C1.78093 29.7678 1.32675 29.7605 0.797333 29.3714C0.24979 28.8225 0.0136132 28.1394 0 27.373C0.00132019 26.715 0.034382 26.1492 0.435847 25.5988C0.710909 25.343 0.967891 25.2291 1.34223 25.2361C1.42324 25.2376 1.50425 25.2391 1.58772 25.2407C1.58867 25.3152 1.58962 25.3898 1.59059 25.4666C1.59439 25.7447 1.59942 26.0227 1.60481 26.3008C1.60697 26.4208 1.60879 26.5409 1.61028 26.661C1.61248 26.8341 1.61588 27.0072 1.61952 27.1804C1.61993 27.2336 1.62035 27.2868 1.62078 27.3416C1.63111 27.7489 1.69713 28.0764 1.9866 28.3829C2.23209 28.5323 2.48484 28.6131 2.75994 28.6922C2.75616 28.6549 2.75238 28.6175 2.74849 28.579C2.69368 27.547 3.10969 26.577 3.60654 25.6965C3.6397 25.634 3.67286 25.5714 3.70703 25.507C4.46283 24.1877 5.7902 23.3379 7.20665 22.8944C8.62191 22.5288 10.1734 22.7351 11.4307 23.4723C12.8464 24.3529 13.9028 25.7572 14.2868 27.3897C14.409 28.0006 14.4822 28.5896 14.4822 29.2132C22.0469 29.2132 29.6116 29.2132 37.4056 29.2132C37.2506 29.3682 37.1326 29.4041 36.9253 29.4737C36.863 29.4952 36.8007 29.5167 36.7365 29.5388C36.0857 29.7135 35.4519 29.7533 34.7803 29.7523C34.6885 29.7526 34.5968 29.753 34.5051 29.7535C34.2551 29.7545 34.0052 29.7547 33.7552 29.7548C33.4849 29.755 33.2146 29.756 32.9442 29.7569C32.4766 29.7584 32.0089 29.7594 31.5412 29.76C30.8651 29.761 30.1889 29.7626 29.5127 29.7645C28.4156 29.7674 27.3184 29.7698 26.2212 29.7718C25.1557 29.7738 24.0903 29.776 23.0249 29.7786C22.9263 29.7789 22.9263 29.7789 22.8257 29.7791C22.4958 29.7799 22.166 29.7807 21.8362 29.7816C19.1027 29.7883 16.3691 29.7941 13.6355 29.7993C13.6224 29.8621 13.6093 29.9249 13.5958 29.9897C13.5784 30.0719 13.561 30.1542 13.5431 30.239C13.5174 30.3614 13.5174 30.3614 13.4911 30.4863C13.2084 31.7334 12.3433 32.82 11.283 33.5073C10.9426 33.7215 10.6246 33.8655 10.2491 34.0323C21.1019 34.0323 31.9548 34.0323 43.1365 34.0323C42.8356 33.8819 42.5347 33.7315 42.2247 33.5765C42.0187 33.4278 41.8298 33.2845 41.6386 33.1206C41.5811 33.077 41.5811 33.077 41.5224 33.0326C40.5686 32.2896 40.0097 31.0317 39.8152 29.8644C39.8048 29.6963 39.7965 29.5281 39.7907 29.3597C39.785 29.1411 39.785 29.1411 39.75 28.9527C39.5753 28.7819 39.5753 28.7819 39.3593 28.6922C39.0988 28.3495 39.0988 28.3495 39.0988 28.1712C39.2017 28.0822 39.3083 27.9975 39.4163 27.9148C40.8909 26.7283 41.8069 24.9906 42.6534 23.3354C42.7374 23.1728 42.8231 23.0114 42.91 22.8504C43.3951 21.9511 43.8198 21.0252 44.2435 20.0959Z" fill="#131E1F"/>
<path d="M14.1734 3.80496C14.2555 3.80487 14.3376 3.80478 14.4221 3.80469C14.5126 3.80492 14.6031 3.80515 14.6935 3.8054C14.7892 3.80542 14.8848 3.80541 14.9805 3.80537C15.2397 3.80535 15.499 3.80573 15.7582 3.80619C16.0293 3.80659 16.3004 3.80663 16.5715 3.80671C17.0847 3.80691 17.5978 3.80745 18.111 3.8081C18.6953 3.80883 19.2796 3.80919 19.8639 3.80951C21.0657 3.81019 22.2674 3.81134 23.4692 3.81279C23.4737 6.48475 23.4771 9.1567 23.4792 11.8287C23.4794 12.144 23.4797 12.4594 23.48 12.7748C23.48 12.8376 23.4801 12.9004 23.4801 12.9651C23.481 13.982 23.4825 14.9989 23.4843 16.0158C23.4861 17.0591 23.4872 18.1024 23.4876 19.1457C23.4879 19.7896 23.4887 20.4334 23.4903 21.0773C23.4913 21.5187 23.4917 21.9601 23.4914 22.4015C23.4913 22.6563 23.4915 22.911 23.4925 23.1657C23.4935 23.399 23.4935 23.6323 23.4928 23.8656C23.4927 23.9898 23.4936 24.114 23.4944 24.2383C23.4912 24.8633 23.373 25.2416 22.9459 25.7075C22.5781 26.0439 22.147 26.1557 21.6568 26.1616C21.5961 26.1625 21.5354 26.1633 21.4729 26.1642C21.4081 26.1647 21.3432 26.1651 21.2764 26.1656C21.2089 26.1662 21.1413 26.1667 21.0718 26.1672C20.929 26.1681 20.7862 26.1688 20.6435 26.1693C20.4981 26.1701 20.3527 26.1714 20.2073 26.1733C19.9966 26.1761 19.7858 26.1772 19.575 26.1779C19.4786 26.1796 19.4786 26.1796 19.3801 26.1813C18.7528 26.1794 18.3067 25.9758 17.8506 25.5505C17.458 25.142 17.3407 24.7196 17.2967 24.1664C17.2929 24.1203 17.2891 24.0742 17.2851 24.0266C17.2729 23.8798 17.2614 23.7328 17.2499 23.5859C17.2346 23.3941 17.219 23.2022 17.2031 23.0105C17.1972 22.9378 17.1972 22.9378 17.1912 22.8636C17.1659 22.5635 17.1294 22.267 17.0866 21.9687C17.0215 21.4683 16.9972 20.9688 16.9757 20.4648C16.9703 20.3386 16.9703 20.3386 16.9647 20.2098C16.9499 19.8582 16.9355 19.5066 16.9226 19.1549C16.9161 18.9796 16.9091 18.8043 16.9013 18.629C16.8941 18.4657 16.8878 18.3023 16.8826 18.1389C16.8531 17.5027 16.7386 16.8871 16.2866 16.4098C15.8956 16.0815 15.4641 15.9856 14.963 15.9775C14.8914 15.9762 14.8197 15.9749 14.7458 15.9736C14.6691 15.9725 14.5925 15.9714 14.5135 15.9703C14.3949 15.9682 14.3949 15.9682 14.274 15.9662C14.0218 15.9619 13.7697 15.9581 13.5176 15.9542C13.3465 15.9514 13.1754 15.9486 13.0043 15.9457C12.5852 15.9387 12.1661 15.9321 11.747 15.9257C11.6986 13.6102 11.6712 11.2944 11.6632 8.97843C11.6622 8.71266 11.6606 8.4469 11.6585 8.18114C11.656 7.8641 11.6548 7.54709 11.6546 7.23005C11.6543 7.11268 11.6536 6.99531 11.6524 6.87795C11.6429 5.91653 11.7596 5.18596 12.4534 4.47013C12.9537 4.00068 13.4913 3.80438 14.1734 3.80496Z" fill="#FDF9EE"/>
<path d="M25.1624 3.8125C28.386 3.8125 31.6096 3.8125 34.9309 3.8125C35.6037 7.69985 35.6037 7.69985 35.8629 9.42939C35.9154 9.77709 35.9681 10.1247 36.0209 10.4724C36.0333 10.5543 36.0457 10.6363 36.0585 10.7207C36.1484 11.3114 36.2442 11.9009 36.3459 12.4897C36.451 13.1042 36.504 13.6967 36.5048 14.3205C36.505 14.391 36.5053 14.4615 36.5056 14.5341C36.5063 14.7632 36.5063 14.9922 36.506 15.2213C36.5059 15.3396 36.5059 15.3396 36.5058 15.4604C36.4998 18.4625 36.2219 21.3999 35.7327 24.363C35.7186 24.4491 35.7186 24.4491 35.7042 24.5369C35.6775 24.6989 35.6499 24.8608 35.622 25.0226C35.6105 25.0923 35.6105 25.0923 35.5986 25.1634C35.5366 25.5131 35.4369 25.8039 35.3216 26.1498C34.0966 26.1498 32.8717 26.1498 31.6096 26.1498C31.6096 24.4306 31.6096 22.7113 31.6096 20.94C31.9319 20.9185 32.2543 20.897 32.5864 20.8748C33.0408 20.7696 33.2419 20.6769 33.4981 20.2887C33.7624 19.7884 33.7186 18.9875 33.5714 18.4541C33.4012 18.1205 33.1862 17.9621 32.8469 17.814C32.6685 17.7609 32.5085 17.7403 32.3227 17.7386C32.2708 17.738 32.219 17.7373 32.1655 17.7367C32.1092 17.7363 32.0529 17.7359 31.9949 17.7355C31.9352 17.7349 31.8754 17.7342 31.8139 17.7336C31.6165 17.7315 31.4192 17.7299 31.2219 17.7283C31.085 17.727 30.9481 17.7256 30.8113 17.7242C30.4511 17.7206 30.0909 17.7174 29.7308 17.7142C29.3632 17.711 28.9957 17.7073 28.6281 17.7038C27.907 17.6968 27.1859 17.6901 26.4648 17.6838C26.5155 17.6344 26.5661 17.585 26.6183 17.5341C27.1434 16.9974 27.0885 16.405 27.0832 15.7031C27.0832 15.5924 27.0833 15.4816 27.0835 15.3709C27.0836 15.1395 27.0828 14.9082 27.0813 14.6769C27.0795 14.381 27.0796 14.0851 27.0805 13.7892C27.0809 13.5608 27.0804 13.3324 27.0796 13.104C27.0793 12.9949 27.0793 12.8858 27.0796 12.7767C27.0797 12.6242 27.0787 12.4716 27.0772 12.3191C27.0775 12.2744 27.0778 12.2298 27.0781 12.1837C27.0736 11.8865 27.0194 11.6805 26.8556 11.4319C26.3975 11.1222 26.3975 11.1222 25.1624 11.1714C25.1624 8.74299 25.1624 6.31454 25.1624 3.8125Z" fill="#FDF9EE"/>
<path d="M10.1406 26.2416C10.2711 26.3345 10.39 26.4332 10.5095 26.5397C10.548 26.5708 10.5866 26.6018 10.6263 26.6338C11.0936 27.0444 11.4965 27.8055 11.5656 28.4248C11.6216 29.4234 11.4398 30.3026 10.7967 31.0958C10.2858 31.6464 9.61359 31.9849 8.8654 32.0307C8.02076 32.062 7.33375 31.908 6.66723 31.3589C5.98175 30.713 5.6291 29.8909 5.60083 28.9493C5.62787 28.0853 5.94298 27.2944 6.53469 26.6598C7.57146 25.7205 8.93367 25.5069 10.1406 26.2416Z" fill="#FBF8EE"/>
<path d="M37.5074 3.40234C38.0053 3.67042 38.2427 4.34265 38.4869 4.82878C38.6012 5.05621 38.7172 5.28278 38.8331 5.50944C38.8675 5.57701 38.8675 5.57701 38.9027 5.64595C39.0908 6.01405 39.2859 6.37797 39.4856 6.73992C39.8061 7.32166 40.119 7.90723 40.4299 8.49418C40.757 9.11155 41.0854 9.72811 41.4189 10.3421C41.7152 10.8877 42.0109 11.4337 42.3048 11.9806C42.3488 12.0626 42.3929 12.1444 42.4371 12.2263C42.4984 12.34 42.5595 12.4538 42.6207 12.5677C42.6558 12.6331 42.691 12.6985 42.7273 12.7659C42.8109 12.9307 42.8109 12.9307 42.8761 13.1261C42.4243 13.1311 41.9725 13.1345 41.5206 13.1368C41.3672 13.1378 41.2137 13.1391 41.0602 13.1408C40.8387 13.1432 40.6173 13.1443 40.3958 13.1452C40.3279 13.1462 40.26 13.1472 40.1901 13.1482C39.5043 13.1484 38.9599 13.0058 38.4477 12.54C37.9584 12.0371 37.8488 11.3437 37.7178 10.6801C37.6989 10.587 37.6799 10.4938 37.6609 10.4007C37.6109 10.1553 37.5617 9.9098 37.5127 9.66423C37.4644 9.42272 37.4154 9.18136 37.3664 8.94C37.3079 8.65188 37.2496 8.36373 37.1919 8.07545C37.0924 7.57843 36.9904 7.0821 36.8841 6.58649C36.8522 6.43668 36.8204 6.28686 36.7886 6.13704C36.7684 6.04244 36.7479 5.9479 36.7271 5.85343C36.4243 4.47614 36.4243 4.47614 36.6934 3.98438C36.9004 3.69996 37.1468 3.44632 37.5074 3.40234Z" fill="#FDCD14"/>
<path d="M44.7644 25.8242C45.6078 25.7581 46.2839 26.1188 46.911 26.6484C47.4456 27.1434 47.8155 27.8298 47.8535 28.5627C47.855 28.6769 47.8551 28.7912 47.8537 28.9054C47.8532 28.9654 47.8527 29.0255 47.8521 29.0873C47.8313 29.9302 47.5516 30.5659 46.972 31.1788C46.3814 31.7371 45.6888 32.0376 44.8743 32.0313C44.8013 32.0308 44.8013 32.0308 44.7268 32.0303C43.9049 32.013 43.2237 31.6799 42.6245 31.1226C41.9946 30.4283 41.7968 29.638 41.8199 28.7225C41.8716 27.8794 42.2398 27.1079 42.8759 26.5406C42.9188 26.5406 42.9618 26.5406 43.0061 26.5406C43.1111 26.733 43.2116 26.9275 43.3114 27.1226C43.341 27.1767 43.3706 27.2308 43.401 27.2866C43.6046 27.6921 43.6046 27.6921 43.5685 27.9428C43.5197 28.0891 43.4629 28.2249 43.3969 28.364C43.2371 28.8432 43.3139 29.3461 43.5271 29.7967C43.7676 30.1757 44.0815 30.3656 44.5039 30.5131C44.9626 30.5933 45.3717 30.4805 45.7525 30.2216C46.144 29.9087 46.2941 29.6361 46.3498 29.1425C46.3733 28.6421 46.3067 28.2487 46.0018 27.843C45.7839 27.6319 45.5691 27.4819 45.2806 27.3851C44.9882 27.1884 44.9709 26.9344 44.9028 26.6016C44.8891 26.5415 44.8753 26.4813 44.8611 26.4194C44.7644 25.9897 44.7644 25.9897 44.7644 25.8242Z" fill="#FCF8EE"/>
<path d="M14.352 28.4297C14.5359 28.7055 14.4823 28.8287 14.4823 29.2112C22.047 29.2112 29.6117 29.2112 37.4057 29.2112C36.822 29.7949 35.5623 29.7425 34.7828 29.7453C34.528 29.7451 34.2733 29.7431 34.0185 29.741C33.8772 29.7403 33.7359 29.7397 33.5946 29.7391C33.2142 29.7374 32.8337 29.7349 32.4533 29.7322C32.0545 29.7296 31.6558 29.7277 31.257 29.7257C30.5033 29.7218 29.7496 29.7173 28.9959 29.7125C28.1372 29.7071 27.2786 29.7025 26.4199 29.6979C24.6549 29.6885 22.8899 29.6781 21.1249 29.667C21.0926 29.6026 21.0926 29.6026 21.0597 29.5368C21.1672 29.5153 21.2746 29.4938 21.3853 29.4717C21.3322 29.4714 21.3322 29.4714 21.2781 29.4712C20.4172 29.4673 19.5562 29.4624 18.6953 29.4563C18.279 29.4534 17.8627 29.4508 17.4463 29.4491C17.0447 29.4474 16.6432 29.4448 16.2416 29.4415C16.0882 29.4404 15.9348 29.4397 15.7813 29.4393C15.5669 29.4386 15.3525 29.4368 15.1381 29.4347C15.0424 29.4348 15.0424 29.4348 14.9446 29.435C14.8863 29.4342 14.8279 29.4333 14.7678 29.4325C14.7171 29.4322 14.6664 29.4319 14.6141 29.4316C14.4478 29.4 14.3894 29.3436 14.2869 29.2112C14.2655 29.0707 14.2655 29.0707 14.2706 28.9181C14.2716 28.8677 14.2726 28.8174 14.2737 28.7655C14.2869 28.6251 14.2869 28.6251 14.352 28.4297Z" fill="#141B25"/>
<path d="M9.30068 27.4229C9.65131 27.633 9.94409 27.9691 10.0878 28.3543C10.2051 28.8804 10.1688 29.3774 9.8985 29.8462C9.61515 30.2364 9.30151 30.498 8.81633 30.5774C8.34225 30.6204 7.9672 30.4986 7.59526 30.207C7.24369 29.8747 7.11483 29.5833 7.08914 29.0947C7.07959 28.6005 7.13339 28.1746 7.44874 27.777C7.94937 27.3027 8.64581 27.126 9.30068 27.4229Z" fill="#141E1F"/>
<path d="M1.46964 20.3489C1.52832 20.3495 1.587 20.35 1.64746 20.3506C1.6922 20.3514 1.73695 20.3522 1.78305 20.3529C1.79342 21.5921 1.76463 22.8269 1.71792 24.065C1.62484 24.068 1.53172 24.0701 1.4386 24.0718C1.38676 24.0731 1.33491 24.0744 1.28149 24.0757C1.04483 24.0587 0.915781 23.9584 0.741071 23.8045C0.512737 23.5131 0.5171 23.2575 0.519753 22.9029C0.519566 22.8478 0.519379 22.7926 0.519187 22.7358C0.519054 22.6196 0.519412 22.5033 0.52023 22.3871C0.521276 22.2095 0.520239 22.0321 0.51899 21.8546C0.519119 21.7414 0.519369 21.6282 0.519753 21.515C0.519358 21.4621 0.518962 21.4093 0.518555 21.3548C0.523066 20.9902 0.597592 20.7808 0.838756 20.4995C1.03363 20.3371 1.22814 20.3457 1.46964 20.3489Z" fill="#121C1F"/>
<path d="M14.0263 3.8125C17.1425 3.8125 20.2586 3.8125 23.4692 3.8125C23.4718 9.08333 23.4718 9.08333 23.4724 11.2802C23.4725 11.7831 23.4726 12.286 23.4728 12.7888C23.4728 12.8519 23.4728 12.9149 23.4728 12.9798C23.4731 13.9984 23.4736 15.017 23.4742 16.0356C23.4748 17.0804 23.4752 18.1251 23.4753 19.1699C23.4754 19.815 23.4757 20.46 23.4762 21.1051C23.4766 21.547 23.4767 21.9889 23.4766 22.4308C23.4765 22.686 23.4766 22.9413 23.477 23.1965C23.4773 23.4299 23.4773 23.6634 23.4771 23.8968C23.477 24.0217 23.4773 24.1467 23.4776 24.2716C23.4775 24.3453 23.4773 24.4189 23.4772 24.4948C23.4772 24.5586 23.4773 24.6225 23.4773 24.6882C23.4692 24.8474 23.4692 24.8474 23.4041 25.0427C23.3611 25.0427 23.3181 25.0427 23.2738 25.0427C23.2953 18.0797 23.3168 11.1167 23.339 3.94275C20.2443 3.94275 17.1496 3.94275 13.9612 3.94275C13.9827 3.89977 14.0042 3.85678 14.0263 3.8125Z" fill="#FDFDFB"/>
<path d="M36.4939 13.5156C36.5154 13.5156 36.5369 13.5156 36.559 13.5156C36.559 14.2033 36.559 14.891 36.559 15.5996C37.6363 15.5925 38.7135 15.5853 39.7907 15.5775C40.2909 15.5739 40.791 15.5704 41.2912 15.5672C41.7269 15.5644 42.1627 15.5614 42.5985 15.5581C42.8294 15.5564 43.0602 15.5547 43.2911 15.5534C43.5484 15.5519 43.8058 15.5499 44.0631 15.5478C44.1402 15.5474 44.2173 15.5471 44.2967 15.5467C44.3664 15.546 44.4361 15.5454 44.5079 15.5448C44.5993 15.5441 44.5993 15.5441 44.6925 15.5435C44.8288 15.5496 44.8288 15.5496 44.8948 15.4693C44.905 15.3821 44.9111 15.2943 44.9154 15.2065C44.9181 15.1539 44.9209 15.1012 44.9237 15.0469C44.9262 14.9916 44.9288 14.9362 44.9314 14.8791C44.9357 14.7957 44.9357 14.7957 44.94 14.7106C44.9469 14.5728 44.9535 14.435 44.9599 14.2971C44.9814 14.2971 45.0029 14.2971 45.0251 14.2971C45.0251 14.7914 45.0251 15.2857 45.0251 15.7949C42.2098 15.7949 39.3945 15.7949 36.4939 15.7949C36.4939 15.0428 36.4939 14.2906 36.4939 13.5156Z" fill="#2C2920"/>
<path d="M14.352 28.4297C14.5359 28.7055 14.4822 28.8287 14.4822 29.2112C21.1873 29.2112 27.8924 29.2112 34.8007 29.2112C34.8007 29.2327 34.8007 29.2541 34.8007 29.2763C29.3636 29.2978 23.9264 29.3193 18.3245 29.3414C18.3245 29.3629 18.3245 29.3844 18.3245 29.4065C17.8269 29.4111 17.3293 29.4145 16.8317 29.4167C16.6007 29.4177 16.3696 29.4191 16.1386 29.4213C15.873 29.4238 15.6074 29.4248 15.3418 29.4256C15.2588 29.4266 15.1757 29.4276 15.0902 29.4287C15.0133 29.4287 14.9363 29.4287 14.8571 29.4287C14.7554 29.4294 14.7554 29.4294 14.6516 29.43C14.4822 29.4065 14.4822 29.4065 14.3624 29.3162C14.2622 29.1769 14.2649 29.0883 14.2706 28.9181C14.2716 28.8677 14.2726 28.8174 14.2736 28.7655C14.2868 28.6251 14.2868 28.6251 14.352 28.4297Z" fill="#655A25"/>
<path d="M32.1346 20.7245C32.1824 20.7243 32.2301 20.7241 32.2792 20.7239C32.6341 20.7275 32.6341 20.7275 32.7818 20.8751C32.4105 20.9989 32.0009 20.9402 31.6096 20.9402C31.6096 22.6595 31.6096 24.3788 31.6096 26.1501C31.5451 26.1286 31.4806 26.1071 31.4142 26.085C31.4097 25.4176 31.4062 24.7502 31.4041 24.0827C31.4031 23.7728 31.4017 23.4629 31.3995 23.1531C31.3973 22.8541 31.3962 22.5551 31.3957 22.2562C31.3953 22.142 31.3946 22.0278 31.3935 21.9137C31.3921 21.754 31.3919 21.5944 31.392 21.4347C31.3913 21.3873 31.3906 21.3399 31.3899 21.291C31.391 21.1037 31.3933 20.9719 31.4981 20.8131C31.6933 20.6936 31.9131 20.7196 32.1346 20.7245Z" fill="#28302F"/>
<path d="M11.5515 7.98047C11.573 7.98047 11.5945 7.98047 11.6166 7.98047C11.6381 9.22693 11.6596 10.4734 11.6818 11.7576C11.7033 11.7576 11.7247 11.7576 11.7469 11.7576C11.7485 12.0123 11.7497 12.2669 11.7505 12.5216C11.7509 12.6498 11.7518 12.778 11.7526 12.9062C11.7555 14.0363 11.7555 14.0363 11.6818 14.4277C11.6173 14.4599 11.6173 14.4599 11.5515 14.4928C11.5515 12.3437 11.5515 10.1947 11.5515 7.98047Z" fill="#232D2C"/>
<path d="M11.6819 5.83203C11.8485 6.16528 11.8856 6.42261 11.8836 6.79184C11.8834 6.86131 11.8832 6.93077 11.883 7.00234C11.8824 7.07416 11.8819 7.14598 11.8813 7.21997C11.881 7.29305 11.8807 7.36613 11.8804 7.44142C11.8797 7.62132 11.8786 7.80121 11.8773 7.9811C11.8558 7.9811 11.8343 7.9811 11.8121 7.9811C11.7906 9.22757 11.7692 10.474 11.747 11.7583C11.7255 11.7583 11.704 11.7583 11.6819 11.7583C11.6819 9.80261 11.6819 7.84695 11.6819 5.83203Z" fill="#DCDBD4"/>
<path d="M25.2275 21.0078C27.051 21.0078 27.051 21.0078 27.7022 21.3334C27.9098 21.5654 27.9098 21.5654 28.0278 21.7893C28.0027 21.9335 28.0027 21.9335 27.9627 22.0498C27.9244 21.9632 27.9244 21.9632 27.8854 21.8748C27.7396 21.6084 27.6014 21.3907 27.3049 21.2843C27.178 21.2523 27.0494 21.2272 26.9207 21.2032C26.9207 21.1602 26.9207 21.1172 26.9207 21.0729C26.3835 21.0729 25.8462 21.0729 25.2927 21.0729C25.2927 22.4913 25.2927 23.9097 25.2927 25.3711C25.2712 25.3711 25.2497 25.3711 25.2275 25.3711C25.2275 23.9312 25.2275 22.4913 25.2275 21.0078Z" fill="#FDFE0B"/>
<path d="M42.8759 12.9963C42.8759 13.0392 42.8759 13.0822 42.8759 13.1265C42.4146 13.1298 41.9532 13.1321 41.4919 13.1337C41.3348 13.1343 41.1778 13.1352 41.0208 13.1363C40.7954 13.1379 40.5701 13.1387 40.3448 13.1392C40.2742 13.1399 40.2037 13.1406 40.131 13.1413C40.0658 13.1413 40.0006 13.1413 39.9334 13.1413C39.8471 13.1417 39.8471 13.1417 39.759 13.1422C39.6197 13.1265 39.6197 13.1265 39.4895 12.9963C39.9508 12.9853 40.4122 12.9749 40.8735 12.9649C41.0306 12.9614 41.1876 12.9578 41.3447 12.9541C41.57 12.9487 41.7953 12.9438 42.0207 12.939C42.1265 12.9364 42.1265 12.9364 42.2345 12.9337C42.3322 12.9317 42.3322 12.9317 42.432 12.9297C42.4895 12.9284 42.5471 12.9271 42.6064 12.9258C42.7457 12.9311 42.7457 12.9311 42.8759 12.9963Z" fill="#E7D513"/>
<path d="M6.993 33.9657C7.02523 34.0302 7.02523 34.0302 7.05812 34.0959C6.13402 34.0959 5.20992 34.0959 4.25781 34.0959C4.44203 33.9117 4.62424 33.9415 4.8714 33.9364C4.94345 33.9343 4.94345 33.9343 5.01696 33.9322C5.11877 33.9293 5.2206 33.9267 5.32243 33.9245C5.47738 33.921 5.63227 33.9164 5.78719 33.9116C5.88623 33.909 5.98528 33.9064 6.08432 33.9039C6.15333 33.9019 6.15333 33.9019 6.22374 33.8998C6.4877 33.8944 6.7359 33.9027 6.993 33.9657Z" fill="#E0E0DD"/>
<path d="M33.3679 18.207C33.5591 18.3808 33.6775 18.5433 33.7125 18.8038C33.7157 18.9685 33.7177 19.1331 33.718 19.2978C33.7196 19.3544 33.7211 19.411 33.7228 19.4693C33.7246 19.8782 33.6404 20.1339 33.433 20.4864C33.4116 20.4434 33.3901 20.4004 33.3679 20.3561C33.3877 20.3136 33.4075 20.2711 33.428 20.2274C33.5313 19.9376 33.517 19.6601 33.5144 19.3548C33.515 19.2949 33.5155 19.235 33.516 19.1732C33.515 18.8257 33.482 18.5357 33.3679 18.207Z" fill="#232726"/>
<path d="M41.1177 9.93359C41.3282 10.1113 41.4381 10.343 41.5629 10.5833C41.5864 10.6279 41.6099 10.6725 41.6341 10.7184C41.7093 10.8609 41.7839 11.0037 41.8585 11.1465C41.9325 11.2876 42.0067 11.4285 42.0809 11.5695C42.1286 11.6603 42.1763 11.7511 42.2238 11.842C42.3753 12.1311 42.5329 12.4155 42.7006 12.6956C42.7155 12.7297 42.7304 12.7639 42.7458 12.799C42.7243 12.842 42.7028 12.885 42.6806 12.9293C42.5852 12.7544 42.5852 12.7544 42.4898 12.5795C42.4257 12.4626 42.4257 12.4626 42.2899 12.4083C42.2368 12.2904 42.2368 12.2904 42.181 12.1335C42.0122 11.6937 41.7849 11.2896 41.5573 10.8779C41.4738 10.7268 41.3908 10.5755 41.308 10.4241C41.2714 10.3579 41.2349 10.2918 41.1972 10.2237C41.1177 10.0638 41.1177 10.0638 41.1177 9.93359Z" fill="#F1E60E"/>
<path d="M45.8717 31.8164C45.9147 31.8809 45.9576 31.9454 46.0019 32.0118C45.4777 32.2147 44.9969 32.2289 44.439 32.2071C44.4819 32.1427 44.5249 32.0782 44.5692 32.0118C44.7511 31.983 44.7511 31.983 44.9722 31.9751C45.2948 31.958 45.5675 31.9225 45.8717 31.8164ZM46.0019 31.8815C46.1322 31.9467 46.1322 31.9467 46.1322 31.9467L46.0019 31.8815Z" fill="#252C2C"/>
<path d="M9.53287 31.8828C9.53287 31.9473 9.53287 32.0118 9.53287 32.0782C9.36095 32.0997 9.18902 32.1212 9.01189 32.1433C9.01189 32.1648 9.01189 32.1863 9.01189 32.2084C8.73251 32.2084 8.45313 32.2084 8.16528 32.2084C8.20826 32.144 8.25125 32.0795 8.29553 32.0131C8.48429 31.982 8.48429 31.982 8.71069 31.9724C8.98707 31.9593 9.26169 31.8828 9.53287 31.8828Z" fill="#222928"/>
<path d="M9.98872 28.3008C10.1464 28.5373 10.1327 28.6514 10.1271 28.9317C10.1259 29.0085 10.1248 29.0853 10.1235 29.1644C10.1213 29.2527 10.1213 29.2527 10.119 29.3428C10.0545 29.3428 9.99002 29.3428 9.9236 29.3428C9.92184 29.2057 9.92057 29.0687 9.91953 28.9317C9.91877 28.8554 9.91801 28.779 9.91724 28.7004C9.9236 28.4962 9.9236 28.4962 9.98872 28.3008Z" fill="#1E2424"/>
<path d="M16.7615 18.4023C16.9752 18.6873 16.9808 18.7511 16.9731 19.0902C16.9716 19.2011 16.9716 19.2011 16.9701 19.3143C16.9568 19.5094 16.9568 19.5094 16.8917 19.7048C16.8487 19.7048 16.8058 19.7048 16.7615 19.7048C16.7615 19.275 16.7615 18.8452 16.7615 18.4023Z" fill="#2C3334"/>
<path d="M26.9207 21.0078C27.3556 21.1329 27.6741 21.2527 27.9545 21.6265C28.0278 21.7893 28.0278 21.7893 28.0074 21.9399C27.9926 21.9762 27.9779 22.0124 27.9626 22.0498C27.9371 21.992 27.9116 21.9343 27.8853 21.8748C27.7395 21.6084 27.6013 21.3907 27.3048 21.2843C27.1779 21.2523 27.0493 21.2272 26.9207 21.2032C26.9207 21.1387 26.9207 21.0742 26.9207 21.0078Z" fill="#F5E610"/>
<path d="M37.0799 7.46094C37.1014 7.46094 37.1229 7.46094 37.1451 7.46094C37.1688 7.59513 37.1917 7.72948 37.2143 7.86389C37.2271 7.93869 37.24 8.01348 37.2532 8.09055C37.2739 8.29364 37.2628 8.43766 37.2102 8.63316C37.0504 8.39345 37.0651 8.21353 37.0718 7.93715C37.0724 7.89144 37.073 7.84573 37.0736 7.79864C37.0751 7.68606 37.0775 7.5735 37.0799 7.46094Z" fill="#201F28"/>
<path d="M27.8975 21.5273C28.0603 21.5884 28.0603 21.5884 28.2231 21.7227C28.2529 21.9206 28.2418 22.1101 28.2231 22.3088C28.1801 22.3088 28.1371 22.3088 28.0928 22.3088C28.0277 22.0483 27.9626 21.7878 27.8975 21.5273Z" fill="#10142A"/>
<path d="M45.8716 31.8164C45.9146 31.8809 45.9575 31.9454 46.0018 32.0118C45.7734 32.1162 45.6017 32.1564 45.3506 32.142C45.3721 32.0776 45.3936 32.0131 45.4157 31.9467C45.6477 31.8693 45.6477 31.8693 45.8716 31.8164ZM46.0018 31.8815C46.1321 31.9467 46.1321 31.9467 46.1321 31.9467L46.0018 31.8815Z" fill="#1E2526"/>
<path d="M36.7544 6.48438C36.8189 6.48438 36.8833 6.48438 36.9498 6.48438C36.9713 6.6563 36.9927 6.82823 37.0149 7.00536C36.9504 7.02685 36.8859 7.04834 36.8195 7.07049C36.798 6.87707 36.7765 6.68365 36.7544 6.48438Z" fill="#232625"/>
<path d="M16.6963 17.4883C16.7608 17.4883 16.8252 17.4883 16.8917 17.4883C16.9107 17.8762 16.9107 17.8762 16.8917 18.0093C16.8272 18.0737 16.7627 18.1382 16.6963 18.2046C16.6963 17.9682 16.6963 17.7318 16.6963 17.4883Z" fill="#212827"/>
<path d="M47.4998 27.8438C47.5642 27.8438 47.6287 27.8438 47.6951 27.8438C47.7878 28.0927 47.841 28.2939 47.8254 28.5601C47.6951 28.495 47.6951 28.495 47.6259 28.3118C47.5802 28.1562 47.5362 28.0017 47.4998 27.8438Z" fill="#EFEFEC"/>
<path d="M5.6253 23.4805C5.68977 23.502 5.75424 23.5235 5.82067 23.5456C5.73678 23.6002 5.65261 23.6544 5.56831 23.7084C5.52147 23.7386 5.47463 23.7688 5.42637 23.8C5.29968 23.8712 5.29968 23.8712 5.16943 23.8712C5.19092 23.7638 5.21242 23.6563 5.23456 23.5456C5.29903 23.5671 5.3635 23.5886 5.42993 23.6107C5.4944 23.5677 5.55887 23.5248 5.6253 23.4805Z" fill="#F1DA13"/>
<path d="M41.7689 24.5859C41.8334 24.5859 41.8979 24.5859 41.9643 24.5859C41.9331 24.8669 41.8506 24.9875 41.6387 25.172C41.6957 24.6592 41.6957 24.6592 41.7689 24.5859Z" fill="#F1DD10"/>
<path d="M42.2897 30.4492C42.5502 30.7586 42.5502 30.7586 42.5502 30.9051C42.6147 30.9266 42.6792 30.9481 42.7456 30.9702C42.7026 31.0132 42.6596 31.0562 42.6153 31.1005C42.4864 30.907 42.3575 30.7136 42.2246 30.5143C42.2461 30.4929 42.2676 30.4714 42.2897 30.4492Z" fill="#EBEAE7"/>
<path d="M17.1521 23.6094C17.2166 23.6309 17.281 23.6524 17.3475 23.6745C17.3475 23.8034 17.3475 23.9324 17.3475 24.0652C17.283 24.0867 17.2185 24.1082 17.1521 24.1304C17.1521 23.9584 17.1521 23.7865 17.1521 23.6094Z" fill="#272E2C"/>
<path d="M43.7225 21.2031C43.744 21.2031 43.7655 21.2031 43.7876 21.2031C43.7957 21.5776 43.7957 21.5776 43.7225 21.7241C43.658 21.7241 43.5935 21.7241 43.5271 21.7241C43.6492 21.3497 43.6492 21.3497 43.7225 21.2031Z" fill="#232225"/>
<path d="M12.0725 16.8398C12.2659 16.8613 12.4593 16.8828 12.6586 16.905C12.6801 16.9694 12.7016 17.0339 12.7237 17.1003C12.4894 17.1134 12.337 17.0983 12.1376 16.9701C12.1161 16.9271 12.0947 16.8841 12.0725 16.8398Z" fill="#252723"/>
<path d="M37.5357 9.73828C37.5572 9.73828 37.5787 9.73828 37.6008 9.73828C37.6939 10.2965 37.6939 10.2965 37.5357 10.5198C37.4861 10.2387 37.4601 10.0154 37.5357 9.73828Z" fill="#262525"/>
</svg>
