<svg width="200" height="43" viewBox="0 0 200 43" fill="none" xmlns="http://www.w3.org/2000/svg">
<path d="M182.713 42.9507C179.854 42.9507 177.414 42.4659 175.395 41.4962C173.375 40.5064 171.786 39.1833 170.626 37.5268C169.466 35.8704 168.707 33.9917 168.347 31.8909C168.007 29.7698 168.057 27.5983 168.497 25.3762C169.137 22.3663 170.226 19.7908 171.766 17.6495C173.325 15.5082 175.255 13.8821 177.554 12.7711C179.874 11.6398 182.493 11.0742 185.412 11.0742C188.191 11.0742 190.581 11.559 192.58 12.5287C194.58 13.4781 196.179 14.781 197.379 16.4375C198.599 18.0939 199.388 19.9726 199.748 22.0734C200.128 24.1541 200.078 26.3357 199.598 28.6184C198.978 31.5273 197.909 34.0624 196.389 36.2239C194.87 38.3652 192.96 40.0216 190.661 41.1932C188.361 42.3649 185.712 42.9507 182.713 42.9507ZM182.983 35.5573C184.342 35.5573 185.532 35.2038 186.552 34.4968C187.592 33.7897 188.451 32.8504 189.131 31.6788C189.811 30.5071 190.291 29.1941 190.571 27.7397C190.931 26.1034 190.971 24.5783 190.691 23.1642C190.431 21.7502 189.851 20.619 188.951 19.7706C188.051 18.9019 186.842 18.4676 185.322 18.4676C183.963 18.4676 182.753 18.8009 181.693 19.4675C180.633 20.1342 179.744 21.0533 179.024 22.2249C178.324 23.3966 177.824 24.7399 177.524 26.2549C177.184 27.8912 177.154 29.4163 177.434 30.8304C177.714 32.2444 178.314 33.3857 179.234 34.2543C180.154 35.123 181.403 35.5573 182.983 35.5573Z" fill="#0028FF"/>
<path d="M157.542 42.5019C155.237 42.5019 153.28 42.0977 151.67 41.2893C150.08 40.4607 148.957 39.2077 148.302 37.5303C147.646 35.8528 147.586 33.7307 148.123 31.1641C148.401 29.8504 148.669 28.5671 148.928 27.314C149.186 26.0408 149.454 24.7271 149.732 23.373C150.031 21.9987 150.339 20.5335 150.657 18.9773C150.975 17.4009 151.332 15.6427 151.73 13.7025C152.226 11.3985 152.664 9.30678 153.041 7.42724C153.439 5.54769 153.846 3.60751 154.263 1.60671L163.385 0C163.067 1.57639 162.759 3.07195 162.461 4.48665C162.163 5.88116 161.855 7.32618 161.537 8.82173C161.239 10.2971 160.901 11.924 160.523 13.7025L157.334 29.1633C156.916 31.1034 156.966 32.5788 157.483 33.5893C158.019 34.5998 159.013 35.105 160.464 35.105C161.1 35.105 161.795 34.9939 162.55 34.7716C163.325 34.5493 164.1 34.1653 164.875 33.6196L163.921 41.0468C163.504 41.3298 162.928 41.5723 162.193 41.7744C161.477 41.9967 160.702 42.1685 159.867 42.2897C159.033 42.4312 158.258 42.5019 157.542 42.5019ZM145.977 18.2498L147.305 10.6255H169.883L168.452 18.2498C166.584 18.2498 164.706 18.2498 162.819 18.2498C160.95 18.2498 159.142 18.2498 157.393 18.2498H153.429H145.977Z" fill="#0028FF"/>
<path d="M122.694 41.9468C120.777 41.9468 119.173 41.4808 117.882 40.5489C116.59 39.5968 115.693 38.3408 115.188 36.7809C114.684 35.221 114.633 33.5193 115.037 31.6758C115.339 30.2577 115.824 29.0726 116.49 28.1205C117.176 27.1683 117.993 26.3884 118.941 25.7806C119.909 25.1729 120.969 24.6968 122.119 24.3524C123.289 23.9878 124.5 23.7143 125.75 23.532L135.223 22.043C135.425 21.1314 135.344 20.3413 134.981 19.6728C134.638 18.984 134.013 18.4573 133.105 18.0926C132.197 17.7077 131.037 17.5152 129.624 17.5152C128.898 17.5152 128.121 17.576 127.294 17.6976C126.487 17.7989 125.64 17.9609 124.752 18.1838C123.864 18.3864 122.946 18.6497 121.998 18.9738C121.07 19.2777 120.111 19.6424 119.123 20.0678L120.545 12.1063C121.271 11.8632 122.099 11.6302 123.027 11.4074C123.955 11.1643 124.933 10.9414 125.962 10.7388C126.991 10.5363 128.041 10.3742 129.11 10.2526C130.199 10.1311 131.259 10.0703 132.288 10.0703C135.193 10.0703 137.584 10.5565 139.46 11.5289C141.337 12.5013 142.638 13.889 143.364 15.692C144.091 17.4747 144.182 19.6018 143.637 22.0734C143.435 23.0863 143.223 24.1195 143.001 25.1729C142.779 26.2061 142.547 27.2899 142.305 28.4243L141.76 30.9769C141.438 32.4963 141.095 34.0967 140.731 35.7781C140.34 37.5901 140.12 39.85 139.842 41.9468H132.034L132.167 37.1759H131.47C130.724 38.2496 129.897 39.141 128.989 39.85C128.101 40.5388 127.133 41.0554 126.083 41.3998C125.034 41.7644 123.904 41.9468 122.694 41.9468ZM126.901 34.9273C127.627 34.9273 128.353 34.7753 129.08 34.4715C129.826 34.1473 130.532 33.6915 131.198 33.104C131.884 32.5165 132.51 31.8176 133.074 31.0073L134.103 26.1453C133.821 26.3479 133.478 26.5505 133.074 26.753C132.671 26.9354 132.116 27.1278 131.41 27.3304C130.704 27.5127 129.745 27.7356 128.535 27.9989C127.748 28.1812 127.032 28.394 126.386 28.6371C125.74 28.8802 125.206 29.2246 124.782 29.6702C124.358 30.1159 124.076 30.6933 123.935 31.4023C123.733 32.5165 123.925 33.3876 124.51 34.0156C125.095 34.6234 125.892 34.9273 126.901 34.9273Z" fill="#0028FF"/>
<path d="M69.6357 42.8152C69.4226 40.8122 69.2096 38.8092 68.9965 36.8063C68.8047 34.782 68.6129 32.7577 68.4212 30.7334L67.8139 25.076C67.6008 22.6895 67.3771 20.3455 67.1427 18.0442C66.9083 15.7216 66.6633 13.3457 66.4076 10.9166L76.2518 10.6289C76.337 12.8237 76.4116 15.1356 76.4755 17.5648C76.5394 19.9939 76.6033 22.3379 76.6673 24.5966L76.923 32.9388H77.6261L81.2697 24.4687C82.2499 22.1674 83.2194 19.9087 84.1782 17.6926C85.1584 15.4553 86.1386 13.1966 87.1187 10.9166H96.068C96.1106 13.09 96.1638 15.3168 96.2278 17.5968C96.2917 19.8767 96.3556 22.1248 96.4195 24.3409L96.6113 32.9388H97.3464L101.086 24.2769C102.023 22.0822 103.004 19.8022 104.026 17.4369C105.049 15.0504 105.987 12.8769 106.839 10.9166H117.674C116.417 13.3031 115.181 15.6683 113.966 18.0123C112.752 20.3349 111.516 22.6895 110.259 25.076L107.318 30.6375C106.232 32.7257 105.156 34.782 104.09 36.8063C103.025 38.8306 101.97 40.8335 100.926 42.8152H89.9633C89.8994 40.9401 89.8141 38.9584 89.7076 36.8702C89.6011 34.782 89.5158 32.779 89.4519 30.8612L89.0684 23.7016H88.3652L85.0092 31.053C84.1569 32.9708 83.262 34.9311 82.3245 36.9341C81.4082 38.9371 80.5133 40.8975 79.6397 42.8152H69.6357Z" fill="#0028FF"/>
<path d="M49.8062 42.5054C46.1347 42.5054 43.0649 41.8078 40.5968 40.4126C38.1491 38.9972 36.4154 36.9955 35.3955 34.4074C34.396 31.8192 34.2634 28.7458 34.9977 25.1871C35.6097 22.2553 36.6499 19.6975 38.1185 17.5137C39.5871 15.33 41.4331 13.6417 43.6564 12.4487C45.8797 11.2355 48.4192 10.6289 51.2748 10.6289C54.4772 10.6289 57.0881 11.2052 59.1074 12.3577C61.1267 13.5102 62.4934 15.1278 63.2073 17.2104C63.9212 19.2931 63.9314 21.7194 63.2379 24.4896C63.0747 25.1568 62.9013 25.7836 62.7177 26.37C62.5545 26.9564 62.371 27.5225 62.167 28.0685L54.8851 25.3691C54.9871 25.086 55.0789 24.803 55.1605 24.5199C55.2421 24.2166 55.3135 23.9436 55.3747 23.701C55.803 21.9216 55.6704 20.3647 54.9769 19.0302C54.2834 17.6957 53.1106 17.0285 51.4584 17.0285C50.4181 17.0285 49.3983 17.3014 48.3988 17.8474C47.4197 18.3933 46.5426 19.2425 45.7675 20.3951C44.9924 21.5476 44.4009 23.0337 43.993 24.8535L43.6564 26.3397C43.2689 28.301 43.3607 29.9287 43.9318 31.2227C44.5233 32.4966 45.4922 33.457 46.8384 34.1041C48.1846 34.7309 49.8368 35.0443 51.795 35.0443C52.6516 35.0443 53.6001 34.9735 54.6404 34.832C55.701 34.6702 56.7515 34.4377 57.7918 34.1344C58.832 33.8109 59.7907 33.4065 60.6678 32.9212L59.444 40.6249C58.8932 40.9484 58.1385 41.2517 57.1798 41.5348C56.2212 41.8179 55.1095 42.0504 53.8449 42.2324C52.6006 42.4144 51.2544 42.5054 49.8062 42.5054ZM37.9044 28.0685L38.6693 23.2157L57.7612 22.8214L62.9625 24.3076L62.167 28.0685H37.9044Z" fill="#0028FF"/>
<path d="M0 42.4977C0.403563 40.728 0.782911 37.7 1.13805 36.07C1.49318 34.4401 1.91289 32.5617 2.39716 30.435L4.89118 19.1184C5.37545 16.9141 5.80323 14.9659 6.17451 13.2739C6.56193 11.5663 6.95742 9.79661 7.36098 7.96484C8.44253 7.96484 9.75007 7.96484 11.2836 7.96484C12.8171 7.96484 14.4475 7.96484 16.1748 7.96484C17.9182 7.96484 19.6293 7.96484 21.3081 7.96484C24.2299 7.96484 26.6432 8.37622 28.548 9.19896C30.469 10.0062 31.8007 11.2325 32.5433 12.878C33.302 14.5235 33.4069 16.6114 32.8581 19.1417C32.4222 21.1287 31.6554 22.7664 30.5578 24.0549C29.4762 25.3433 27.9992 26.298 26.1266 26.919C24.2703 27.5399 21.9619 27.8426 19.2015 27.8271L23.8021 24.6836L26.6351 31.413C27.071 32.4531 27.531 33.563 28.0153 34.7428C28.5157 35.9226 29 37.0791 29.4681 38.2123C30.5473 39.8413 30.5473 41.1695 31.8755 42.4977H19.8311C19.3791 41.2558 18.806 38.7401 18.4025 37.6069C17.9989 36.4736 17.5953 35.356 17.1918 34.2538L14.044 25.1027L19.1047 29.2009H10.6298L11.9858 23.0303H17.5792C18.4347 23.0303 19.1854 22.9294 19.8311 22.7276C20.4929 22.5103 21.0418 22.1378 21.4776 21.61C21.9134 21.0666 22.2444 20.2905 22.4704 19.2814C22.6156 18.5674 22.6318 17.9619 22.5188 17.4652C22.4219 16.9684 22.2202 16.5571 21.9134 16.2311C21.6229 15.9051 21.2516 15.6645 20.7996 15.5092C20.3638 15.354 19.8795 15.2764 19.3468 15.2764H8.37796L16.8043 9.50167C16.4008 11.3024 16.0053 13.0643 15.6179 14.7874C15.2466 16.5105 14.8188 18.4509 14.3345 20.6087L12.1795 30.3885C11.7114 32.5462 11.2917 34.4401 10.9204 36.07C10.5653 37.7 9.68444 40.728 9.29702 42.4977H0Z" fill="#0028FF"/>
</svg>
